<?xml version="1.0" encoding="UTF-8" standalone="no"?>
<!DOCTYPE svg PUBLIC "-//W3C//DTD SVG 1.1//EN"
 "http://www.w3.org/Graphics/SVG/1.1/DTD/svg11.dtd">
<!-- Generated by graphviz version 12.1.2 (20240928.0832)
 -->
<!-- Title: cheer_talks Pages: 1 -->
<svg width="830pt" height="1068pt"
 viewBox="0.00 0.00 829.50 1068.00" xmlns="http://www.w3.org/2000/svg" xmlns:xlink="http://www.w3.org/1999/xlink">
<g id="graph0" class="graph" transform="scale(1 1) rotate(0) translate(4 1064)">
<title>cheer_talks</title>
<polygon fill="white" stroke="none" points="-4,4 -4,-1064 825.5,-1064 825.5,4 -4,4"/>
<!-- cheer_talks -->
<g id="node1" class="node">
<title>cheer_talks</title>
<polygon fill="#efefef" stroke="none" points="293.19,-604.6 293.19,-640.2 513.64,-640.2 513.64,-604.6 293.19,-604.6"/>
<polygon fill="none" stroke="black" points="293.19,-604.6 293.19,-640.2 513.64,-640.2 513.64,-604.6 293.19,-604.6"/>
<text text-anchor="start" x="300.19" y="-618" font-family="Arial Bold" font-size="18.00">cheer_talks</text>
<text text-anchor="start" x="382.15" y="-618" font-family="Arial" font-size="14.00">    </text>
<text text-anchor="start" x="413.26" y="-618" font-family="Arial" font-size="14.00" fill="#666666">[BASE TABLE]</text>
<polygon fill="none" stroke="black" points="293.19,-573.8 293.19,-604.6 513.64,-604.6 513.64,-573.8 293.19,-573.8"/>
<text text-anchor="start" x="300.19" y="-586" font-family="Arial" font-size="14.00">id </text>
<text text-anchor="start" x="314.97" y="-586" font-family="Arial" font-size="14.00" fill="#666666">[bigint]</text>
<polygon fill="none" stroke="black" points="293.19,-543 293.19,-573.8 513.64,-573.8 513.64,-543 293.19,-543"/>
<text text-anchor="start" x="300.19" y="-555.2" font-family="Arial" font-size="14.00">game_team_id </text>
<text text-anchor="start" x="396.69" y="-555.2" font-family="Arial" font-size="14.00" fill="#666666">[bigint]</text>
<polygon fill="none" stroke="black" points="293.19,-512.2 293.19,-543 513.64,-543 513.64,-512.2 293.19,-512.2"/>
<text text-anchor="start" x="300.19" y="-524.4" font-family="Arial" font-size="14.00">content </text>
<text text-anchor="start" x="350" y="-524.4" font-family="Arial" font-size="14.00" fill="#666666">[varchar(255)]</text>
<polygon fill="none" stroke="black" points="293.19,-481.4 293.19,-512.2 513.64,-512.2 513.64,-481.4 293.19,-481.4"/>
<text text-anchor="start" x="300.19" y="-493.6" font-family="Arial" font-size="14.00">created_at </text>
<text text-anchor="start" x="370.24" y="-493.6" font-family="Arial" font-size="14.00" fill="#666666">[datetime]</text>
<polygon fill="none" stroke="black" points="293.19,-450.6 293.19,-481.4 513.64,-481.4 513.64,-450.6 293.19,-450.6"/>
<text text-anchor="start" x="300.19" y="-462.8" font-family="Arial" font-size="14.00">block_status </text>
<text text-anchor="start" x="381.9" y="-462.8" font-family="Arial" font-size="14.00" fill="#666666">[varchar(50)]</text>
<polygon fill="none" stroke="black" points="293.19,-419.8 293.19,-450.6 513.64,-450.6 513.64,-419.8 293.19,-419.8"/>
<text text-anchor="start" x="300.19" y="-432" font-family="Arial" font-size="14.00">is_ai_seed </text>
<text text-anchor="start" x="371.02" y="-432" font-family="Arial" font-size="14.00" fill="#666666">[tinyint(1)]</text>
<polygon fill="none" stroke="black" stroke-width="3" points="291.69,-418.3 291.69,-641.7 515.14,-641.7 515.14,-418.3 291.69,-418.3"/>
</g>
<!-- game_teams -->
<g id="node4" class="node">
<title>game_teams</title>
<polygon fill="#efefef" stroke="none" points="289.19,-258.8 289.19,-294.4 517.64,-294.4 517.64,-258.8 289.19,-258.8"/>
<polygon fill="none" stroke="black" points="289.19,-258.8 289.19,-294.4 517.64,-294.4 517.64,-258.8 289.19,-258.8"/>
<text text-anchor="start" x="296.19" y="-272.2" font-family="Arial Bold" font-size="18.00">game_teams</text>
<text text-anchor="start" x="386.15" y="-272.2" font-family="Arial" font-size="14.00">    </text>
<text text-anchor="start" x="417.27" y="-272.2" font-family="Arial" font-size="14.00" fill="#666666">[BASE TABLE]</text>
<polygon fill="none" stroke="black" points="289.19,-228 289.19,-258.8 517.64,-258.8 517.64,-228 289.19,-228"/>
<text text-anchor="start" x="296.19" y="-240.2" font-family="Arial" font-size="14.00">id </text>
<text text-anchor="start" x="310.97" y="-240.2" font-family="Arial" font-size="14.00" fill="#666666">[bigint]</text>
<polygon fill="none" stroke="black" points="289.19,-197.2 289.19,-228 517.64,-228 517.64,-197.2 289.19,-197.2"/>
<text text-anchor="start" x="296.19" y="-209.4" font-family="Arial" font-size="14.00">game_id </text>
<text text-anchor="start" x="353.78" y="-209.4" font-family="Arial" font-size="14.00" fill="#666666">[bigint]</text>
<polygon fill="none" stroke="black" points="289.19,-166.4 289.19,-197.2 517.64,-197.2 517.64,-166.4 289.19,-166.4"/>
<text text-anchor="start" x="296.19" y="-178.6" font-family="Arial" font-size="14.00">team_id </text>
<text text-anchor="start" x="349.88" y="-178.6" font-family="Arial" font-size="14.00" fill="#666666">[bigint]</text>
<polygon fill="none" stroke="black" points="289.19,-135.6 289.19,-166.4 517.64,-166.4 517.64,-135.6 289.19,-135.6"/>
<text text-anchor="start" x="296.19" y="-147.8" font-family="Arial" font-size="14.00">cheer_count </text>
<text text-anchor="start" x="377.13" y="-147.8" font-family="Arial" font-size="14.00" fill="#666666">[int]</text>
<polygon fill="none" stroke="black" points="289.19,-104.8 289.19,-135.6 517.64,-135.6 517.64,-104.8 289.19,-104.8"/>
<text text-anchor="start" x="296.19" y="-117" font-family="Arial" font-size="14.00">score </text>
<text text-anchor="start" x="334.31" y="-117" font-family="Arial" font-size="14.00" fill="#666666">[int]</text>
<polygon fill="none" stroke="black" points="289.19,-74 289.19,-104.8 517.64,-104.8 517.64,-74 289.19,-74"/>
<text text-anchor="start" x="296.19" y="-86.2" font-family="Arial" font-size="14.00">pk_score </text>
<text text-anchor="start" x="356.88" y="-86.2" font-family="Arial" font-size="14.00" fill="#666666">[int]</text>
<polygon fill="none" stroke="black" points="289.19,-43.2 289.19,-74 517.64,-74 517.64,-43.2 289.19,-43.2"/>
<text text-anchor="start" x="296.19" y="-55.4" font-family="Arial" font-size="14.00">result </text>
<text text-anchor="start" x="334.31" y="-55.4" font-family="Arial" font-size="14.00" fill="#666666">[varchar(255)]</text>
</g>
<!-- cheer_talks&#45;&gt;game_teams -->
<g id="edge3" class="edge">
<title>cheer_talks:game_team_id&#45;&gt;game_teams:id</title>
<path fill="none" stroke="black" d="M525.04,-557.8C654.76,-542.61 655.1,-243.4 518.64,-243.4"/>
<polygon fill="black" stroke="black" points="524.95,-557.81 514.71,-553.89 519.63,-558.11 515.3,-558.36 515.3,-558.36 515.3,-558.36 519.63,-558.11 515.23,-562.87 524.95,-557.81"/>
<text text-anchor="start" x="521.64" y="-568.4" font-family="Arial" font-size="10.00">FOREIGN KEY (game_team_id) REFERENCES game_teams (id)</text>
</g>
<!-- cheer_talk_bot_filter_history -->
<g id="node2" class="node">
<title>cheer_talk_bot_filter_history</title>
<polygon fill="#efefef" stroke="none" points="43.2,-981.2 43.2,-1016.8 391.62,-1016.8 391.62,-981.2 43.2,-981.2"/>
<polygon fill="none" stroke="black" points="43.2,-981.2 43.2,-1016.8 391.62,-1016.8 391.62,-981.2 43.2,-981.2"/>
<text text-anchor="start" x="50.2" y="-994.6" font-family="Arial Bold" font-size="18.00">cheer_talk_bot_filter_history</text>
<text text-anchor="start" x="260.14" y="-994.6" font-family="Arial" font-size="14.00">    </text>
<text text-anchor="start" x="291.25" y="-994.6" font-family="Arial" font-size="14.00" fill="#666666">[BASE TABLE]</text>
<polygon fill="none" stroke="black" points="43.2,-950.4 43.2,-981.2 391.62,-981.2 391.62,-950.4 43.2,-950.4"/>
<text text-anchor="start" x="50.2" y="-962.6" font-family="Arial" font-size="14.00">id </text>
<text text-anchor="start" x="64.99" y="-962.6" font-family="Arial" font-size="14.00" fill="#666666">[bigint]</text>
<polygon fill="none" stroke="black" points="43.2,-919.6 43.2,-950.4 391.62,-950.4 391.62,-919.6 43.2,-919.6"/>
<text text-anchor="start" x="50.2" y="-931.8" font-family="Arial" font-size="14.00">cheer_talk_id </text>
<text text-anchor="start" x="137.37" y="-931.8" font-family="Arial" font-size="14.00" fill="#666666">[bigint]</text>
<polygon fill="none" stroke="black" points="43.2,-888.8 43.2,-919.6 391.62,-919.6 391.62,-888.8 43.2,-888.8"/>
<text text-anchor="start" x="50.2" y="-901" font-family="Arial" font-size="14.00">filtered_at </text>
<text text-anchor="start" x="115.57" y="-901" font-family="Arial" font-size="14.00" fill="#666666">[datetime(6)]</text>
<polygon fill="none" stroke="black" points="43.2,-858 43.2,-888.8 391.62,-888.8 391.62,-858 43.2,-858"/>
<text text-anchor="start" x="50.2" y="-870.2" font-family="Arial" font-size="14.00">cheer_talk_filter_result </text>
<text text-anchor="start" x="194.94" y="-870.2" font-family="Arial" font-size="14.00" fill="#666666">[varchar(50)]</text>
<polygon fill="none" stroke="black" points="43.2,-827.2 43.2,-858 391.62,-858 391.62,-827.2 43.2,-827.2"/>
<text text-anchor="start" x="50.2" y="-839.4" font-family="Arial" font-size="14.00">bot_type </text>
<text text-anchor="start" x="107.8" y="-839.4" font-family="Arial" font-size="14.00" fill="#666666">[varchar(50)]</text>
<polygon fill="none" stroke="black" points="43.2,-796.4 43.2,-827.2 391.62,-827.2 391.62,-796.4 43.2,-796.4"/>
<text text-anchor="start" x="50.2" y="-808.6" font-family="Arial" font-size="14.00">raw_bot_response </text>
<text text-anchor="start" x="169.28" y="-808.6" font-family="Arial" font-size="14.00" fill="#666666">[json]</text>
<polygon fill="none" stroke="black" points="43.2,-765.6 43.2,-796.4 391.62,-796.4 391.62,-765.6 43.2,-765.6"/>
<text text-anchor="start" x="50.2" y="-777.8" font-family="Arial" font-size="14.00">latency_ms </text>
<text text-anchor="start" x="124.9" y="-777.8" font-family="Arial" font-size="14.00" fill="#666666">[int]</text>
</g>
<!-- cheer_talk_bot_filter_history&#45;&gt;cheer_talks -->
<g id="edge1" class="edge">
<title>cheer_talk_bot_filter_history:cheer_talk_id&#45;&gt;cheer_talks:id</title>
<path fill="none" stroke="black" d="M402.48,-931.96C436.54,-908.65 416.66,-758.04 391.62,-722.4 364.85,-684.28 320.07,-724.44 293.19,-686.4 268.25,-651.12 248.99,-589.2 292.19,-589.2"/>
<polygon fill="black" stroke="black" points="402.5,-931.95 391.62,-930.6 397.4,-933.53 393.26,-934.8 393.26,-934.8 393.26,-934.8 397.4,-933.53 394.27,-939.2 402.5,-931.95"/>
<text text-anchor="start" x="399.62" y="-945" font-family="Arial" font-size="10.00">FOREIGN KEY (cheer_talk_id) REFERENCES cheer_talks (id)</text>
</g>
<!-- reports -->
<g id="node3" class="node">
<title>reports</title>
<polygon fill="#efefef" stroke="none" points="496.18,-935 496.18,-970.6 684.65,-970.6 684.65,-935 496.18,-935"/>
<polygon fill="none" stroke="black" points="496.18,-935 496.18,-970.6 684.65,-970.6 684.65,-935 496.18,-935"/>
<text text-anchor="start" x="503.18" y="-948.4" font-family="Arial Bold" font-size="18.00">reports</text>
<text text-anchor="start" x="553.16" y="-948.4" font-family="Arial" font-size="14.00">    </text>
<text text-anchor="start" x="584.28" y="-948.4" font-family="Arial" font-size="14.00" fill="#666666">[BASE TABLE]</text>
<polygon fill="none" stroke="black" points="496.18,-904.2 496.18,-935 684.65,-935 684.65,-904.2 496.18,-904.2"/>
<text text-anchor="start" x="503.18" y="-916.4" font-family="Arial" font-size="14.00">id </text>
<text text-anchor="start" x="517.96" y="-916.4" font-family="Arial" font-size="14.00" fill="#666666">[bigint]</text>
<polygon fill="none" stroke="black" points="496.18,-873.4 496.18,-904.2 684.65,-904.2 684.65,-873.4 496.18,-873.4"/>
<text text-anchor="start" x="503.18" y="-885.6" font-family="Arial" font-size="14.00">cheer_talk_id </text>
<text text-anchor="start" x="590.34" y="-885.6" font-family="Arial" font-size="14.00" fill="#666666">[bigint]</text>
<polygon fill="none" stroke="black" points="496.18,-842.6 496.18,-873.4 684.65,-873.4 684.65,-842.6 496.18,-842.6"/>
<text text-anchor="start" x="503.18" y="-854.8" font-family="Arial" font-size="14.00">reported_at </text>
<text text-anchor="start" x="578.67" y="-854.8" font-family="Arial" font-size="14.00" fill="#666666">[datetime]</text>
<polygon fill="none" stroke="black" points="496.18,-811.8 496.18,-842.6 684.65,-842.6 684.65,-811.8 496.18,-811.8"/>
<text text-anchor="start" x="503.18" y="-824" font-family="Arial" font-size="14.00">state </text>
<text text-anchor="start" x="537.42" y="-824" font-family="Arial" font-size="14.00" fill="#666666">[varchar(255)]</text>
</g>
<!-- reports&#45;&gt;cheer_talks -->
<g id="edge2" class="edge">
<title>reports:cheer_talk_id&#45;&gt;cheer_talks:id</title>
<path fill="none" stroke="black" d="M484.83,-888.09C377.62,-872.07 644.29,-589.2 514.64,-589.2"/>
<polygon fill="black" stroke="black" points="484.87,-888.1 494.54,-893.27 490.19,-888.46 494.51,-888.75 494.51,-888.75 494.51,-888.75 490.19,-888.46 495.15,-884.29 484.87,-888.1"/>
<text text-anchor="start" x="502.18" y="-898.8" font-family="Arial" font-size="10.00">FOREIGN KEY (cheer_talk_id) REFERENCES cheer_talks (id)</text>
</g>
</g>
</svg>
