<?xml version="1.0" encoding="UTF-8" standalone="no"?>
<!DOCTYPE svg PUBLIC "-//W3C//DTD SVG 1.1//EN"
 "http://www.w3.org/Graphics/SVG/1.1/DTD/svg11.dtd">
<!-- Generated by graphviz version 12.1.2 (20240928.0832)
 -->
<!-- Title: cheer_talk_bot_filter_history Pages: 1 -->
<svg width="697pt" height="694pt"
 viewBox="0.00 0.00 697.15 694.40" xmlns="http://www.w3.org/2000/svg" xmlns:xlink="http://www.w3.org/1999/xlink">
<g id="graph0" class="graph" transform="scale(1 1) rotate(0) translate(4 690.4)">
<title>cheer_talk_bot_filter_history</title>
<polygon fill="white" stroke="none" points="-4,4 -4,-690.4 693.15,-690.4 693.15,4 -4,4"/>
<!-- cheer_talk_bot_filter_history -->
<g id="node1" class="node">
<title>cheer_talk_bot_filter_history</title>
<polygon fill="#efefef" stroke="none" points="46.2,-604.6 46.2,-640.2 394.62,-640.2 394.62,-604.6 46.2,-604.6"/>
<polygon fill="none" stroke="black" points="46.2,-604.6 46.2,-640.2 394.62,-640.2 394.62,-604.6 46.2,-604.6"/>
<text text-anchor="start" x="53.2" y="-618" font-family="Arial Bold" font-size="18.00">cheer_talk_bot_filter_history</text>
<text text-anchor="start" x="263.14" y="-618" font-family="Arial" font-size="14.00">    </text>
<text text-anchor="start" x="294.25" y="-618" font-family="Arial" font-size="14.00" fill="#666666">[BASE TABLE]</text>
<polygon fill="none" stroke="black" points="46.2,-573.8 46.2,-604.6 394.62,-604.6 394.62,-573.8 46.2,-573.8"/>
<text text-anchor="start" x="53.2" y="-586" font-family="Arial" font-size="14.00">id </text>
<text text-anchor="start" x="67.99" y="-586" font-family="Arial" font-size="14.00" fill="#666666">[bigint]</text>
<polygon fill="none" stroke="black" points="46.2,-543 46.2,-573.8 394.62,-573.8 394.62,-543 46.2,-543"/>
<text text-anchor="start" x="53.2" y="-555.2" font-family="Arial" font-size="14.00">cheer_talk_id </text>
<text text-anchor="start" x="140.37" y="-555.2" font-family="Arial" font-size="14.00" fill="#666666">[bigint]</text>
<polygon fill="none" stroke="black" points="46.2,-512.2 46.2,-543 394.62,-543 394.62,-512.2 46.2,-512.2"/>
<text text-anchor="start" x="53.2" y="-524.4" font-family="Arial" font-size="14.00">filtered_at </text>
<text text-anchor="start" x="118.57" y="-524.4" font-family="Arial" font-size="14.00" fill="#666666">[datetime(6)]</text>
<polygon fill="none" stroke="black" points="46.2,-481.4 46.2,-512.2 394.62,-512.2 394.62,-481.4 46.2,-481.4"/>
<text text-anchor="start" x="53.2" y="-493.6" font-family="Arial" font-size="14.00">cheer_talk_filter_result </text>
<text text-anchor="start" x="197.94" y="-493.6" font-family="Arial" font-size="14.00" fill="#666666">[varchar(50)]</text>
<polygon fill="none" stroke="black" points="46.2,-450.6 46.2,-481.4 394.62,-481.4 394.62,-450.6 46.2,-450.6"/>
<text text-anchor="start" x="53.2" y="-462.8" font-family="Arial" font-size="14.00">bot_type </text>
<text text-anchor="start" x="110.8" y="-462.8" font-family="Arial" font-size="14.00" fill="#666666">[varchar(50)]</text>
<polygon fill="none" stroke="black" points="46.2,-419.8 46.2,-450.6 394.62,-450.6 394.62,-419.8 46.2,-419.8"/>
<text text-anchor="start" x="53.2" y="-432" font-family="Arial" font-size="14.00">raw_bot_response </text>
<text text-anchor="start" x="172.28" y="-432" font-family="Arial" font-size="14.00" fill="#666666">[json]</text>
<polygon fill="none" stroke="black" points="46.2,-389 46.2,-419.8 394.62,-419.8 394.62,-389 46.2,-389"/>
<text text-anchor="start" x="53.2" y="-401.2" font-family="Arial" font-size="14.00">latency_ms </text>
<text text-anchor="start" x="127.9" y="-401.2" font-family="Arial" font-size="14.00" fill="#666666">[int]</text>
<polygon fill="none" stroke="black" stroke-width="3" points="44.7,-387.5 44.7,-641.7 396.12,-641.7 396.12,-387.5 44.7,-387.5"/>
</g>
<!-- cheer_talks -->
<g id="node2" class="node">
<title>cheer_talks</title>
<polygon fill="#efefef" stroke="none" points="110.19,-228 110.19,-263.6 330.64,-263.6 330.64,-228 110.19,-228"/>
<polygon fill="none" stroke="black" points="110.19,-228 110.19,-263.6 330.64,-263.6 330.64,-228 110.19,-228"/>
<text text-anchor="start" x="117.19" y="-241.4" font-family="Arial Bold" font-size="18.00">cheer_talks</text>
<text text-anchor="start" x="199.15" y="-241.4" font-family="Arial" font-size="14.00">    </text>
<text text-anchor="start" x="230.26" y="-241.4" font-family="Arial" font-size="14.00" fill="#666666">[BASE TABLE]</text>
<polygon fill="none" stroke="black" points="110.19,-197.2 110.19,-228 330.64,-228 330.64,-197.2 110.19,-197.2"/>
<text text-anchor="start" x="117.19" y="-209.4" font-family="Arial" font-size="14.00">id </text>
<text text-anchor="start" x="131.97" y="-209.4" font-family="Arial" font-size="14.00" fill="#666666">[bigint]</text>
<polygon fill="none" stroke="black" points="110.19,-166.4 110.19,-197.2 330.64,-197.2 330.64,-166.4 110.19,-166.4"/>
<text text-anchor="start" x="117.19" y="-178.6" font-family="Arial" font-size="14.00">game_team_id </text>
<text text-anchor="start" x="213.69" y="-178.6" font-family="Arial" font-size="14.00" fill="#666666">[bigint]</text>
<polygon fill="none" stroke="black" points="110.19,-135.6 110.19,-166.4 330.64,-166.4 330.64,-135.6 110.19,-135.6"/>
<text text-anchor="start" x="117.19" y="-147.8" font-family="Arial" font-size="14.00">content </text>
<text text-anchor="start" x="167" y="-147.8" font-family="Arial" font-size="14.00" fill="#666666">[varchar(255)]</text>
<polygon fill="none" stroke="black" points="110.19,-104.8 110.19,-135.6 330.64,-135.6 330.64,-104.8 110.19,-104.8"/>
<text text-anchor="start" x="117.19" y="-117" font-family="Arial" font-size="14.00">created_at </text>
<text text-anchor="start" x="187.24" y="-117" font-family="Arial" font-size="14.00" fill="#666666">[datetime]</text>
<polygon fill="none" stroke="black" points="110.19,-74 110.19,-104.8 330.64,-104.8 330.64,-74 110.19,-74"/>
<text text-anchor="start" x="117.19" y="-86.2" font-family="Arial" font-size="14.00">block_status </text>
<text text-anchor="start" x="198.9" y="-86.2" font-family="Arial" font-size="14.00" fill="#666666">[varchar(50)]</text>
<polygon fill="none" stroke="black" points="110.19,-43.2 110.19,-74 330.64,-74 330.64,-43.2 110.19,-43.2"/>
<text text-anchor="start" x="117.19" y="-55.4" font-family="Arial" font-size="14.00">is_ai_seed </text>
<text text-anchor="start" x="188.02" y="-55.4" font-family="Arial" font-size="14.00" fill="#666666">[tinyint(1)]</text>
</g>
<!-- cheer_talk_bot_filter_history&#45;&gt;cheer_talks -->
<g id="edge1" class="edge">
<title>cheer_talk_bot_filter_history:cheer_talk_id&#45;&gt;cheer_talks:id</title>
<path fill="none" stroke="black" d="M405.69,-556.19C467.74,-526.74 406.12,-212.6 331.64,-212.6"/>
<polygon fill="black" stroke="black" points="405.72,-556.19 394.99,-553.93 400.51,-557.33 396.28,-558.26 396.28,-558.26 396.28,-558.26 400.51,-557.33 396.92,-562.72 405.72,-556.19"/>
<text text-anchor="start" x="402.62" y="-568.4" font-family="Arial" font-size="10.00">FOREIGN KEY (cheer_talk_id) REFERENCES cheer_talks (id)</text>
</g>
</g>
</svg>
