<?xml version="1.0" encoding="UTF-8" standalone="no"?>
<!DOCTYPE svg PUBLIC "-//W3C//DTD SVG 1.1//EN"
 "http://www.w3.org/Graphics/SVG/1.1/DTD/svg11.dtd">
<!-- Generated by graphviz version 12.1.2 (20240928.0832)
 -->
<!-- Title: game_teams Pages: 1 -->
<svg width="1081pt" height="1622pt"
 viewBox="0.00 0.00 1080.58 1622.40" xmlns="http://www.w3.org/2000/svg" xmlns:xlink="http://www.w3.org/1999/xlink">
<g id="graph0" class="graph" transform="scale(1 1) rotate(0) translate(4 1618.4)">
<title>game_teams</title>
<polygon fill="white" stroke="none" points="-4,4 -4,-1618.4 1076.58,-1618.4 1076.58,4 -4,4"/>
<!-- game_teams -->
<g id="node1" class="node">
<title>game_teams</title>
<polygon fill="#efefef" stroke="none" points="597.42,-758.6 597.42,-794.2 825.87,-794.2 825.87,-758.6 597.42,-758.6"/>
<polygon fill="none" stroke="black" points="597.42,-758.6 597.42,-794.2 825.87,-794.2 825.87,-758.6 597.42,-758.6"/>
<text text-anchor="start" x="604.42" y="-772" font-family="Arial Bold" font-size="18.00">game_teams</text>
<text text-anchor="start" x="694.38" y="-772" font-family="Arial" font-size="14.00">    </text>
<text text-anchor="start" x="725.5" y="-772" font-family="Arial" font-size="14.00" fill="#666666">[BASE TABLE]</text>
<polygon fill="none" stroke="black" points="597.42,-727.8 597.42,-758.6 825.87,-758.6 825.87,-727.8 597.42,-727.8"/>
<text text-anchor="start" x="604.42" y="-740" font-family="Arial" font-size="14.00">id </text>
<text text-anchor="start" x="619.2" y="-740" font-family="Arial" font-size="14.00" fill="#666666">[bigint]</text>
<polygon fill="none" stroke="black" points="597.42,-697 597.42,-727.8 825.87,-727.8 825.87,-697 597.42,-697"/>
<text text-anchor="start" x="604.42" y="-709.2" font-family="Arial" font-size="14.00">game_id </text>
<text text-anchor="start" x="662.01" y="-709.2" font-family="Arial" font-size="14.00" fill="#666666">[bigint]</text>
<polygon fill="none" stroke="black" points="597.42,-666.2 597.42,-697 825.87,-697 825.87,-666.2 597.42,-666.2"/>
<text text-anchor="start" x="604.42" y="-678.4" font-family="Arial" font-size="14.00">team_id </text>
<text text-anchor="start" x="658.11" y="-678.4" font-family="Arial" font-size="14.00" fill="#666666">[bigint]</text>
<polygon fill="none" stroke="black" points="597.42,-635.4 597.42,-666.2 825.87,-666.2 825.87,-635.4 597.42,-635.4"/>
<text text-anchor="start" x="604.42" y="-647.6" font-family="Arial" font-size="14.00">cheer_count </text>
<text text-anchor="start" x="685.36" y="-647.6" font-family="Arial" font-size="14.00" fill="#666666">[int]</text>
<polygon fill="none" stroke="black" points="597.42,-604.6 597.42,-635.4 825.87,-635.4 825.87,-604.6 597.42,-604.6"/>
<text text-anchor="start" x="604.42" y="-616.8" font-family="Arial" font-size="14.00">score </text>
<text text-anchor="start" x="642.54" y="-616.8" font-family="Arial" font-size="14.00" fill="#666666">[int]</text>
<polygon fill="none" stroke="black" points="597.42,-573.8 597.42,-604.6 825.87,-604.6 825.87,-573.8 597.42,-573.8"/>
<text text-anchor="start" x="604.42" y="-586" font-family="Arial" font-size="14.00">pk_score </text>
<text text-anchor="start" x="665.11" y="-586" font-family="Arial" font-size="14.00" fill="#666666">[int]</text>
<polygon fill="none" stroke="black" points="597.42,-543 597.42,-573.8 825.87,-573.8 825.87,-543 597.42,-543"/>
<text text-anchor="start" x="604.42" y="-555.2" font-family="Arial" font-size="14.00">result </text>
<text text-anchor="start" x="642.54" y="-555.2" font-family="Arial" font-size="14.00" fill="#666666">[varchar(255)]</text>
<polygon fill="none" stroke="black" stroke-width="3" points="595.92,-541.5 595.92,-795.7 827.37,-795.7 827.37,-541.5 595.92,-541.5"/>
</g>
<!-- games -->
<g id="node5" class="node">
<title>games</title>
<polygon fill="#efefef" stroke="none" points="456.3,-382 456.3,-417.6 660.99,-417.6 660.99,-382 456.3,-382"/>
<polygon fill="none" stroke="black" points="456.3,-382 456.3,-417.6 660.99,-417.6 660.99,-382 456.3,-382"/>
<text text-anchor="start" x="473.41" y="-395.4" font-family="Arial Bold" font-size="18.00">games</text>
<text text-anchor="start" x="519.39" y="-395.4" font-family="Arial" font-size="14.00">    </text>
<text text-anchor="start" x="550.51" y="-395.4" font-family="Arial" font-size="14.00" fill="#666666">[BASE TABLE]</text>
<polygon fill="none" stroke="black" points="456.3,-351.2 456.3,-382 660.99,-382 660.99,-351.2 456.3,-351.2"/>
<text text-anchor="start" x="463.3" y="-363.4" font-family="Arial" font-size="14.00">id </text>
<text text-anchor="start" x="478.08" y="-363.4" font-family="Arial" font-size="14.00" fill="#666666">[bigint]</text>
<polygon fill="none" stroke="black" points="456.3,-320.4 456.3,-351.2 660.99,-351.2 660.99,-320.4 456.3,-320.4"/>
<text text-anchor="start" x="463.3" y="-332.6" font-family="Arial" font-size="14.00">administrator_id </text>
<text text-anchor="start" x="566.79" y="-332.6" font-family="Arial" font-size="14.00" fill="#666666">[bigint]</text>
<polygon fill="none" stroke="black" points="456.3,-289.6 456.3,-320.4 660.99,-320.4 660.99,-289.6 456.3,-289.6"/>
<text text-anchor="start" x="463.3" y="-301.8" font-family="Arial" font-size="14.00">league_id </text>
<text text-anchor="start" x="527.91" y="-301.8" font-family="Arial" font-size="14.00" fill="#666666">[bigint]</text>
<polygon fill="none" stroke="black" points="456.3,-258.8 456.3,-289.6 660.99,-289.6 660.99,-258.8 456.3,-258.8"/>
<text text-anchor="start" x="463.3" y="-271" font-family="Arial" font-size="14.00">start_time </text>
<text text-anchor="start" x="528.65" y="-271" font-family="Arial" font-size="14.00" fill="#666666">[datetime]</text>
<polygon fill="none" stroke="black" points="456.3,-228 456.3,-258.8 660.99,-258.8 660.99,-228 456.3,-228"/>
<text text-anchor="start" x="463.3" y="-240.2" font-family="Arial" font-size="14.00">name </text>
<text text-anchor="start" x="502.21" y="-240.2" font-family="Arial" font-size="14.00" fill="#666666">[varchar(255)]</text>
<polygon fill="none" stroke="black" points="456.3,-197.2 456.3,-228 660.99,-228 660.99,-197.2 456.3,-197.2"/>
<text text-anchor="start" x="463.3" y="-209.4" font-family="Arial" font-size="14.00">video_id </text>
<text text-anchor="start" x="519.34" y="-209.4" font-family="Arial" font-size="14.00" fill="#666666">[varchar(255)]</text>
<polygon fill="none" stroke="black" points="456.3,-166.4 456.3,-197.2 660.99,-197.2 660.99,-166.4 456.3,-166.4"/>
<text text-anchor="start" x="463.3" y="-178.6" font-family="Arial" font-size="14.00">quarter_changed_at </text>
<text text-anchor="start" x="592.51" y="-178.6" font-family="Arial" font-size="14.00" fill="#666666">[datetime]</text>
<polygon fill="none" stroke="black" points="456.3,-135.6 456.3,-166.4 660.99,-166.4 660.99,-135.6 456.3,-135.6"/>
<text text-anchor="start" x="463.3" y="-147.8" font-family="Arial" font-size="14.00">game_quarter </text>
<text text-anchor="start" x="554.35" y="-147.8" font-family="Arial" font-size="14.00" fill="#666666">[varchar(255)]</text>
<polygon fill="none" stroke="black" points="456.3,-104.8 456.3,-135.6 660.99,-135.6 660.99,-104.8 456.3,-104.8"/>
<text text-anchor="start" x="463.3" y="-117" font-family="Arial" font-size="14.00">state </text>
<text text-anchor="start" x="497.54" y="-117" font-family="Arial" font-size="14.00" fill="#666666">[varchar(255)]</text>
<polygon fill="none" stroke="black" points="456.3,-74 456.3,-104.8 660.99,-104.8 660.99,-74 456.3,-74"/>
<text text-anchor="start" x="463.3" y="-86.2" font-family="Arial" font-size="14.00">round </text>
<text text-anchor="start" x="502.99" y="-86.2" font-family="Arial" font-size="14.00" fill="#666666">[varchar(255)]</text>
<polygon fill="none" stroke="black" points="456.3,-43.2 456.3,-74 660.99,-74 660.99,-43.2 456.3,-43.2"/>
<text text-anchor="start" x="463.3" y="-55.4" font-family="Arial" font-size="14.00">is_pk_taken </text>
<text text-anchor="start" x="541.9" y="-55.4" font-family="Arial" font-size="14.00" fill="#666666">[tinyint(1)]</text>
</g>
<!-- game_teams&#45;&gt;games -->
<g id="edge5" class="edge">
<title>game_teams:game_id&#45;&gt;games:id</title>
<path fill="none" stroke="black" d="M586.09,-711.83C504.28,-702.35 550.81,-576.32 597.42,-496.8 613.83,-468.79 644.49,-488.76 660.99,-460.8 682.26,-424.74 703.86,-366.6 661.99,-366.6"/>
<polygon fill="black" stroke="black" points="586.1,-711.83 595.83,-716.87 591.42,-712.13 595.75,-712.36 595.75,-712.36 595.75,-712.36 591.42,-712.13 596.33,-707.89 586.1,-711.83"/>
<text text-anchor="start" x="352.14" y="-722.4" font-family="Arial" font-size="10.00">FOREIGN KEY (game_id) REFERENCES games (id)</text>
</g>
<!-- teams -->
<g id="node6" class="node">
<title>teams</title>
<polygon fill="#efefef" stroke="none" points="765.26,-320.4 765.26,-356 966.02,-356 966.02,-320.4 765.26,-320.4"/>
<polygon fill="none" stroke="black" points="765.26,-320.4 765.26,-356 966.02,-356 966.02,-320.4 765.26,-320.4"/>
<text text-anchor="start" x="782.41" y="-333.8" font-family="Arial Bold" font-size="18.00">teams</text>
<text text-anchor="start" x="824.39" y="-333.8" font-family="Arial" font-size="14.00">    </text>
<text text-anchor="start" x="855.51" y="-333.8" font-family="Arial" font-size="14.00" fill="#666666">[BASE TABLE]</text>
<polygon fill="none" stroke="black" points="765.26,-289.6 765.26,-320.4 966.02,-320.4 966.02,-289.6 765.26,-289.6"/>
<text text-anchor="start" x="772.26" y="-301.8" font-family="Arial" font-size="14.00">id </text>
<text text-anchor="start" x="787.05" y="-301.8" font-family="Arial" font-size="14.00" fill="#666666">[bigint]</text>
<polygon fill="none" stroke="black" points="765.26,-258.8 765.26,-289.6 966.02,-289.6 966.02,-258.8 765.26,-258.8"/>
<text text-anchor="start" x="772.26" y="-271" font-family="Arial" font-size="14.00">name </text>
<text text-anchor="start" x="811.17" y="-271" font-family="Arial" font-size="14.00" fill="#666666">[varchar(255)]</text>
<polygon fill="none" stroke="black" points="765.26,-228 765.26,-258.8 966.02,-258.8 966.02,-228 765.26,-228"/>
<text text-anchor="start" x="772.26" y="-240.2" font-family="Arial" font-size="14.00">logo_image_url </text>
<text text-anchor="start" x="871.88" y="-240.2" font-family="Arial" font-size="14.00" fill="#666666">[varchar(255)]</text>
<polygon fill="none" stroke="black" points="765.26,-197.2 765.26,-228 966.02,-228 966.02,-197.2 765.26,-197.2"/>
<text text-anchor="start" x="772.26" y="-209.4" font-family="Arial" font-size="14.00">team_color </text>
<text text-anchor="start" x="845.4" y="-209.4" font-family="Arial" font-size="14.00" fill="#666666">[varchar(255)]</text>
<polygon fill="none" stroke="black" points="765.26,-166.4 765.26,-197.2 966.02,-197.2 966.02,-166.4 765.26,-166.4"/>
<text text-anchor="start" x="772.26" y="-178.6" font-family="Arial" font-size="14.00">is_deleted </text>
<text text-anchor="start" x="839.98" y="-178.6" font-family="Arial" font-size="14.00" fill="#666666">[tinyint(1)]</text>
<polygon fill="none" stroke="black" points="765.26,-135.6 765.26,-166.4 966.02,-166.4 966.02,-135.6 765.26,-135.6"/>
<text text-anchor="start" x="772.26" y="-147.8" font-family="Arial" font-size="14.00">sport_type </text>
<text text-anchor="start" x="841.52" y="-147.8" font-family="Arial" font-size="14.00" fill="#666666">[varchar(20)]</text>
<polygon fill="none" stroke="black" points="765.26,-104.8 765.26,-135.6 966.02,-135.6 966.02,-104.8 765.26,-104.8"/>
<text text-anchor="start" x="772.26" y="-117" font-family="Arial" font-size="14.00">unit_id </text>
<text text-anchor="start" x="817.4" y="-117" font-family="Arial" font-size="14.00" fill="#666666">[bigint]</text>
</g>
<!-- game_teams&#45;&gt;teams -->
<g id="edge6" class="edge">
<title>game_teams:team_id&#45;&gt;teams:id</title>
<path fill="none" stroke="black" d="M837.09,-680.97C903.65,-672.14 847.59,-572.18 825.87,-496.8 811.73,-447.74 779.53,-448.23 765.26,-399.2 753.56,-359 722.39,-305 764.26,-305"/>
<polygon fill="black" stroke="black" points="837.18,-680.97 826.93,-677.09 831.86,-681.29 827.54,-681.56 827.54,-681.56 827.54,-681.56 831.86,-681.29 827.48,-686.07 837.18,-680.97"/>
<text text-anchor="start" x="833.87" y="-691.6" font-family="Arial" font-size="10.00">FOREIGN KEY (team_id) REFERENCES teams (id)</text>
</g>
<!-- cheer_talks -->
<g id="node2" class="node">
<title>cheer_talks</title>
<polygon fill="#efefef" stroke="none" points="85.42,-1320 85.42,-1355.6 305.87,-1355.6 305.87,-1320 85.42,-1320"/>
<polygon fill="none" stroke="black" points="85.42,-1320 85.42,-1355.6 305.87,-1355.6 305.87,-1320 85.42,-1320"/>
<text text-anchor="start" x="92.42" y="-1333.4" font-family="Arial Bold" font-size="18.00">cheer_talks</text>
<text text-anchor="start" x="174.38" y="-1333.4" font-family="Arial" font-size="14.00">    </text>
<text text-anchor="start" x="205.49" y="-1333.4" font-family="Arial" font-size="14.00" fill="#666666">[BASE TABLE]</text>
<polygon fill="none" stroke="black" points="85.42,-1289.2 85.42,-1320 305.87,-1320 305.87,-1289.2 85.42,-1289.2"/>
<text text-anchor="start" x="92.42" y="-1301.4" font-family="Arial" font-size="14.00">id </text>
<text text-anchor="start" x="107.21" y="-1301.4" font-family="Arial" font-size="14.00" fill="#666666">[bigint]</text>
<polygon fill="none" stroke="black" points="85.42,-1258.4 85.42,-1289.2 305.87,-1289.2 305.87,-1258.4 85.42,-1258.4"/>
<text text-anchor="start" x="92.42" y="-1270.6" font-family="Arial" font-size="14.00">game_team_id </text>
<text text-anchor="start" x="188.92" y="-1270.6" font-family="Arial" font-size="14.00" fill="#666666">[bigint]</text>
<polygon fill="none" stroke="black" points="85.42,-1227.6 85.42,-1258.4 305.87,-1258.4 305.87,-1227.6 85.42,-1227.6"/>
<text text-anchor="start" x="92.42" y="-1239.8" font-family="Arial" font-size="14.00">content </text>
<text text-anchor="start" x="142.23" y="-1239.8" font-family="Arial" font-size="14.00" fill="#666666">[varchar(255)]</text>
<polygon fill="none" stroke="black" points="85.42,-1196.8 85.42,-1227.6 305.87,-1227.6 305.87,-1196.8 85.42,-1196.8"/>
<text text-anchor="start" x="92.42" y="-1209" font-family="Arial" font-size="14.00">created_at </text>
<text text-anchor="start" x="162.47" y="-1209" font-family="Arial" font-size="14.00" fill="#666666">[datetime]</text>
<polygon fill="none" stroke="black" points="85.42,-1166 85.42,-1196.8 305.87,-1196.8 305.87,-1166 85.42,-1166"/>
<text text-anchor="start" x="92.42" y="-1178.2" font-family="Arial" font-size="14.00">block_status </text>
<text text-anchor="start" x="174.13" y="-1178.2" font-family="Arial" font-size="14.00" fill="#666666">[varchar(50)]</text>
<polygon fill="none" stroke="black" points="85.42,-1135.2 85.42,-1166 305.87,-1166 305.87,-1135.2 85.42,-1135.2"/>
<text text-anchor="start" x="92.42" y="-1147.4" font-family="Arial" font-size="14.00">is_ai_seed </text>
<text text-anchor="start" x="163.25" y="-1147.4" font-family="Arial" font-size="14.00" fill="#666666">[tinyint(1)]</text>
</g>
<!-- cheer_talks&#45;&gt;game_teams -->
<g id="edge1" class="edge">
<title>cheer_talks:game_team_id&#45;&gt;game_teams:id</title>
<path fill="none" stroke="black" d="M316.96,-1272.21C389,-1247.67 310.78,-947.13 358.64,-876.4 426.52,-776.08 475.29,-743.2 596.42,-743.2"/>
<polygon fill="black" stroke="black" points="317.07,-1272.19 306.49,-1269.3 311.8,-1273.02 307.53,-1273.7 307.53,-1273.7 307.53,-1273.7 311.8,-1273.02 307.9,-1278.19 317.07,-1272.19"/>
<text text-anchor="start" x="7" y="-1283.8" font-family="Arial" font-size="10.00">FOREIGN KEY (game_team_id) REFERENCES game_teams (id)</text>
</g>
<!-- lineup_players -->
<g id="node3" class="node">
<title>lineup_players</title>
<polygon fill="#efefef" stroke="none" points="410.41,-1350.8 410.41,-1386.4 654.87,-1386.4 654.87,-1350.8 410.41,-1350.8"/>
<polygon fill="none" stroke="black" points="410.41,-1350.8 410.41,-1386.4 654.87,-1386.4 654.87,-1350.8 410.41,-1350.8"/>
<text text-anchor="start" x="417.41" y="-1364.2" font-family="Arial Bold" font-size="18.00">lineup_players</text>
<text text-anchor="start" x="523.38" y="-1364.2" font-family="Arial" font-size="14.00">    </text>
<text text-anchor="start" x="554.5" y="-1364.2" font-family="Arial" font-size="14.00" fill="#666666">[BASE TABLE]</text>
<polygon fill="none" stroke="black" points="410.41,-1320 410.41,-1350.8 654.87,-1350.8 654.87,-1320 410.41,-1320"/>
<text text-anchor="start" x="417.41" y="-1332.2" font-family="Arial" font-size="14.00">id </text>
<text text-anchor="start" x="432.2" y="-1332.2" font-family="Arial" font-size="14.00" fill="#666666">[bigint]</text>
<polygon fill="none" stroke="black" points="410.41,-1289.2 410.41,-1320 654.87,-1320 654.87,-1289.2 410.41,-1289.2"/>
<text text-anchor="start" x="417.41" y="-1301.4" font-family="Arial" font-size="14.00">game_team_id </text>
<text text-anchor="start" x="513.92" y="-1301.4" font-family="Arial" font-size="14.00" fill="#666666">[bigint]</text>
<polygon fill="none" stroke="black" points="410.41,-1258.4 410.41,-1289.2 654.87,-1289.2 654.87,-1258.4 410.41,-1258.4"/>
<text text-anchor="start" x="417.41" y="-1270.6" font-family="Arial" font-size="14.00">player_id </text>
<text text-anchor="start" x="478.12" y="-1270.6" font-family="Arial" font-size="14.00" fill="#666666">[bigint]</text>
<polygon fill="none" stroke="black" points="410.41,-1227.6 410.41,-1258.4 654.87,-1258.4 654.87,-1227.6 410.41,-1227.6"/>
<text text-anchor="start" x="417.41" y="-1239.8" font-family="Arial" font-size="14.00">jersey_number </text>
<text text-anchor="start" x="513.9" y="-1239.8" font-family="Arial" font-size="14.00" fill="#666666">[int]</text>
<polygon fill="none" stroke="black" points="410.41,-1196.8 410.41,-1227.6 654.87,-1227.6 654.87,-1196.8 410.41,-1196.8"/>
<text text-anchor="start" x="417.41" y="-1209" font-family="Arial" font-size="14.00">is_captain </text>
<text text-anchor="start" x="484.34" y="-1209" font-family="Arial" font-size="14.00" fill="#666666">[tinyint(1)]</text>
<polygon fill="none" stroke="black" points="410.41,-1166 410.41,-1196.8 654.87,-1196.8 654.87,-1166 410.41,-1166"/>
<text text-anchor="start" x="417.41" y="-1178.2" font-family="Arial" font-size="14.00">state </text>
<text text-anchor="start" x="451.65" y="-1178.2" font-family="Arial" font-size="14.00" fill="#666666">[varchar(255)]</text>
<polygon fill="none" stroke="black" points="410.41,-1135.2 410.41,-1166 654.87,-1166 654.87,-1135.2 410.41,-1135.2"/>
<text text-anchor="start" x="417.41" y="-1147.4" font-family="Arial" font-size="14.00">is_playing </text>
<text text-anchor="start" x="483.56" y="-1147.4" font-family="Arial" font-size="14.00" fill="#666666">[tinyint(1)]</text>
<polygon fill="none" stroke="black" points="410.41,-1104.4 410.41,-1135.2 654.87,-1135.2 654.87,-1104.4 410.41,-1104.4"/>
<text text-anchor="start" x="417.41" y="-1116.6" font-family="Arial" font-size="14.00">replaced_player_id </text>
<text text-anchor="start" x="539.61" y="-1116.6" font-family="Arial" font-size="14.00" fill="#666666">[bigint]</text>
</g>
<!-- lineup_players&#45;&gt;game_teams -->
<g id="edge2" class="edge">
<title>lineup_players:game_team_id&#45;&gt;game_teams:id</title>
<path fill="none" stroke="black" d="M666.1,-1303.01C753.68,-1273.42 597.44,-840.55 597.42,-840.4 591.71,-797.58 553.21,-743.2 596.42,-743.2"/>
<polygon fill="black" stroke="black" points="666.08,-1303.01 655.51,-1300.1 660.81,-1303.83 656.53,-1304.5 656.53,-1304.5 656.53,-1304.5 660.81,-1303.83 656.89,-1309 666.08,-1303.01"/>
<text text-anchor="start" x="356.01" y="-1314.6" font-family="Arial" font-size="10.00">FOREIGN KEY (game_team_id) REFERENCES game_teams (id)</text>
</g>
<!-- timelines -->
<g id="node4" class="node">
<title>timelines</title>
<polygon fill="#efefef" stroke="none" points="758.95,-1535.6 758.95,-1571.2 1024.34,-1571.2 1024.34,-1535.6 758.95,-1535.6"/>
<polygon fill="none" stroke="black" points="758.95,-1535.6 758.95,-1571.2 1024.34,-1571.2 1024.34,-1535.6 758.95,-1535.6"/>
<text text-anchor="start" x="796.4" y="-1549" font-family="Arial Bold" font-size="18.00">timelines</text>
<text text-anchor="start" x="862.39" y="-1549" font-family="Arial" font-size="14.00">    </text>
<text text-anchor="start" x="893.51" y="-1549" font-family="Arial" font-size="14.00" fill="#666666">[BASE TABLE]</text>
<polygon fill="none" stroke="black" points="758.95,-1504.8 758.95,-1535.6 1024.34,-1535.6 1024.34,-1504.8 758.95,-1504.8"/>
<text text-anchor="start" x="765.95" y="-1517" font-family="Arial" font-size="14.00">id </text>
<text text-anchor="start" x="780.73" y="-1517" font-family="Arial" font-size="14.00" fill="#666666">[bigint]</text>
<polygon fill="none" stroke="black" points="758.95,-1474 758.95,-1504.8 1024.34,-1504.8 1024.34,-1474 758.95,-1474"/>
<text text-anchor="start" x="765.95" y="-1486.2" font-family="Arial" font-size="14.00">type </text>
<text text-anchor="start" x="796.3" y="-1486.2" font-family="Arial" font-size="14.00" fill="#666666">[varchar(255)]</text>
<polygon fill="none" stroke="black" points="758.95,-1443.2 758.95,-1474 1024.34,-1474 1024.34,-1443.2 758.95,-1443.2"/>
<text text-anchor="start" x="765.95" y="-1455.4" font-family="Arial" font-size="14.00">game_id </text>
<text text-anchor="start" x="823.54" y="-1455.4" font-family="Arial" font-size="14.00" fill="#666666">[bigint]</text>
<polygon fill="none" stroke="black" points="758.95,-1412.4 758.95,-1443.2 1024.34,-1443.2 1024.34,-1412.4 758.95,-1412.4"/>
<text text-anchor="start" x="765.95" y="-1424.6" font-family="Arial" font-size="14.00">recorded_quarter </text>
<text text-anchor="start" x="877.24" y="-1424.6" font-family="Arial" font-size="14.00" fill="#666666">[varchar(255)]</text>
<polygon fill="none" stroke="black" points="758.95,-1381.6 758.95,-1412.4 1024.34,-1412.4 1024.34,-1381.6 758.95,-1381.6"/>
<text text-anchor="start" x="765.95" y="-1393.8" font-family="Arial" font-size="14.00">recorded_at </text>
<text text-anchor="start" x="844.55" y="-1393.8" font-family="Arial" font-size="14.00" fill="#666666">[int]</text>
<polygon fill="none" stroke="black" points="758.95,-1350.8 758.95,-1381.6 1024.34,-1381.6 1024.34,-1350.8 758.95,-1350.8"/>
<text text-anchor="start" x="765.95" y="-1363" font-family="Arial" font-size="14.00">scorer_id </text>
<text text-anchor="start" x="827.42" y="-1363" font-family="Arial" font-size="14.00" fill="#666666">[bigint]</text>
<polygon fill="none" stroke="black" points="758.95,-1320 758.95,-1350.8 1024.34,-1350.8 1024.34,-1320 758.95,-1320"/>
<text text-anchor="start" x="765.95" y="-1332.2" font-family="Arial" font-size="14.00">score </text>
<text text-anchor="start" x="804.07" y="-1332.2" font-family="Arial" font-size="14.00" fill="#666666">[int]</text>
<polygon fill="none" stroke="black" points="758.95,-1289.2 758.95,-1320 1024.34,-1320 1024.34,-1289.2 758.95,-1289.2"/>
<text text-anchor="start" x="765.95" y="-1301.4" font-family="Arial" font-size="14.00">is_success </text>
<text text-anchor="start" x="838.31" y="-1301.4" font-family="Arial" font-size="14.00" fill="#666666">[tinyint(1)]</text>
<polygon fill="none" stroke="black" points="758.95,-1258.4 758.95,-1289.2 1024.34,-1289.2 1024.34,-1258.4 758.95,-1258.4"/>
<text text-anchor="start" x="765.95" y="-1270.6" font-family="Arial" font-size="14.00">origin_lineup_player_id </text>
<text text-anchor="start" x="913.83" y="-1270.6" font-family="Arial" font-size="14.00" fill="#666666">[bigint]</text>
<polygon fill="none" stroke="black" points="758.95,-1227.6 758.95,-1258.4 1024.34,-1258.4 1024.34,-1227.6 758.95,-1227.6"/>
<text text-anchor="start" x="765.95" y="-1239.8" font-family="Arial" font-size="14.00">replaced_lineup_player_id </text>
<text text-anchor="start" x="933.29" y="-1239.8" font-family="Arial" font-size="14.00" fill="#666666">[bigint]</text>
<polygon fill="none" stroke="black" points="758.95,-1196.8 758.95,-1227.6 1024.34,-1227.6 1024.34,-1196.8 758.95,-1196.8"/>
<text text-anchor="start" x="765.95" y="-1209" font-family="Arial" font-size="14.00">game_progress_type </text>
<text text-anchor="start" x="901.36" y="-1209" font-family="Arial" font-size="14.00" fill="#666666">[varchar(255)]</text>
<polygon fill="none" stroke="black" points="758.95,-1166 758.95,-1196.8 1024.34,-1196.8 1024.34,-1166 758.95,-1166"/>
<text text-anchor="start" x="765.95" y="-1178.2" font-family="Arial" font-size="14.00">game_team1_id </text>
<text text-anchor="start" x="870.24" y="-1178.2" font-family="Arial" font-size="14.00" fill="#666666">[bigint]</text>
<polygon fill="none" stroke="black" points="758.95,-1135.2 758.95,-1166 1024.34,-1166 1024.34,-1135.2 758.95,-1135.2"/>
<text text-anchor="start" x="765.95" y="-1147.4" font-family="Arial" font-size="14.00">game_team2_id </text>
<text text-anchor="start" x="870.24" y="-1147.4" font-family="Arial" font-size="14.00" fill="#666666">[bigint]</text>
<polygon fill="none" stroke="black" points="758.95,-1104.4 758.95,-1135.2 1024.34,-1135.2 1024.34,-1104.4 758.95,-1104.4"/>
<text text-anchor="start" x="765.95" y="-1116.6" font-family="Arial" font-size="14.00">snapshot_score1 </text>
<text text-anchor="start" x="876.46" y="-1116.6" font-family="Arial" font-size="14.00" fill="#666666">[int]</text>
<polygon fill="none" stroke="black" points="758.95,-1073.6 758.95,-1104.4 1024.34,-1104.4 1024.34,-1073.6 758.95,-1073.6"/>
<text text-anchor="start" x="765.95" y="-1085.8" font-family="Arial" font-size="14.00">snapshot_score2 </text>
<text text-anchor="start" x="876.46" y="-1085.8" font-family="Arial" font-size="14.00" fill="#666666">[int]</text>
<polygon fill="none" stroke="black" points="758.95,-1042.8 758.95,-1073.6 1024.34,-1073.6 1024.34,-1042.8 758.95,-1042.8"/>
<text text-anchor="start" x="765.95" y="-1055" font-family="Arial" font-size="14.00">previous_quarter </text>
<text text-anchor="start" x="874.9" y="-1055" font-family="Arial" font-size="14.00" fill="#666666">[varchar(255)]</text>
<polygon fill="none" stroke="black" points="758.95,-1012 758.95,-1042.8 1024.34,-1042.8 1024.34,-1012 758.95,-1012"/>
<text text-anchor="start" x="765.95" y="-1024.2" font-family="Arial" font-size="14.00">previous_quarter_changed_at </text>
<text text-anchor="start" x="955.86" y="-1024.2" font-family="Arial" font-size="14.00" fill="#666666">[datetime]</text>
<polygon fill="none" stroke="black" points="758.95,-981.2 758.95,-1012 1024.34,-1012 1024.34,-981.2 758.95,-981.2"/>
<text text-anchor="start" x="765.95" y="-993.4" font-family="Arial" font-size="14.00">warning_card_type </text>
<text text-anchor="start" x="888.13" y="-993.4" font-family="Arial" font-size="14.00" fill="#666666">[varchar(255)]</text>
<polygon fill="none" stroke="black" points="758.95,-950.4 758.95,-981.2 1024.34,-981.2 1024.34,-950.4 758.95,-950.4"/>
<text text-anchor="start" x="765.95" y="-962.6" font-family="Arial" font-size="14.00">assist_lineup_player_id </text>
<text text-anchor="start" x="915.37" y="-962.6" font-family="Arial" font-size="14.00" fill="#666666">[bigint]</text>
<polygon fill="none" stroke="black" points="758.95,-919.6 758.95,-950.4 1024.34,-950.4 1024.34,-919.6 758.95,-919.6"/>
<text text-anchor="start" x="765.95" y="-931.8" font-family="Arial" font-size="14.00">is_foul_out </text>
<text text-anchor="start" x="837.55" y="-931.8" font-family="Arial" font-size="14.00" fill="#666666">[tinyint(1)]</text>
</g>
<!-- timelines&#45;&gt;game_teams -->
<g id="edge3" class="edge">
<title>timelines:game_team1_id&#45;&gt;game_teams:id</title>
<path fill="none" stroke="black" d="M748.06,-1179.4C693.75,-1155.89 725.92,-931.46 758.95,-876.4 776.32,-847.44 808.4,-869.3 825.87,-840.4 848.22,-803.43 870.07,-743.2 826.87,-743.2"/>
<polygon fill="black" stroke="black" points="747.82,-1179.36 756.73,-1185.74 753.05,-1180.41 757.29,-1181.27 757.29,-1181.27 757.29,-1181.27 753.05,-1180.41 758.51,-1176.92 747.82,-1179.36"/>
<text text-anchor="start" x="764.95" y="-1191.4" font-family="Arial" font-size="10.00">FOREIGN KEY (game_team1_id) REFERENCES game_teams (id)</text>
</g>
<!-- timelines&#45;&gt;game_teams -->
<g id="edge4" class="edge">
<title>timelines:game_team2_id&#45;&gt;game_teams:id</title>
<path fill="none" stroke="black" d="M747.87,-1148.25C700.72,-1124.35 729.49,-925.49 758.95,-876.4 776.32,-847.44 808.4,-869.3 825.87,-840.4 848.22,-803.43 870.07,-743.2 826.87,-743.2"/>
<polygon fill="black" stroke="black" points="747.88,-1148.25 756.6,-1154.91 753.08,-1149.46 757.3,-1150.45 757.3,-1150.45 757.3,-1150.45 753.08,-1149.46 758.64,-1146.14 747.88,-1148.25"/>
<text text-anchor="start" x="764.95" y="-1160.6" font-family="Arial" font-size="10.00">FOREIGN KEY (game_team2_id) REFERENCES game_teams (id)</text>
</g>
</g>
</svg>
