<?xml version="1.0" encoding="UTF-8" standalone="no"?>
<!DOCTYPE svg PUBLIC "-//W3C//DTD SVG 1.1//EN"
 "http://www.w3.org/Graphics/SVG/1.1/DTD/svg11.dtd">
<!-- Generated by graphviz version 12.1.2 (20240928.0832)
 -->
<!-- Title: games Pages: 1 -->
<svg width="772pt" height="1715pt"
 viewBox="0.00 0.00 771.72 1714.80" xmlns="http://www.w3.org/2000/svg" xmlns:xlink="http://www.w3.org/1999/xlink">
<g id="graph0" class="graph" transform="scale(1 1) rotate(0) translate(4 1710.8)">
<title>games</title>
<polygon fill="white" stroke="none" points="-4,4 -4,-1710.8 767.72,-1710.8 767.72,4 -4,4"/>
<!-- games -->
<g id="node1" class="node">
<title>games</title>
<polygon fill="#efefef" stroke="none" points="296.72,-851 296.72,-886.6 501.41,-886.6 501.41,-851 296.72,-851"/>
<polygon fill="none" stroke="black" points="296.72,-851 296.72,-886.6 501.41,-886.6 501.41,-851 296.72,-851"/>
<text text-anchor="start" x="313.83" y="-864.4" font-family="Arial Bold" font-size="18.00">games</text>
<text text-anchor="start" x="359.82" y="-864.4" font-family="Arial" font-size="14.00">    </text>
<text text-anchor="start" x="390.93" y="-864.4" font-family="Arial" font-size="14.00" fill="#666666">[BASE TABLE]</text>
<polygon fill="none" stroke="black" points="296.72,-820.2 296.72,-851 501.41,-851 501.41,-820.2 296.72,-820.2"/>
<text text-anchor="start" x="303.72" y="-832.4" font-family="Arial" font-size="14.00">id </text>
<text text-anchor="start" x="318.51" y="-832.4" font-family="Arial" font-size="14.00" fill="#666666">[bigint]</text>
<polygon fill="none" stroke="black" points="296.72,-789.4 296.72,-820.2 501.41,-820.2 501.41,-789.4 296.72,-789.4"/>
<text text-anchor="start" x="303.72" y="-801.6" font-family="Arial" font-size="14.00">administrator_id </text>
<text text-anchor="start" x="407.21" y="-801.6" font-family="Arial" font-size="14.00" fill="#666666">[bigint]</text>
<polygon fill="none" stroke="black" points="296.72,-758.6 296.72,-789.4 501.41,-789.4 501.41,-758.6 296.72,-758.6"/>
<text text-anchor="start" x="303.72" y="-770.8" font-family="Arial" font-size="14.00">league_id </text>
<text text-anchor="start" x="368.34" y="-770.8" font-family="Arial" font-size="14.00" fill="#666666">[bigint]</text>
<polygon fill="none" stroke="black" points="296.72,-727.8 296.72,-758.6 501.41,-758.6 501.41,-727.8 296.72,-727.8"/>
<text text-anchor="start" x="303.72" y="-740" font-family="Arial" font-size="14.00">start_time </text>
<text text-anchor="start" x="369.08" y="-740" font-family="Arial" font-size="14.00" fill="#666666">[datetime]</text>
<polygon fill="none" stroke="black" points="296.72,-697 296.72,-727.8 501.41,-727.8 501.41,-697 296.72,-697"/>
<text text-anchor="start" x="303.72" y="-709.2" font-family="Arial" font-size="14.00">name </text>
<text text-anchor="start" x="342.63" y="-709.2" font-family="Arial" font-size="14.00" fill="#666666">[varchar(255)]</text>
<polygon fill="none" stroke="black" points="296.72,-666.2 296.72,-697 501.41,-697 501.41,-666.2 296.72,-666.2"/>
<text text-anchor="start" x="303.72" y="-678.4" font-family="Arial" font-size="14.00">video_id </text>
<text text-anchor="start" x="359.76" y="-678.4" font-family="Arial" font-size="14.00" fill="#666666">[varchar(255)]</text>
<polygon fill="none" stroke="black" points="296.72,-635.4 296.72,-666.2 501.41,-666.2 501.41,-635.4 296.72,-635.4"/>
<text text-anchor="start" x="303.72" y="-647.6" font-family="Arial" font-size="14.00">quarter_changed_at </text>
<text text-anchor="start" x="432.94" y="-647.6" font-family="Arial" font-size="14.00" fill="#666666">[datetime]</text>
<polygon fill="none" stroke="black" points="296.72,-604.6 296.72,-635.4 501.41,-635.4 501.41,-604.6 296.72,-604.6"/>
<text text-anchor="start" x="303.72" y="-616.8" font-family="Arial" font-size="14.00">game_quarter </text>
<text text-anchor="start" x="394.78" y="-616.8" font-family="Arial" font-size="14.00" fill="#666666">[varchar(255)]</text>
<polygon fill="none" stroke="black" points="296.72,-573.8 296.72,-604.6 501.41,-604.6 501.41,-573.8 296.72,-573.8"/>
<text text-anchor="start" x="303.72" y="-586" font-family="Arial" font-size="14.00">state </text>
<text text-anchor="start" x="337.96" y="-586" font-family="Arial" font-size="14.00" fill="#666666">[varchar(255)]</text>
<polygon fill="none" stroke="black" points="296.72,-543 296.72,-573.8 501.41,-573.8 501.41,-543 296.72,-543"/>
<text text-anchor="start" x="303.72" y="-555.2" font-family="Arial" font-size="14.00">round </text>
<text text-anchor="start" x="343.42" y="-555.2" font-family="Arial" font-size="14.00" fill="#666666">[varchar(255)]</text>
<polygon fill="none" stroke="black" points="296.72,-512.2 296.72,-543 501.41,-543 501.41,-512.2 296.72,-512.2"/>
<text text-anchor="start" x="303.72" y="-524.4" font-family="Arial" font-size="14.00">is_pk_taken </text>
<text text-anchor="start" x="382.33" y="-524.4" font-family="Arial" font-size="14.00" fill="#666666">[tinyint(1)]</text>
<polygon fill="none" stroke="black" stroke-width="3" points="295.22,-510.7 295.22,-888.1 502.91,-888.1 502.91,-510.7 295.22,-510.7"/>
</g>
<!-- members -->
<g id="node4" class="node">
<title>members</title>
<polygon fill="#efefef" stroke="none" points="137.83,-289.6 137.83,-325.2 342.3,-325.2 342.3,-289.6 137.83,-289.6"/>
<polygon fill="none" stroke="black" points="137.83,-289.6 137.83,-325.2 342.3,-325.2 342.3,-289.6 137.83,-289.6"/>
<text text-anchor="start" x="144.83" y="-303" font-family="Arial Bold" font-size="18.00">members</text>
<text text-anchor="start" x="210.81" y="-303" font-family="Arial" font-size="14.00">    </text>
<text text-anchor="start" x="241.93" y="-303" font-family="Arial" font-size="14.00" fill="#666666">[BASE TABLE]</text>
<polygon fill="none" stroke="black" points="137.83,-258.8 137.83,-289.6 342.3,-289.6 342.3,-258.8 137.83,-258.8"/>
<text text-anchor="start" x="144.83" y="-271" font-family="Arial" font-size="14.00">id </text>
<text text-anchor="start" x="159.62" y="-271" font-family="Arial" font-size="14.00" fill="#666666">[bigint]</text>
<polygon fill="none" stroke="black" points="137.83,-228 137.83,-258.8 342.3,-258.8 342.3,-228 137.83,-228"/>
<text text-anchor="start" x="144.83" y="-240.2" font-family="Arial" font-size="14.00">organization_id </text>
<text text-anchor="start" x="243.68" y="-240.2" font-family="Arial" font-size="14.00" fill="#666666">[bigint]</text>
<polygon fill="none" stroke="black" points="137.83,-197.2 137.83,-228 342.3,-228 342.3,-197.2 137.83,-197.2"/>
<text text-anchor="start" x="144.83" y="-209.4" font-family="Arial" font-size="14.00">email </text>
<text text-anchor="start" x="182.18" y="-209.4" font-family="Arial" font-size="14.00" fill="#666666">[varchar(255)]</text>
<polygon fill="none" stroke="black" points="137.83,-166.4 137.83,-197.2 342.3,-197.2 342.3,-166.4 137.83,-166.4"/>
<text text-anchor="start" x="144.83" y="-178.6" font-family="Arial" font-size="14.00">password </text>
<text text-anchor="start" x="208.64" y="-178.6" font-family="Arial" font-size="14.00" fill="#666666">[varchar(255)]</text>
<polygon fill="none" stroke="black" points="137.83,-135.6 137.83,-166.4 342.3,-166.4 342.3,-135.6 137.83,-135.6"/>
<text text-anchor="start" x="144.83" y="-147.8" font-family="Arial" font-size="14.00">is_administrator </text>
<text text-anchor="start" x="247.54" y="-147.8" font-family="Arial" font-size="14.00" fill="#666666">[tinyint(1)]</text>
<polygon fill="none" stroke="black" points="137.83,-104.8 137.83,-135.6 342.3,-135.6 342.3,-104.8 137.83,-104.8"/>
<text text-anchor="start" x="144.83" y="-117" font-family="Arial" font-size="14.00">last_login </text>
<text text-anchor="start" x="207.87" y="-117" font-family="Arial" font-size="14.00" fill="#666666">[datetime]</text>
</g>
<!-- games&#45;&gt;members -->
<g id="edge3" class="edge">
<title>games:administrator_id&#45;&gt;members:id</title>
<path fill="none" stroke="black" d="M285.58,-804.49C150.66,-795.83 264.64,-609.51 296.72,-466 307.17,-419.28 331.68,-415.08 342.3,-368.4 351.59,-327.57 385.17,-274.2 343.3,-274.2"/>
<polygon fill="black" stroke="black" points="285.39,-804.48 295.25,-809.29 290.73,-804.65 295.05,-804.78 295.05,-804.78 295.05,-804.78 290.73,-804.65 295.53,-800.29 285.39,-804.48"/>
<text text-anchor="start" x="7" y="-814.8" font-family="Arial" font-size="10.00">FOREIGN KEY (administrator_id) REFERENCES members (id)</text>
</g>
<!-- leagues -->
<g id="node5" class="node">
<title>leagues</title>
<polygon fill="#efefef" stroke="none" points="447.18,-351.2 447.18,-386.8 668.96,-386.8 668.96,-351.2 447.18,-351.2"/>
<polygon fill="none" stroke="black" points="447.18,-351.2 447.18,-386.8 668.96,-386.8 668.96,-351.2 447.18,-351.2"/>
<text text-anchor="start" x="468.84" y="-364.6" font-family="Arial Bold" font-size="18.00">leagues</text>
<text text-anchor="start" x="522.81" y="-364.6" font-family="Arial" font-size="14.00">    </text>
<text text-anchor="start" x="553.93" y="-364.6" font-family="Arial" font-size="14.00" fill="#666666">[BASE TABLE]</text>
<polygon fill="none" stroke="black" points="447.18,-320.4 447.18,-351.2 668.96,-351.2 668.96,-320.4 447.18,-320.4"/>
<text text-anchor="start" x="454.18" y="-332.6" font-family="Arial" font-size="14.00">id </text>
<text text-anchor="start" x="468.96" y="-332.6" font-family="Arial" font-size="14.00" fill="#666666">[bigint]</text>
<polygon fill="none" stroke="black" points="447.18,-289.6 447.18,-320.4 668.96,-320.4 668.96,-289.6 447.18,-289.6"/>
<text text-anchor="start" x="454.18" y="-301.8" font-family="Arial" font-size="14.00">organization_id </text>
<text text-anchor="start" x="553.03" y="-301.8" font-family="Arial" font-size="14.00" fill="#666666">[bigint]</text>
<polygon fill="none" stroke="black" points="447.18,-258.8 447.18,-289.6 668.96,-289.6 668.96,-258.8 447.18,-258.8"/>
<text text-anchor="start" x="454.18" y="-271" font-family="Arial" font-size="14.00">administrator_id </text>
<text text-anchor="start" x="557.67" y="-271" font-family="Arial" font-size="14.00" fill="#666666">[bigint]</text>
<polygon fill="none" stroke="black" points="447.18,-228 447.18,-258.8 668.96,-258.8 668.96,-228 447.18,-228"/>
<text text-anchor="start" x="454.18" y="-240.2" font-family="Arial" font-size="14.00">name </text>
<text text-anchor="start" x="493.09" y="-240.2" font-family="Arial" font-size="14.00" fill="#666666">[varchar(255)]</text>
<polygon fill="none" stroke="black" points="447.18,-197.2 447.18,-228 668.96,-228 668.96,-197.2 447.18,-197.2"/>
<text text-anchor="start" x="454.18" y="-209.4" font-family="Arial" font-size="14.00">start_at </text>
<text text-anchor="start" x="504.76" y="-209.4" font-family="Arial" font-size="14.00" fill="#666666">[datetime]</text>
<polygon fill="none" stroke="black" points="447.18,-166.4 447.18,-197.2 668.96,-197.2 668.96,-166.4 447.18,-166.4"/>
<text text-anchor="start" x="454.18" y="-178.6" font-family="Arial" font-size="14.00">end_at </text>
<text text-anchor="start" x="500.89" y="-178.6" font-family="Arial" font-size="14.00" fill="#666666">[datetime]</text>
<polygon fill="none" stroke="black" points="447.18,-135.6 447.18,-166.4 668.96,-166.4 668.96,-135.6 447.18,-135.6"/>
<text text-anchor="start" x="454.18" y="-147.8" font-family="Arial" font-size="14.00">is_deleted </text>
<text text-anchor="start" x="521.9" y="-147.8" font-family="Arial" font-size="14.00" fill="#666666">[tinyint(1)]</text>
<polygon fill="none" stroke="black" points="447.18,-104.8 447.18,-135.6 668.96,-135.6 668.96,-104.8 447.18,-104.8"/>
<text text-anchor="start" x="454.18" y="-117" font-family="Arial" font-size="14.00">max_round </text>
<text text-anchor="start" x="528.11" y="-117" font-family="Arial" font-size="14.00" fill="#666666">[varchar(255)]</text>
<polygon fill="none" stroke="black" points="447.18,-74 447.18,-104.8 668.96,-104.8 668.96,-74 447.18,-74"/>
<text text-anchor="start" x="454.18" y="-86.2" font-family="Arial" font-size="14.00">in_progress_round </text>
<text text-anchor="start" x="574.81" y="-86.2" font-family="Arial" font-size="14.00" fill="#666666">[varchar(255)]</text>
<polygon fill="none" stroke="black" points="447.18,-43.2 447.18,-74 668.96,-74 668.96,-43.2 447.18,-43.2"/>
<text text-anchor="start" x="454.18" y="-55.4" font-family="Arial" font-size="14.00">sport_type </text>
<text text-anchor="start" x="523.44" y="-55.4" font-family="Arial" font-size="14.00" fill="#666666">[varchar(20)]</text>
</g>
<!-- games&#45;&gt;leagues -->
<g id="edge4" class="edge">
<title>games:league_id&#45;&gt;leagues:id</title>
<path fill="none" stroke="black" d="M512.81,-773.61C635.46,-764.16 564.61,-583.34 501.41,-466 487.69,-440.53 460.99,-455.42 447.18,-430 427.19,-393.21 404.31,-335.8 446.18,-335.8"/>
<polygon fill="black" stroke="black" points="512.74,-773.62 502.58,-769.49 507.41,-773.81 503.08,-773.98 503.08,-773.98 503.08,-773.98 507.41,-773.81 502.91,-778.48 512.74,-773.62"/>
<text text-anchor="start" x="509.41" y="-784" font-family="Arial" font-size="10.00">FOREIGN KEY (league_id) REFERENCES leagues (id)</text>
</g>
<!-- game_teams -->
<g id="node2" class="node">
<title>game_teams</title>
<polygon fill="#efefef" stroke="none" points="109.84,-1427.8 109.84,-1463.4 338.29,-1463.4 338.29,-1427.8 109.84,-1427.8"/>
<polygon fill="none" stroke="black" points="109.84,-1427.8 109.84,-1463.4 338.29,-1463.4 338.29,-1427.8 109.84,-1427.8"/>
<text text-anchor="start" x="116.84" y="-1441.2" font-family="Arial Bold" font-size="18.00">game_teams</text>
<text text-anchor="start" x="206.81" y="-1441.2" font-family="Arial" font-size="14.00">    </text>
<text text-anchor="start" x="237.92" y="-1441.2" font-family="Arial" font-size="14.00" fill="#666666">[BASE TABLE]</text>
<polygon fill="none" stroke="black" points="109.84,-1397 109.84,-1427.8 338.29,-1427.8 338.29,-1397 109.84,-1397"/>
<text text-anchor="start" x="116.84" y="-1409.2" font-family="Arial" font-size="14.00">id </text>
<text text-anchor="start" x="131.63" y="-1409.2" font-family="Arial" font-size="14.00" fill="#666666">[bigint]</text>
<polygon fill="none" stroke="black" points="109.84,-1366.2 109.84,-1397 338.29,-1397 338.29,-1366.2 109.84,-1366.2"/>
<text text-anchor="start" x="116.84" y="-1378.4" font-family="Arial" font-size="14.00">game_id </text>
<text text-anchor="start" x="174.43" y="-1378.4" font-family="Arial" font-size="14.00" fill="#666666">[bigint]</text>
<polygon fill="none" stroke="black" points="109.84,-1335.4 109.84,-1366.2 338.29,-1366.2 338.29,-1335.4 109.84,-1335.4"/>
<text text-anchor="start" x="116.84" y="-1347.6" font-family="Arial" font-size="14.00">team_id </text>
<text text-anchor="start" x="170.54" y="-1347.6" font-family="Arial" font-size="14.00" fill="#666666">[bigint]</text>
<polygon fill="none" stroke="black" points="109.84,-1304.6 109.84,-1335.4 338.29,-1335.4 338.29,-1304.6 109.84,-1304.6"/>
<text text-anchor="start" x="116.84" y="-1316.8" font-family="Arial" font-size="14.00">cheer_count </text>
<text text-anchor="start" x="197.79" y="-1316.8" font-family="Arial" font-size="14.00" fill="#666666">[int]</text>
<polygon fill="none" stroke="black" points="109.84,-1273.8 109.84,-1304.6 338.29,-1304.6 338.29,-1273.8 109.84,-1273.8"/>
<text text-anchor="start" x="116.84" y="-1286" font-family="Arial" font-size="14.00">score </text>
<text text-anchor="start" x="154.96" y="-1286" font-family="Arial" font-size="14.00" fill="#666666">[int]</text>
<polygon fill="none" stroke="black" points="109.84,-1243 109.84,-1273.8 338.29,-1273.8 338.29,-1243 109.84,-1243"/>
<text text-anchor="start" x="116.84" y="-1255.2" font-family="Arial" font-size="14.00">pk_score </text>
<text text-anchor="start" x="177.54" y="-1255.2" font-family="Arial" font-size="14.00" fill="#666666">[int]</text>
<polygon fill="none" stroke="black" points="109.84,-1212.2 109.84,-1243 338.29,-1243 338.29,-1212.2 109.84,-1212.2"/>
<text text-anchor="start" x="116.84" y="-1224.4" font-family="Arial" font-size="14.00">result </text>
<text text-anchor="start" x="154.96" y="-1224.4" font-family="Arial" font-size="14.00" fill="#666666">[varchar(255)]</text>
</g>
<!-- game_teams&#45;&gt;games -->
<g id="edge1" class="edge">
<title>game_teams:game_id&#45;&gt;games:id</title>
<path fill="none" stroke="black" d="M348.67,-1377.73C392.28,-1335.62 299.52,-963 296.72,-932.8 292.74,-889.78 252.52,-835.6 295.72,-835.6"/>
<polygon fill="black" stroke="black" points="348.85,-1377.66 337.89,-1377.31 343.92,-1379.69 339.91,-1381.35 339.91,-1381.35 339.91,-1381.35 343.92,-1379.69 341.32,-1385.63 348.85,-1377.66"/>
<text text-anchor="start" x="346.29" y="-1391.6" font-family="Arial" font-size="10.00">FOREIGN KEY (game_id) REFERENCES games (id)</text>
</g>
<!-- timelines -->
<g id="node3" class="node">
<title>timelines</title>
<polygon fill="#efefef" stroke="none" points="442.37,-1628 442.37,-1663.6 707.76,-1663.6 707.76,-1628 442.37,-1628"/>
<polygon fill="none" stroke="black" points="442.37,-1628 442.37,-1663.6 707.76,-1663.6 707.76,-1628 442.37,-1628"/>
<text text-anchor="start" x="479.83" y="-1641.4" font-family="Arial Bold" font-size="18.00">timelines</text>
<text text-anchor="start" x="545.82" y="-1641.4" font-family="Arial" font-size="14.00">    </text>
<text text-anchor="start" x="576.93" y="-1641.4" font-family="Arial" font-size="14.00" fill="#666666">[BASE TABLE]</text>
<polygon fill="none" stroke="black" points="442.37,-1597.2 442.37,-1628 707.76,-1628 707.76,-1597.2 442.37,-1597.2"/>
<text text-anchor="start" x="449.37" y="-1609.4" font-family="Arial" font-size="14.00">id </text>
<text text-anchor="start" x="464.16" y="-1609.4" font-family="Arial" font-size="14.00" fill="#666666">[bigint]</text>
<polygon fill="none" stroke="black" points="442.37,-1566.4 442.37,-1597.2 707.76,-1597.2 707.76,-1566.4 442.37,-1566.4"/>
<text text-anchor="start" x="449.37" y="-1578.6" font-family="Arial" font-size="14.00">type </text>
<text text-anchor="start" x="479.72" y="-1578.6" font-family="Arial" font-size="14.00" fill="#666666">[varchar(255)]</text>
<polygon fill="none" stroke="black" points="442.37,-1535.6 442.37,-1566.4 707.76,-1566.4 707.76,-1535.6 442.37,-1535.6"/>
<text text-anchor="start" x="449.37" y="-1547.8" font-family="Arial" font-size="14.00">game_id </text>
<text text-anchor="start" x="506.96" y="-1547.8" font-family="Arial" font-size="14.00" fill="#666666">[bigint]</text>
<polygon fill="none" stroke="black" points="442.37,-1504.8 442.37,-1535.6 707.76,-1535.6 707.76,-1504.8 442.37,-1504.8"/>
<text text-anchor="start" x="449.37" y="-1517" font-family="Arial" font-size="14.00">recorded_quarter </text>
<text text-anchor="start" x="560.66" y="-1517" font-family="Arial" font-size="14.00" fill="#666666">[varchar(255)]</text>
<polygon fill="none" stroke="black" points="442.37,-1474 442.37,-1504.8 707.76,-1504.8 707.76,-1474 442.37,-1474"/>
<text text-anchor="start" x="449.37" y="-1486.2" font-family="Arial" font-size="14.00">recorded_at </text>
<text text-anchor="start" x="527.98" y="-1486.2" font-family="Arial" font-size="14.00" fill="#666666">[int]</text>
<polygon fill="none" stroke="black" points="442.37,-1443.2 442.37,-1474 707.76,-1474 707.76,-1443.2 442.37,-1443.2"/>
<text text-anchor="start" x="449.37" y="-1455.4" font-family="Arial" font-size="14.00">scorer_id </text>
<text text-anchor="start" x="510.84" y="-1455.4" font-family="Arial" font-size="14.00" fill="#666666">[bigint]</text>
<polygon fill="none" stroke="black" points="442.37,-1412.4 442.37,-1443.2 707.76,-1443.2 707.76,-1412.4 442.37,-1412.4"/>
<text text-anchor="start" x="449.37" y="-1424.6" font-family="Arial" font-size="14.00">score </text>
<text text-anchor="start" x="487.5" y="-1424.6" font-family="Arial" font-size="14.00" fill="#666666">[int]</text>
<polygon fill="none" stroke="black" points="442.37,-1381.6 442.37,-1412.4 707.76,-1412.4 707.76,-1381.6 442.37,-1381.6"/>
<text text-anchor="start" x="449.37" y="-1393.8" font-family="Arial" font-size="14.00">is_success </text>
<text text-anchor="start" x="521.73" y="-1393.8" font-family="Arial" font-size="14.00" fill="#666666">[tinyint(1)]</text>
<polygon fill="none" stroke="black" points="442.37,-1350.8 442.37,-1381.6 707.76,-1381.6 707.76,-1350.8 442.37,-1350.8"/>
<text text-anchor="start" x="449.37" y="-1363" font-family="Arial" font-size="14.00">origin_lineup_player_id </text>
<text text-anchor="start" x="597.25" y="-1363" font-family="Arial" font-size="14.00" fill="#666666">[bigint]</text>
<polygon fill="none" stroke="black" points="442.37,-1320 442.37,-1350.8 707.76,-1350.8 707.76,-1320 442.37,-1320"/>
<text text-anchor="start" x="449.37" y="-1332.2" font-family="Arial" font-size="14.00">replaced_lineup_player_id </text>
<text text-anchor="start" x="616.72" y="-1332.2" font-family="Arial" font-size="14.00" fill="#666666">[bigint]</text>
<polygon fill="none" stroke="black" points="442.37,-1289.2 442.37,-1320 707.76,-1320 707.76,-1289.2 442.37,-1289.2"/>
<text text-anchor="start" x="449.37" y="-1301.4" font-family="Arial" font-size="14.00">game_progress_type </text>
<text text-anchor="start" x="584.79" y="-1301.4" font-family="Arial" font-size="14.00" fill="#666666">[varchar(255)]</text>
<polygon fill="none" stroke="black" points="442.37,-1258.4 442.37,-1289.2 707.76,-1289.2 707.76,-1258.4 442.37,-1258.4"/>
<text text-anchor="start" x="449.37" y="-1270.6" font-family="Arial" font-size="14.00">game_team1_id </text>
<text text-anchor="start" x="553.66" y="-1270.6" font-family="Arial" font-size="14.00" fill="#666666">[bigint]</text>
<polygon fill="none" stroke="black" points="442.37,-1227.6 442.37,-1258.4 707.76,-1258.4 707.76,-1227.6 442.37,-1227.6"/>
<text text-anchor="start" x="449.37" y="-1239.8" font-family="Arial" font-size="14.00">game_team2_id </text>
<text text-anchor="start" x="553.66" y="-1239.8" font-family="Arial" font-size="14.00" fill="#666666">[bigint]</text>
<polygon fill="none" stroke="black" points="442.37,-1196.8 442.37,-1227.6 707.76,-1227.6 707.76,-1196.8 442.37,-1196.8"/>
<text text-anchor="start" x="449.37" y="-1209" font-family="Arial" font-size="14.00">snapshot_score1 </text>
<text text-anchor="start" x="559.89" y="-1209" font-family="Arial" font-size="14.00" fill="#666666">[int]</text>
<polygon fill="none" stroke="black" points="442.37,-1166 442.37,-1196.8 707.76,-1196.8 707.76,-1166 442.37,-1166"/>
<text text-anchor="start" x="449.37" y="-1178.2" font-family="Arial" font-size="14.00">snapshot_score2 </text>
<text text-anchor="start" x="559.89" y="-1178.2" font-family="Arial" font-size="14.00" fill="#666666">[int]</text>
<polygon fill="none" stroke="black" points="442.37,-1135.2 442.37,-1166 707.76,-1166 707.76,-1135.2 442.37,-1135.2"/>
<text text-anchor="start" x="449.37" y="-1147.4" font-family="Arial" font-size="14.00">previous_quarter </text>
<text text-anchor="start" x="558.32" y="-1147.4" font-family="Arial" font-size="14.00" fill="#666666">[varchar(255)]</text>
<polygon fill="none" stroke="black" points="442.37,-1104.4 442.37,-1135.2 707.76,-1135.2 707.76,-1104.4 442.37,-1104.4"/>
<text text-anchor="start" x="449.37" y="-1116.6" font-family="Arial" font-size="14.00">previous_quarter_changed_at </text>
<text text-anchor="start" x="639.29" y="-1116.6" font-family="Arial" font-size="14.00" fill="#666666">[datetime]</text>
<polygon fill="none" stroke="black" points="442.37,-1073.6 442.37,-1104.4 707.76,-1104.4 707.76,-1073.6 442.37,-1073.6"/>
<text text-anchor="start" x="449.37" y="-1085.8" font-family="Arial" font-size="14.00">warning_card_type </text>
<text text-anchor="start" x="571.56" y="-1085.8" font-family="Arial" font-size="14.00" fill="#666666">[varchar(255)]</text>
<polygon fill="none" stroke="black" points="442.37,-1042.8 442.37,-1073.6 707.76,-1073.6 707.76,-1042.8 442.37,-1042.8"/>
<text text-anchor="start" x="449.37" y="-1055" font-family="Arial" font-size="14.00">assist_lineup_player_id </text>
<text text-anchor="start" x="598.8" y="-1055" font-family="Arial" font-size="14.00" fill="#666666">[bigint]</text>
<polygon fill="none" stroke="black" points="442.37,-1012 442.37,-1042.8 707.76,-1042.8 707.76,-1012 442.37,-1012"/>
<text text-anchor="start" x="449.37" y="-1024.2" font-family="Arial" font-size="14.00">is_foul_out </text>
<text text-anchor="start" x="520.98" y="-1024.2" font-family="Arial" font-size="14.00" fill="#666666">[tinyint(1)]</text>
</g>
<!-- timelines&#45;&gt;games -->
<g id="edge2" class="edge">
<title>timelines:game_id&#45;&gt;games:id</title>
<path fill="none" stroke="black" d="M431.95,-1546.76C380.26,-1496.85 412.33,-1022.21 442.37,-968.8 457.44,-942.01 486.23,-959.52 501.41,-932.8 522.76,-895.24 545.61,-835.6 502.41,-835.6"/>
<polygon fill="black" stroke="black" points="431.95,-1546.76 439.22,-1554.97 436.81,-1548.95 440.76,-1550.73 440.76,-1550.73 440.76,-1550.73 436.81,-1548.95 442.91,-1546.76 431.95,-1546.76"/>
<text text-anchor="start" x="197.09" y="-1561" font-family="Arial" font-size="10.00">FOREIGN KEY (game_id) REFERENCES games (id)</text>
</g>
</g>
</svg>
