<?xml version="1.0" encoding="UTF-8" standalone="no"?>
<!DOCTYPE svg PUBLIC "-//W3C//DTD SVG 1.1//EN"
 "http://www.w3.org/Graphics/SVG/1.1/DTD/svg11.dtd">
<!-- Generated by graphviz version 12.1.2 (20240928.0832)
 -->
<!-- Title: league_top_scorers Pages: 1 -->
<svg width="804pt" height="756pt"
 viewBox="0.00 0.00 804.47 756.00" xmlns="http://www.w3.org/2000/svg" xmlns:xlink="http://www.w3.org/1999/xlink">
<g id="graph0" class="graph" transform="scale(1 1) rotate(0) translate(4 752)">
<title>league_top_scorers</title>
<polygon fill="white" stroke="none" points="-4,4 -4,-752 800.47,-752 800.47,4 -4,4"/>
<!-- league_top_scorers -->
<g id="node1" class="node">
<title>league_top_scorers</title>
<polygon fill="#efefef" stroke="none" points="262.31,-666.2 262.31,-701.8 539.75,-701.8 539.75,-666.2 262.31,-666.2"/>
<polygon fill="none" stroke="black" points="262.31,-666.2 262.31,-701.8 539.75,-701.8 539.75,-666.2 262.31,-666.2"/>
<text text-anchor="start" x="269.31" y="-679.6" font-family="Arial Bold" font-size="18.00">league_top_scorers</text>
<text text-anchor="start" x="408.26" y="-679.6" font-family="Arial" font-size="14.00">    </text>
<text text-anchor="start" x="439.37" y="-679.6" font-family="Arial" font-size="14.00" fill="#666666">[BASE TABLE]</text>
<polygon fill="none" stroke="black" points="262.31,-635.4 262.31,-666.2 539.75,-666.2 539.75,-635.4 262.31,-635.4"/>
<text text-anchor="start" x="269.31" y="-647.6" font-family="Arial" font-size="14.00">id </text>
<text text-anchor="start" x="284.1" y="-647.6" font-family="Arial" font-size="14.00" fill="#666666">[bigint]</text>
<polygon fill="none" stroke="black" points="262.31,-604.6 262.31,-635.4 539.75,-635.4 539.75,-604.6 262.31,-604.6"/>
<text text-anchor="start" x="269.31" y="-616.8" font-family="Arial" font-size="14.00">league_id </text>
<text text-anchor="start" x="333.92" y="-616.8" font-family="Arial" font-size="14.00" fill="#666666">[bigint]</text>
<polygon fill="none" stroke="black" points="262.31,-573.8 262.31,-604.6 539.75,-604.6 539.75,-573.8 262.31,-573.8"/>
<text text-anchor="start" x="269.31" y="-586" font-family="Arial" font-size="14.00">player_id </text>
<text text-anchor="start" x="330.01" y="-586" font-family="Arial" font-size="14.00" fill="#666666">[bigint]</text>
<polygon fill="none" stroke="black" points="262.31,-543 262.31,-573.8 539.75,-573.8 539.75,-543 262.31,-543"/>
<text text-anchor="start" x="269.31" y="-555.2" font-family="Arial" font-size="14.00">ranking </text>
<text text-anchor="start" x="319.12" y="-555.2" font-family="Arial" font-size="14.00" fill="#666666">[int]</text>
<polygon fill="none" stroke="black" points="262.31,-512.2 262.31,-543 539.75,-543 539.75,-512.2 262.31,-512.2"/>
<text text-anchor="start" x="269.31" y="-524.4" font-family="Arial" font-size="14.00">goal_count </text>
<text text-anchor="start" x="341.7" y="-524.4" font-family="Arial" font-size="14.00" fill="#666666">[int]</text>
<polygon fill="none" stroke="black" stroke-width="3" points="260.81,-510.7 260.81,-703.3 541.25,-703.3 541.25,-510.7 260.81,-510.7"/>
</g>
<!-- leagues -->
<g id="node2" class="node">
<title>leagues</title>
<polygon fill="#efefef" stroke="none" points="131.14,-351.2 131.14,-386.8 352.92,-386.8 352.92,-351.2 131.14,-351.2"/>
<polygon fill="none" stroke="black" points="131.14,-351.2 131.14,-386.8 352.92,-386.8 352.92,-351.2 131.14,-351.2"/>
<text text-anchor="start" x="152.8" y="-364.6" font-family="Arial Bold" font-size="18.00">leagues</text>
<text text-anchor="start" x="206.77" y="-364.6" font-family="Arial" font-size="14.00">    </text>
<text text-anchor="start" x="237.89" y="-364.6" font-family="Arial" font-size="14.00" fill="#666666">[BASE TABLE]</text>
<polygon fill="none" stroke="black" points="131.14,-320.4 131.14,-351.2 352.92,-351.2 352.92,-320.4 131.14,-320.4"/>
<text text-anchor="start" x="138.14" y="-332.6" font-family="Arial" font-size="14.00">id </text>
<text text-anchor="start" x="152.92" y="-332.6" font-family="Arial" font-size="14.00" fill="#666666">[bigint]</text>
<polygon fill="none" stroke="black" points="131.14,-289.6 131.14,-320.4 352.92,-320.4 352.92,-289.6 131.14,-289.6"/>
<text text-anchor="start" x="138.14" y="-301.8" font-family="Arial" font-size="14.00">organization_id </text>
<text text-anchor="start" x="236.99" y="-301.8" font-family="Arial" font-size="14.00" fill="#666666">[bigint]</text>
<polygon fill="none" stroke="black" points="131.14,-258.8 131.14,-289.6 352.92,-289.6 352.92,-258.8 131.14,-258.8"/>
<text text-anchor="start" x="138.14" y="-271" font-family="Arial" font-size="14.00">administrator_id </text>
<text text-anchor="start" x="241.63" y="-271" font-family="Arial" font-size="14.00" fill="#666666">[bigint]</text>
<polygon fill="none" stroke="black" points="131.14,-228 131.14,-258.8 352.92,-258.8 352.92,-228 131.14,-228"/>
<text text-anchor="start" x="138.14" y="-240.2" font-family="Arial" font-size="14.00">name </text>
<text text-anchor="start" x="177.05" y="-240.2" font-family="Arial" font-size="14.00" fill="#666666">[varchar(255)]</text>
<polygon fill="none" stroke="black" points="131.14,-197.2 131.14,-228 352.92,-228 352.92,-197.2 131.14,-197.2"/>
<text text-anchor="start" x="138.14" y="-209.4" font-family="Arial" font-size="14.00">start_at </text>
<text text-anchor="start" x="188.72" y="-209.4" font-family="Arial" font-size="14.00" fill="#666666">[datetime]</text>
<polygon fill="none" stroke="black" points="131.14,-166.4 131.14,-197.2 352.92,-197.2 352.92,-166.4 131.14,-166.4"/>
<text text-anchor="start" x="138.14" y="-178.6" font-family="Arial" font-size="14.00">end_at </text>
<text text-anchor="start" x="184.85" y="-178.6" font-family="Arial" font-size="14.00" fill="#666666">[datetime]</text>
<polygon fill="none" stroke="black" points="131.14,-135.6 131.14,-166.4 352.92,-166.4 352.92,-135.6 131.14,-135.6"/>
<text text-anchor="start" x="138.14" y="-147.8" font-family="Arial" font-size="14.00">is_deleted </text>
<text text-anchor="start" x="205.85" y="-147.8" font-family="Arial" font-size="14.00" fill="#666666">[tinyint(1)]</text>
<polygon fill="none" stroke="black" points="131.14,-104.8 131.14,-135.6 352.92,-135.6 352.92,-104.8 131.14,-104.8"/>
<text text-anchor="start" x="138.14" y="-117" font-family="Arial" font-size="14.00">max_round </text>
<text text-anchor="start" x="212.07" y="-117" font-family="Arial" font-size="14.00" fill="#666666">[varchar(255)]</text>
<polygon fill="none" stroke="black" points="131.14,-74 131.14,-104.8 352.92,-104.8 352.92,-74 131.14,-74"/>
<text text-anchor="start" x="138.14" y="-86.2" font-family="Arial" font-size="14.00">in_progress_round </text>
<text text-anchor="start" x="258.77" y="-86.2" font-family="Arial" font-size="14.00" fill="#666666">[varchar(255)]</text>
<polygon fill="none" stroke="black" points="131.14,-43.2 131.14,-74 352.92,-74 352.92,-43.2 131.14,-43.2"/>
<text text-anchor="start" x="138.14" y="-55.4" font-family="Arial" font-size="14.00">sport_type </text>
<text text-anchor="start" x="207.4" y="-55.4" font-family="Arial" font-size="14.00" fill="#666666">[varchar(20)]</text>
</g>
<!-- league_top_scorers&#45;&gt;leagues -->
<g id="edge1" class="edge">
<title>league_top_scorers:league_id&#45;&gt;leagues:id</title>
<path fill="none" stroke="black" d="M250.96,-619.15C196.26,-609.46 225.8,-519.42 262.31,-466 286.76,-430.23 328.39,-465.72 352.92,-430 376.61,-395.48 395.79,-335.8 353.92,-335.8"/>
<polygon fill="black" stroke="black" points="251.01,-619.15 260.61,-624.46 256.33,-619.59 260.64,-619.95 260.64,-619.95 260.64,-619.95 256.33,-619.59 261.35,-615.49 251.01,-619.15"/>
<text text-anchor="start" x="7" y="-630" font-family="Arial" font-size="10.00">FOREIGN KEY (league_id) REFERENCES leagues (id)</text>
</g>
<!-- players -->
<g id="node3" class="node">
<title>players</title>
<polygon fill="#efefef" stroke="none" points="456.92,-258.8 456.92,-294.4 663.13,-294.4 663.13,-258.8 456.92,-258.8"/>
<polygon fill="none" stroke="black" points="456.92,-258.8 456.92,-294.4 663.13,-294.4 663.13,-258.8 456.92,-258.8"/>
<text text-anchor="start" x="471.79" y="-272.2" font-family="Arial Bold" font-size="18.00">players</text>
<text text-anchor="start" x="523.77" y="-272.2" font-family="Arial" font-size="14.00">    </text>
<text text-anchor="start" x="554.89" y="-272.2" font-family="Arial" font-size="14.00" fill="#666666">[BASE TABLE]</text>
<polygon fill="none" stroke="black" points="456.92,-228 456.92,-258.8 663.13,-258.8 663.13,-228 456.92,-228"/>
<text text-anchor="start" x="463.92" y="-240.2" font-family="Arial" font-size="14.00">id </text>
<text text-anchor="start" x="478.71" y="-240.2" font-family="Arial" font-size="14.00" fill="#666666">[bigint]</text>
<polygon fill="none" stroke="black" points="456.92,-197.2 456.92,-228 663.13,-228 663.13,-197.2 456.92,-197.2"/>
<text text-anchor="start" x="463.92" y="-209.4" font-family="Arial" font-size="14.00">name </text>
<text text-anchor="start" x="502.83" y="-209.4" font-family="Arial" font-size="14.00" fill="#666666">[varchar(255)]</text>
<polygon fill="none" stroke="black" points="456.92,-166.4 456.92,-197.2 663.13,-197.2 663.13,-166.4 456.92,-166.4"/>
<text text-anchor="start" x="463.92" y="-178.6" font-family="Arial" font-size="14.00">student_number </text>
<text text-anchor="start" x="568.99" y="-178.6" font-family="Arial" font-size="14.00" fill="#666666">[varchar(255)]</text>
<polygon fill="none" stroke="black" points="456.92,-135.6 456.92,-166.4 663.13,-166.4 663.13,-135.6 456.92,-135.6"/>
<text text-anchor="start" x="463.92" y="-147.8" font-family="Arial" font-size="14.00">organization_id </text>
<text text-anchor="start" x="562.77" y="-147.8" font-family="Arial" font-size="14.00" fill="#666666">[bigint]</text>
</g>
<!-- league_top_scorers&#45;&gt;players -->
<g id="edge2" class="edge">
<title>league_top_scorers:player_id&#45;&gt;players:id</title>
<path fill="none" stroke="black" d="M550.93,-588.18C589.99,-579.34 554.33,-514.77 539.75,-466 520.29,-400.94 476.45,-402.64 456.92,-337.6 444.88,-297.5 414.05,-243.4 455.92,-243.4"/>
<polygon fill="black" stroke="black" points="551.03,-588.17 540.63,-584.69 545.72,-588.7 541.41,-589.13 541.41,-589.13 541.41,-589.13 545.72,-588.7 541.53,-593.64 551.03,-588.17"/>
<text text-anchor="start" x="547.75" y="-599.2" font-family="Arial" font-size="10.00">FOREIGN KEY (player_id) REFERENCES players (id)</text>
</g>
</g>
</svg>
