<?xml version="1.0" encoding="UTF-8" standalone="no"?>
<!DOCTYPE svg PUBLIC "-//W3C//DTD SVG 1.1//EN"
 "http://www.w3.org/Graphics/SVG/1.1/DTD/svg11.dtd">
<!-- Generated by graphviz version 12.1.2 (20240928.0832)
 -->
<!-- Title: leagues Pages: 1 -->
<svg width="1746pt" height="1345pt"
 viewBox="0.00 0.00 1745.83 1345.20" xmlns="http://www.w3.org/2000/svg" xmlns:xlink="http://www.w3.org/1999/xlink">
<g id="graph0" class="graph" transform="scale(1 1) rotate(0) translate(4 1341.2)">
<title>leagues</title>
<polygon fill="white" stroke="none" points="-4,4 -4,-1341.2 1741.83,-1341.2 1741.83,4 -4,4"/>
<!-- leagues -->
<g id="node1" class="node">
<title>leagues</title>
<polygon fill="#efefef" stroke="none" points="718.23,-758.6 718.23,-794.2 969.6,-794.2 969.6,-758.6 718.23,-758.6"/>
<polygon fill="none" stroke="black" points="718.23,-758.6 718.23,-794.2 969.6,-794.2 969.6,-758.6 718.23,-758.6"/>
<text text-anchor="start" x="754.68" y="-772" font-family="Arial Bold" font-size="18.00">leagues</text>
<text text-anchor="start" x="808.66" y="-772" font-family="Arial" font-size="14.00">    </text>
<text text-anchor="start" x="839.77" y="-772" font-family="Arial" font-size="14.00" fill="#666666">[BASE TABLE]</text>
<polygon fill="none" stroke="black" points="718.23,-727.8 718.23,-758.6 969.6,-758.6 969.6,-727.8 718.23,-727.8"/>
<text text-anchor="start" x="725.23" y="-740" font-family="Arial" font-size="14.00">id </text>
<text text-anchor="start" x="740.02" y="-740" font-family="Arial" font-size="14.00" fill="#666666">[bigint]</text>
<polygon fill="none" stroke="black" points="718.23,-697 718.23,-727.8 969.6,-727.8 969.6,-697 718.23,-697"/>
<text text-anchor="start" x="725.23" y="-709.2" font-family="Arial" font-size="14.00">organization_id </text>
<text text-anchor="start" x="824.08" y="-709.2" font-family="Arial" font-size="14.00" fill="#666666">[bigint]</text>
<polygon fill="none" stroke="black" points="718.23,-666.2 718.23,-697 969.6,-697 969.6,-666.2 718.23,-666.2"/>
<text text-anchor="start" x="725.23" y="-678.4" font-family="Arial" font-size="14.00">administrator_id </text>
<text text-anchor="start" x="828.72" y="-678.4" font-family="Arial" font-size="14.00" fill="#666666">[bigint]</text>
<polygon fill="none" stroke="black" points="718.23,-635.4 718.23,-666.2 969.6,-666.2 969.6,-635.4 718.23,-635.4"/>
<text text-anchor="start" x="725.23" y="-647.6" font-family="Arial" font-size="14.00">name </text>
<text text-anchor="start" x="764.14" y="-647.6" font-family="Arial" font-size="14.00" fill="#666666">[varchar(255)]</text>
<polygon fill="none" stroke="black" points="718.23,-604.6 718.23,-635.4 969.6,-635.4 969.6,-604.6 718.23,-604.6"/>
<text text-anchor="start" x="725.23" y="-616.8" font-family="Arial" font-size="14.00">start_at </text>
<text text-anchor="start" x="775.81" y="-616.8" font-family="Arial" font-size="14.00" fill="#666666">[datetime]</text>
<polygon fill="none" stroke="black" points="718.23,-573.8 718.23,-604.6 969.6,-604.6 969.6,-573.8 718.23,-573.8"/>
<text text-anchor="start" x="725.23" y="-586" font-family="Arial" font-size="14.00">end_at </text>
<text text-anchor="start" x="771.94" y="-586" font-family="Arial" font-size="14.00" fill="#666666">[datetime]</text>
<polygon fill="none" stroke="black" points="718.23,-543 718.23,-573.8 969.6,-573.8 969.6,-543 718.23,-543"/>
<text text-anchor="start" x="725.23" y="-555.2" font-family="Arial" font-size="14.00">is_deleted </text>
<text text-anchor="start" x="792.95" y="-555.2" font-family="Arial" font-size="14.00" fill="#666666">[tinyint(1)]</text>
<polygon fill="none" stroke="black" points="718.23,-512.2 718.23,-543 969.6,-543 969.6,-512.2 718.23,-512.2"/>
<text text-anchor="start" x="725.23" y="-524.4" font-family="Arial" font-size="14.00">max_round </text>
<text text-anchor="start" x="799.16" y="-524.4" font-family="Arial" font-size="14.00" fill="#666666">[varchar(255)]</text>
<polygon fill="none" stroke="black" points="718.23,-481.4 718.23,-512.2 969.6,-512.2 969.6,-481.4 718.23,-481.4"/>
<text text-anchor="start" x="725.23" y="-493.6" font-family="Arial" font-size="14.00">in_progress_round </text>
<text text-anchor="start" x="845.87" y="-493.6" font-family="Arial" font-size="14.00" fill="#666666">[varchar(255)]</text>
<polygon fill="none" stroke="black" points="718.23,-450.6 718.23,-481.4 969.6,-481.4 969.6,-450.6 718.23,-450.6"/>
<text text-anchor="start" x="725.23" y="-462.8" font-family="Arial" font-size="14.00">sport_type </text>
<text text-anchor="start" x="794.49" y="-462.8" font-family="Arial" font-size="14.00" fill="#666666">[varchar(20)]</text>
<polygon fill="none" stroke="black" points="718.23,-419.8 718.23,-450.6 969.6,-450.6 969.6,-419.8 718.23,-419.8"/>
<text text-anchor="start" x="725.23" y="-432" font-family="Arial" font-size="14.00">third_place_match_enabled </text>
<text text-anchor="start" x="901.13" y="-432" font-family="Arial" font-size="14.00" fill="#666666">[tinyint(1)]</text>
<polygon fill="none" stroke="black" points="718.23,-389 718.23,-419.8 969.6,-419.8 969.6,-389 718.23,-389"/>
<text text-anchor="start" x="725.23" y="-401.2" font-family="Arial" font-size="14.00">bracket_enabled </text>
<text text-anchor="start" x="832.64" y="-401.2" font-family="Arial" font-size="14.00" fill="#666666">[tinyint(1)]</text>
<polygon fill="none" stroke="black" stroke-width="3" points="716.73,-387.5 716.73,-795.7 971.1,-795.7 971.1,-387.5 716.73,-387.5"/>
</g>
<!-- organizations -->
<g id="node7" class="node">
<title>organizations</title>
<polygon fill="#efefef" stroke="none" points="564.18,-197.2 564.18,-232.8 799.64,-232.8 799.64,-197.2 564.18,-197.2"/>
<polygon fill="none" stroke="black" points="564.18,-197.2 564.18,-232.8 799.64,-232.8 799.64,-197.2 564.18,-197.2"/>
<text text-anchor="start" x="571.18" y="-210.6" font-family="Arial Bold" font-size="18.00">organizations</text>
<text text-anchor="start" x="668.15" y="-210.6" font-family="Arial" font-size="14.00">    </text>
<text text-anchor="start" x="699.27" y="-210.6" font-family="Arial" font-size="14.00" fill="#666666">[BASE TABLE]</text>
<polygon fill="none" stroke="black" points="564.18,-166.4 564.18,-197.2 799.64,-197.2 799.64,-166.4 564.18,-166.4"/>
<text text-anchor="start" x="571.18" y="-178.6" font-family="Arial" font-size="14.00">id </text>
<text text-anchor="start" x="585.97" y="-178.6" font-family="Arial" font-size="14.00" fill="#666666">[bigint]</text>
<polygon fill="none" stroke="black" points="564.18,-135.6 564.18,-166.4 799.64,-166.4 799.64,-135.6 564.18,-135.6"/>
<text text-anchor="start" x="571.18" y="-147.8" font-family="Arial" font-size="14.00">name </text>
<text text-anchor="start" x="610.09" y="-147.8" font-family="Arial" font-size="14.00" fill="#666666">[varchar(255)]</text>
<polygon fill="none" stroke="black" points="564.18,-104.8 564.18,-135.6 799.64,-135.6 799.64,-104.8 564.18,-104.8"/>
<text text-anchor="start" x="571.18" y="-117" font-family="Arial" font-size="14.00">student_number_digits </text>
<text text-anchor="start" x="716.72" y="-117" font-family="Arial" font-size="14.00" fill="#666666">[int]</text>
<polygon fill="none" stroke="black" points="564.18,-74 564.18,-104.8 799.64,-104.8 799.64,-74 564.18,-74"/>
<text text-anchor="start" x="571.18" y="-86.2" font-family="Arial" font-size="14.00">logo_image_url </text>
<text text-anchor="start" x="670.8" y="-86.2" font-family="Arial" font-size="14.00" fill="#666666">[varchar(255)]</text>
</g>
<!-- leagues&#45;&gt;organizations -->
<g id="edge6" class="edge">
<title>leagues:organization_id&#45;&gt;organizations:id</title>
<path fill="none" stroke="black" d="M707,-712.1C557.03,-702.93 649.3,-488.01 718.23,-342.8 738.3,-300.52 779.41,-318.2 799.64,-276 817.75,-238.25 842.51,-181.8 800.64,-181.8"/>
<polygon fill="black" stroke="black" points="706.9,-712.09 716.76,-716.89 712.23,-712.25 716.56,-712.38 716.56,-712.38 716.56,-712.38 712.23,-712.25 717.03,-707.89 706.9,-712.09"/>
<text text-anchor="start" x="414.02" y="-722.4" font-family="Arial" font-size="10.00">FOREIGN KEY (organization_id) REFERENCES organizations (id)</text>
</g>
<!-- members -->
<g id="node8" class="node">
<title>members</title>
<polygon fill="#efefef" stroke="none" points="903.68,-228 903.68,-263.6 1108.15,-263.6 1108.15,-228 903.68,-228"/>
<polygon fill="none" stroke="black" points="903.68,-228 903.68,-263.6 1108.15,-263.6 1108.15,-228 903.68,-228"/>
<text text-anchor="start" x="910.68" y="-241.4" font-family="Arial Bold" font-size="18.00">members</text>
<text text-anchor="start" x="976.66" y="-241.4" font-family="Arial" font-size="14.00">    </text>
<text text-anchor="start" x="1007.78" y="-241.4" font-family="Arial" font-size="14.00" fill="#666666">[BASE TABLE]</text>
<polygon fill="none" stroke="black" points="903.68,-197.2 903.68,-228 1108.15,-228 1108.15,-197.2 903.68,-197.2"/>
<text text-anchor="start" x="910.68" y="-209.4" font-family="Arial" font-size="14.00">id </text>
<text text-anchor="start" x="925.47" y="-209.4" font-family="Arial" font-size="14.00" fill="#666666">[bigint]</text>
<polygon fill="none" stroke="black" points="903.68,-166.4 903.68,-197.2 1108.15,-197.2 1108.15,-166.4 903.68,-166.4"/>
<text text-anchor="start" x="910.68" y="-178.6" font-family="Arial" font-size="14.00">organization_id </text>
<text text-anchor="start" x="1009.53" y="-178.6" font-family="Arial" font-size="14.00" fill="#666666">[bigint]</text>
<polygon fill="none" stroke="black" points="903.68,-135.6 903.68,-166.4 1108.15,-166.4 1108.15,-135.6 903.68,-135.6"/>
<text text-anchor="start" x="910.68" y="-147.8" font-family="Arial" font-size="14.00">email </text>
<text text-anchor="start" x="948.02" y="-147.8" font-family="Arial" font-size="14.00" fill="#666666">[varchar(255)]</text>
<polygon fill="none" stroke="black" points="903.68,-104.8 903.68,-135.6 1108.15,-135.6 1108.15,-104.8 903.68,-104.8"/>
<text text-anchor="start" x="910.68" y="-117" font-family="Arial" font-size="14.00">password </text>
<text text-anchor="start" x="974.49" y="-117" font-family="Arial" font-size="14.00" fill="#666666">[varchar(255)]</text>
<polygon fill="none" stroke="black" points="903.68,-74 903.68,-104.8 1108.15,-104.8 1108.15,-74 903.68,-74"/>
<text text-anchor="start" x="910.68" y="-86.2" font-family="Arial" font-size="14.00">is_administrator </text>
<text text-anchor="start" x="1013.38" y="-86.2" font-family="Arial" font-size="14.00" fill="#666666">[tinyint(1)]</text>
<polygon fill="none" stroke="black" points="903.68,-43.2 903.68,-74 1108.15,-74 1108.15,-43.2 903.68,-43.2"/>
<text text-anchor="start" x="910.68" y="-55.4" font-family="Arial" font-size="14.00">last_login </text>
<text text-anchor="start" x="973.72" y="-55.4" font-family="Arial" font-size="14.00" fill="#666666">[datetime]</text>
</g>
<!-- leagues&#45;&gt;members -->
<g id="edge7" class="edge">
<title>leagues:administrator_id&#45;&gt;members:id</title>
<path fill="none" stroke="black" d="M980.81,-681.26C1117.68,-671.83 1044.81,-469.16 969.6,-342.8 952.52,-314.12 920.86,-335.42 903.68,-306.8 882.13,-270.91 860.81,-212.6 902.68,-212.6"/>
<polygon fill="black" stroke="black" points="980.92,-681.25 970.78,-677.09 975.59,-681.43 971.26,-681.58 971.26,-681.58 971.26,-681.58 975.59,-681.43 971.08,-686.09 980.92,-681.25"/>
<text text-anchor="start" x="977.6" y="-691.6" font-family="Arial" font-size="10.00">FOREIGN KEY (administrator_id) REFERENCES members (id)</text>
</g>
<!-- bracket_matches -->
<g id="node2" class="node">
<title>bracket_matches</title>
<polygon fill="#efefef" stroke="none" points="43.2,-1196.8 43.2,-1232.4 302.63,-1232.4 302.63,-1196.8 43.2,-1196.8"/>
<polygon fill="none" stroke="black" points="43.2,-1196.8 43.2,-1232.4 302.63,-1232.4 302.63,-1196.8 43.2,-1196.8"/>
<text text-anchor="start" x="50.2" y="-1210.2" font-family="Arial Bold" font-size="18.00">bracket_matches</text>
<text text-anchor="start" x="171.14" y="-1210.2" font-family="Arial" font-size="14.00">    </text>
<text text-anchor="start" x="202.25" y="-1210.2" font-family="Arial" font-size="14.00" fill="#666666">[BASE TABLE]</text>
<polygon fill="none" stroke="black" points="43.2,-1166 43.2,-1196.8 302.63,-1196.8 302.63,-1166 43.2,-1166"/>
<text text-anchor="start" x="50.2" y="-1178.2" font-family="Arial" font-size="14.00">id </text>
<text text-anchor="start" x="64.99" y="-1178.2" font-family="Arial" font-size="14.00" fill="#666666">[bigint]</text>
<polygon fill="none" stroke="black" points="43.2,-1135.2 43.2,-1166 302.63,-1166 302.63,-1135.2 43.2,-1135.2"/>
<text text-anchor="start" x="50.2" y="-1147.4" font-family="Arial" font-size="14.00">league_id </text>
<text text-anchor="start" x="114.81" y="-1147.4" font-family="Arial" font-size="14.00" fill="#666666">[bigint]</text>
<polygon fill="none" stroke="black" points="43.2,-1104.4 43.2,-1135.2 302.63,-1135.2 302.63,-1104.4 43.2,-1104.4"/>
<text text-anchor="start" x="50.2" y="-1116.6" font-family="Arial" font-size="14.00">round </text>
<text text-anchor="start" x="89.9" y="-1116.6" font-family="Arial" font-size="14.00" fill="#666666">[varchar(255)]</text>
<polygon fill="none" stroke="black" points="43.2,-1073.6 43.2,-1104.4 302.63,-1104.4 302.63,-1073.6 43.2,-1073.6"/>
<text text-anchor="start" x="50.2" y="-1085.8" font-family="Arial" font-size="14.00">match_number </text>
<text text-anchor="start" x="147.47" y="-1085.8" font-family="Arial" font-size="14.00" fill="#666666">[int]</text>
<polygon fill="none" stroke="black" points="43.2,-1042.8 43.2,-1073.6 302.63,-1073.6 302.63,-1042.8 43.2,-1042.8"/>
<text text-anchor="start" x="50.2" y="-1055" font-family="Arial" font-size="14.00">team1_id </text>
<text text-anchor="start" x="111.68" y="-1055" font-family="Arial" font-size="14.00" fill="#666666">[bigint]</text>
<polygon fill="none" stroke="black" points="43.2,-1012 43.2,-1042.8 302.63,-1042.8 302.63,-1012 43.2,-1012"/>
<text text-anchor="start" x="50.2" y="-1024.2" font-family="Arial" font-size="14.00">team2_id </text>
<text text-anchor="start" x="111.68" y="-1024.2" font-family="Arial" font-size="14.00" fill="#666666">[bigint]</text>
<polygon fill="none" stroke="black" points="43.2,-981.2 43.2,-1012 302.63,-1012 302.63,-981.2 43.2,-981.2"/>
<text text-anchor="start" x="50.2" y="-993.4" font-family="Arial" font-size="14.00">game_id </text>
<text text-anchor="start" x="107.79" y="-993.4" font-family="Arial" font-size="14.00" fill="#666666">[bigint]</text>
</g>
<!-- bracket_matches&#45;&gt;leagues -->
<g id="edge1" class="edge">
<title>bracket_matches:league_id&#45;&gt;leagues:id</title>
<path fill="none" stroke="black" d="M313.68,-1148.2C359.66,-1123.79 316.4,-920.9 353.91,-876.4 464.76,-744.9 545.25,-743.2 717.23,-743.2"/>
<polygon fill="black" stroke="black" points="313.68,-1148.2 302.9,-1146.15 308.49,-1149.44 304.28,-1150.44 304.28,-1150.44 304.28,-1150.44 308.49,-1149.44 305,-1154.9 313.68,-1148.2"/>
<text text-anchor="start" x="179.97" y="-1134.6" font-family="Arial" font-size="10.00">FOREIGN KEY (league_id) REFERENCES leagues (id)</text>
</g>
<!-- games -->
<g id="node3" class="node">
<title>games</title>
<polygon fill="#efefef" stroke="none" points="406.57,-1258.4 406.57,-1294 611.26,-1294 611.26,-1258.4 406.57,-1258.4"/>
<polygon fill="none" stroke="black" points="406.57,-1258.4 406.57,-1294 611.26,-1294 611.26,-1258.4 406.57,-1258.4"/>
<text text-anchor="start" x="423.68" y="-1271.8" font-family="Arial Bold" font-size="18.00">games</text>
<text text-anchor="start" x="469.66" y="-1271.8" font-family="Arial" font-size="14.00">    </text>
<text text-anchor="start" x="500.78" y="-1271.8" font-family="Arial" font-size="14.00" fill="#666666">[BASE TABLE]</text>
<polygon fill="none" stroke="black" points="406.57,-1227.6 406.57,-1258.4 611.26,-1258.4 611.26,-1227.6 406.57,-1227.6"/>
<text text-anchor="start" x="413.57" y="-1239.8" font-family="Arial" font-size="14.00">id </text>
<text text-anchor="start" x="428.36" y="-1239.8" font-family="Arial" font-size="14.00" fill="#666666">[bigint]</text>
<polygon fill="none" stroke="black" points="406.57,-1196.8 406.57,-1227.6 611.26,-1227.6 611.26,-1196.8 406.57,-1196.8"/>
<text text-anchor="start" x="413.57" y="-1209" font-family="Arial" font-size="14.00">administrator_id </text>
<text text-anchor="start" x="517.06" y="-1209" font-family="Arial" font-size="14.00" fill="#666666">[bigint]</text>
<polygon fill="none" stroke="black" points="406.57,-1166 406.57,-1196.8 611.26,-1196.8 611.26,-1166 406.57,-1166"/>
<text text-anchor="start" x="413.57" y="-1178.2" font-family="Arial" font-size="14.00">league_id </text>
<text text-anchor="start" x="478.18" y="-1178.2" font-family="Arial" font-size="14.00" fill="#666666">[bigint]</text>
<polygon fill="none" stroke="black" points="406.57,-1135.2 406.57,-1166 611.26,-1166 611.26,-1135.2 406.57,-1135.2"/>
<text text-anchor="start" x="413.57" y="-1147.4" font-family="Arial" font-size="14.00">start_time </text>
<text text-anchor="start" x="478.92" y="-1147.4" font-family="Arial" font-size="14.00" fill="#666666">[datetime]</text>
<polygon fill="none" stroke="black" points="406.57,-1104.4 406.57,-1135.2 611.26,-1135.2 611.26,-1104.4 406.57,-1104.4"/>
<text text-anchor="start" x="413.57" y="-1116.6" font-family="Arial" font-size="14.00">name </text>
<text text-anchor="start" x="452.48" y="-1116.6" font-family="Arial" font-size="14.00" fill="#666666">[varchar(255)]</text>
<polygon fill="none" stroke="black" points="406.57,-1073.6 406.57,-1104.4 611.26,-1104.4 611.26,-1073.6 406.57,-1073.6"/>
<text text-anchor="start" x="413.57" y="-1085.8" font-family="Arial" font-size="14.00">video_id </text>
<text text-anchor="start" x="469.61" y="-1085.8" font-family="Arial" font-size="14.00" fill="#666666">[varchar(255)]</text>
<polygon fill="none" stroke="black" points="406.57,-1042.8 406.57,-1073.6 611.26,-1073.6 611.26,-1042.8 406.57,-1042.8"/>
<text text-anchor="start" x="413.57" y="-1055" font-family="Arial" font-size="14.00">quarter_changed_at </text>
<text text-anchor="start" x="542.78" y="-1055" font-family="Arial" font-size="14.00" fill="#666666">[datetime]</text>
<polygon fill="none" stroke="black" points="406.57,-1012 406.57,-1042.8 611.26,-1042.8 611.26,-1012 406.57,-1012"/>
<text text-anchor="start" x="413.57" y="-1024.2" font-family="Arial" font-size="14.00">game_quarter </text>
<text text-anchor="start" x="504.62" y="-1024.2" font-family="Arial" font-size="14.00" fill="#666666">[varchar(255)]</text>
<polygon fill="none" stroke="black" points="406.57,-981.2 406.57,-1012 611.26,-1012 611.26,-981.2 406.57,-981.2"/>
<text text-anchor="start" x="413.57" y="-993.4" font-family="Arial" font-size="14.00">state </text>
<text text-anchor="start" x="447.81" y="-993.4" font-family="Arial" font-size="14.00" fill="#666666">[varchar(255)]</text>
<polygon fill="none" stroke="black" points="406.57,-950.4 406.57,-981.2 611.26,-981.2 611.26,-950.4 406.57,-950.4"/>
<text text-anchor="start" x="413.57" y="-962.6" font-family="Arial" font-size="14.00">round </text>
<text text-anchor="start" x="453.27" y="-962.6" font-family="Arial" font-size="14.00" fill="#666666">[varchar(255)]</text>
<polygon fill="none" stroke="black" points="406.57,-919.6 406.57,-950.4 611.26,-950.4 611.26,-919.6 406.57,-919.6"/>
<text text-anchor="start" x="413.57" y="-931.8" font-family="Arial" font-size="14.00">is_pk_taken </text>
<text text-anchor="start" x="492.18" y="-931.8" font-family="Arial" font-size="14.00" fill="#666666">[tinyint(1)]</text>
</g>
<!-- games&#45;&gt;leagues -->
<g id="edge2" class="edge">
<title>games:league_id&#45;&gt;leagues:id</title>
<path fill="none" stroke="black" d="M622.28,-1179.47C677.39,-1156.69 646.28,-939.08 663.91,-876.4 681.18,-815.02 653.46,-743.2 717.23,-743.2"/>
<polygon fill="black" stroke="black" points="622.41,-1179.44 611.73,-1176.92 617.17,-1180.45 612.91,-1181.27 612.91,-1181.27 612.91,-1181.27 617.17,-1180.45 613.44,-1185.76 622.41,-1179.44"/>
<text text-anchor="start" x="619.26" y="-1191.4" font-family="Arial" font-size="10.00">FOREIGN KEY (league_id) REFERENCES leagues (id)</text>
</g>
<!-- league_statistics -->
<g id="node4" class="node">
<title>league_statistics</title>
<polygon fill="#efefef" stroke="none" points="715.69,-1181.4 715.69,-1217 972.14,-1217 972.14,-1181.4 715.69,-1181.4"/>
<polygon fill="none" stroke="black" points="715.69,-1181.4 715.69,-1217 972.14,-1217 972.14,-1181.4 715.69,-1181.4"/>
<text text-anchor="start" x="722.69" y="-1194.8" font-family="Arial Bold" font-size="18.00">league_statistics</text>
<text text-anchor="start" x="840.65" y="-1194.8" font-family="Arial" font-size="14.00">    </text>
<text text-anchor="start" x="871.77" y="-1194.8" font-family="Arial" font-size="14.00" fill="#666666">[BASE TABLE]</text>
<polygon fill="none" stroke="black" points="715.69,-1150.6 715.69,-1181.4 972.14,-1181.4 972.14,-1150.6 715.69,-1150.6"/>
<text text-anchor="start" x="722.69" y="-1162.8" font-family="Arial" font-size="14.00">id </text>
<text text-anchor="start" x="737.47" y="-1162.8" font-family="Arial" font-size="14.00" fill="#666666">[bigint]</text>
<polygon fill="none" stroke="black" points="715.69,-1119.8 715.69,-1150.6 972.14,-1150.6 972.14,-1119.8 715.69,-1119.8"/>
<text text-anchor="start" x="722.69" y="-1132" font-family="Arial" font-size="14.00">league_id </text>
<text text-anchor="start" x="787.3" y="-1132" font-family="Arial" font-size="14.00" fill="#666666">[bigint]</text>
<polygon fill="none" stroke="black" points="715.69,-1089 715.69,-1119.8 972.14,-1119.8 972.14,-1089 715.69,-1089"/>
<text text-anchor="start" x="722.69" y="-1101.2" font-family="Arial" font-size="14.00">first_winner_team_id </text>
<text text-anchor="start" x="855.75" y="-1101.2" font-family="Arial" font-size="14.00" fill="#666666">[bigint]</text>
<polygon fill="none" stroke="black" points="715.69,-1058.2 715.69,-1089 972.14,-1089 972.14,-1058.2 715.69,-1058.2"/>
<text text-anchor="start" x="722.69" y="-1070.4" font-family="Arial" font-size="14.00">second_winner_team_id </text>
<text text-anchor="start" x="878.34" y="-1070.4" font-family="Arial" font-size="14.00" fill="#666666">[bigint]</text>
<polygon fill="none" stroke="black" points="715.69,-1027.4 715.69,-1058.2 972.14,-1058.2 972.14,-1027.4 715.69,-1027.4"/>
<text text-anchor="start" x="722.69" y="-1039.6" font-family="Arial" font-size="14.00">most_cheered_team_id </text>
<text text-anchor="start" x="872.88" y="-1039.6" font-family="Arial" font-size="14.00" fill="#666666">[bigint]</text>
<polygon fill="none" stroke="black" points="715.69,-996.6 715.69,-1027.4 972.14,-1027.4 972.14,-996.6 715.69,-996.6"/>
<text text-anchor="start" x="722.69" y="-1008.8" font-family="Arial" font-size="14.00">most_cheer_talks_team_id </text>
<text text-anchor="start" x="893.88" y="-1008.8" font-family="Arial" font-size="14.00" fill="#666666">[bigint]</text>
</g>
<!-- league_statistics&#45;&gt;leagues -->
<g id="edge3" class="edge">
<title>league_statistics:league_id&#45;&gt;leagues:id</title>
<path fill="none" stroke="black" d="M981.65,-1129.66C1016.14,-1082.01 1011.09,-743.2 970.6,-743.2"/>
<polygon fill="black" stroke="black" points="981.8,-1129.56 970.97,-1131.25 977.33,-1132.47 973.7,-1134.83 973.7,-1134.83 973.7,-1134.83 977.33,-1132.47 975.88,-1138.79 981.8,-1129.56"/>
<text text-anchor="start" x="849.49" y="-1119.2" font-family="Arial" font-size="10.00">FOREIGN KEY (league_id) REFERENCES leagues (id)</text>
</g>
<!-- league_teams -->
<g id="node5" class="node">
<title>league_teams</title>
<polygon fill="#efefef" stroke="none" points="1076.69,-1181.4 1076.69,-1217 1313.14,-1217 1313.14,-1181.4 1076.69,-1181.4"/>
<polygon fill="none" stroke="black" points="1076.69,-1181.4 1076.69,-1217 1313.14,-1217 1313.14,-1181.4 1076.69,-1181.4"/>
<text text-anchor="start" x="1083.69" y="-1194.8" font-family="Arial Bold" font-size="18.00">league_teams</text>
<text text-anchor="start" x="1181.65" y="-1194.8" font-family="Arial" font-size="14.00">    </text>
<text text-anchor="start" x="1212.76" y="-1194.8" font-family="Arial" font-size="14.00" fill="#666666">[BASE TABLE]</text>
<polygon fill="none" stroke="black" points="1076.69,-1150.6 1076.69,-1181.4 1313.14,-1181.4 1313.14,-1150.6 1076.69,-1150.6"/>
<text text-anchor="start" x="1083.69" y="-1162.8" font-family="Arial" font-size="14.00">id </text>
<text text-anchor="start" x="1098.48" y="-1162.8" font-family="Arial" font-size="14.00" fill="#666666">[bigint]</text>
<polygon fill="none" stroke="black" points="1076.69,-1119.8 1076.69,-1150.6 1313.14,-1150.6 1313.14,-1119.8 1076.69,-1119.8"/>
<text text-anchor="start" x="1083.69" y="-1132" font-family="Arial" font-size="14.00">league_id </text>
<text text-anchor="start" x="1148.3" y="-1132" font-family="Arial" font-size="14.00" fill="#666666">[bigint]</text>
<polygon fill="none" stroke="black" points="1076.69,-1089 1076.69,-1119.8 1313.14,-1119.8 1313.14,-1089 1076.69,-1089"/>
<text text-anchor="start" x="1083.69" y="-1101.2" font-family="Arial" font-size="14.00">team_id </text>
<text text-anchor="start" x="1137.39" y="-1101.2" font-family="Arial" font-size="14.00" fill="#666666">[bigint]</text>
<polygon fill="none" stroke="black" points="1076.69,-1058.2 1076.69,-1089 1313.14,-1089 1313.14,-1058.2 1076.69,-1058.2"/>
<text text-anchor="start" x="1083.69" y="-1070.4" font-family="Arial" font-size="14.00">total_cheer_count </text>
<text text-anchor="start" x="1198.88" y="-1070.4" font-family="Arial" font-size="14.00" fill="#666666">[int]</text>
<polygon fill="none" stroke="black" points="1076.69,-1027.4 1076.69,-1058.2 1313.14,-1058.2 1313.14,-1027.4 1076.69,-1027.4"/>
<text text-anchor="start" x="1083.69" y="-1039.6" font-family="Arial" font-size="14.00">total_talk_count </text>
<text text-anchor="start" x="1185.65" y="-1039.6" font-family="Arial" font-size="14.00" fill="#666666">[int]</text>
<polygon fill="none" stroke="black" points="1076.69,-996.6 1076.69,-1027.4 1313.14,-1027.4 1313.14,-996.6 1076.69,-996.6"/>
<text text-anchor="start" x="1083.69" y="-1008.8" font-family="Arial" font-size="14.00">ranking </text>
<text text-anchor="start" x="1133.5" y="-1008.8" font-family="Arial" font-size="14.00" fill="#666666">[int]</text>
</g>
<!-- league_teams&#45;&gt;leagues -->
<g id="edge4" class="edge">
<title>league_teams:league_id&#45;&gt;leagues:id</title>
<path fill="none" stroke="black" d="M1065.63,-1132.91C1019.83,-1110.45 1039.59,-929.1 1023.91,-876.4 1005.73,-815.28 1034.36,-743.2 970.6,-743.2"/>
<polygon fill="black" stroke="black" points="1065.61,-1132.91 1074.37,-1139.51 1070.82,-1134.09 1075.04,-1135.05 1075.04,-1135.05 1075.04,-1135.05 1070.82,-1134.09 1076.36,-1130.74 1065.61,-1132.91"/>
<text text-anchor="start" x="821.38" y="-1145.2" font-family="Arial" font-size="10.00">FOREIGN KEY (league_id) REFERENCES leagues (id)</text>
</g>
<!-- league_top_scorers -->
<g id="node6" class="node">
<title>league_top_scorers</title>
<polygon fill="#efefef" stroke="none" points="1417.2,-1166 1417.2,-1201.6 1694.63,-1201.6 1694.63,-1166 1417.2,-1166"/>
<polygon fill="none" stroke="black" points="1417.2,-1166 1417.2,-1201.6 1694.63,-1201.6 1694.63,-1166 1417.2,-1166"/>
<text text-anchor="start" x="1424.2" y="-1179.4" font-family="Arial Bold" font-size="18.00">league_top_scorers</text>
<text text-anchor="start" x="1563.14" y="-1179.4" font-family="Arial" font-size="14.00">    </text>
<text text-anchor="start" x="1594.26" y="-1179.4" font-family="Arial" font-size="14.00" fill="#666666">[BASE TABLE]</text>
<polygon fill="none" stroke="black" points="1417.2,-1135.2 1417.2,-1166 1694.63,-1166 1694.63,-1135.2 1417.2,-1135.2"/>
<text text-anchor="start" x="1424.2" y="-1147.4" font-family="Arial" font-size="14.00">id </text>
<text text-anchor="start" x="1438.98" y="-1147.4" font-family="Arial" font-size="14.00" fill="#666666">[bigint]</text>
<polygon fill="none" stroke="black" points="1417.2,-1104.4 1417.2,-1135.2 1694.63,-1135.2 1694.63,-1104.4 1417.2,-1104.4"/>
<text text-anchor="start" x="1424.2" y="-1116.6" font-family="Arial" font-size="14.00">league_id </text>
<text text-anchor="start" x="1488.81" y="-1116.6" font-family="Arial" font-size="14.00" fill="#666666">[bigint]</text>
<polygon fill="none" stroke="black" points="1417.2,-1073.6 1417.2,-1104.4 1694.63,-1104.4 1694.63,-1073.6 1417.2,-1073.6"/>
<text text-anchor="start" x="1424.2" y="-1085.8" font-family="Arial" font-size="14.00">player_id </text>
<text text-anchor="start" x="1484.9" y="-1085.8" font-family="Arial" font-size="14.00" fill="#666666">[bigint]</text>
<polygon fill="none" stroke="black" points="1417.2,-1042.8 1417.2,-1073.6 1694.63,-1073.6 1694.63,-1042.8 1417.2,-1042.8"/>
<text text-anchor="start" x="1424.2" y="-1055" font-family="Arial" font-size="14.00">ranking </text>
<text text-anchor="start" x="1474" y="-1055" font-family="Arial" font-size="14.00" fill="#666666">[int]</text>
<polygon fill="none" stroke="black" points="1417.2,-1012 1417.2,-1042.8 1694.63,-1042.8 1694.63,-1012 1417.2,-1012"/>
<text text-anchor="start" x="1424.2" y="-1024.2" font-family="Arial" font-size="14.00">goal_count </text>
<text text-anchor="start" x="1496.59" y="-1024.2" font-family="Arial" font-size="14.00" fill="#666666">[int]</text>
</g>
<!-- league_top_scorers&#45;&gt;leagues -->
<g id="edge5" class="edge">
<title>league_top_scorers:league_id&#45;&gt;leagues:id</title>
<path fill="none" stroke="black" d="M1405.97,-1119.28C1314.23,-1109.21 1435.9,-956.31 1364.91,-876.4 1303.49,-807.25 1063.09,-743.2 970.6,-743.2"/>
<polygon fill="black" stroke="black" points="1405.87,-1119.27 1415.63,-1124.28 1411.2,-1119.54 1415.53,-1119.77 1415.53,-1119.77 1415.53,-1119.77 1411.2,-1119.54 1416.09,-1115.29 1405.87,-1119.27"/>
<text text-anchor="start" x="1227.21" y="-1103.8" font-family="Arial" font-size="10.00">FOREIGN KEY (league_id) REFERENCES leagues (id)</text>
</g>
</g>
</svg>
