<?xml version="1.0" encoding="UTF-8" standalone="no"?>
<!DOCTYPE svg PUBLIC "-//W3C//DTD SVG 1.1//EN"
 "http://www.w3.org/Graphics/SVG/1.1/DTD/svg11.dtd">
<!-- Generated by graphviz version 12.1.2 (20240928.0832)
 -->
<!-- Title: leagues Pages: 1 -->
<svg width="1746pt" height="1314pt"
 viewBox="0.00 0.00 1745.83 1314.40" xmlns="http://www.w3.org/2000/svg" xmlns:xlink="http://www.w3.org/1999/xlink">
<g id="graph0" class="graph" transform="scale(1 1) rotate(0) translate(4 1310.4)">
<title>leagues</title>
<polygon fill="white" stroke="none" points="-4,4 -4,-1310.4 1741.83,-1310.4 1741.83,4 -4,4"/>
<!-- leagues -->
<g id="node1" class="node">
<title>leagues</title>
<polygon fill="#efefef" stroke="none" points="733.02,-727.8 733.02,-763.4 954.8,-763.4 954.8,-727.8 733.02,-727.8"/>
<polygon fill="none" stroke="black" points="733.02,-727.8 733.02,-763.4 954.8,-763.4 954.8,-727.8 733.02,-727.8"/>
<text text-anchor="start" x="754.68" y="-741.2" font-family="Arial Bold" font-size="18.00">leagues</text>
<text text-anchor="start" x="808.66" y="-741.2" font-family="Arial" font-size="14.00">    </text>
<text text-anchor="start" x="839.77" y="-741.2" font-family="Arial" font-size="14.00" fill="#666666">[BASE TABLE]</text>
<polygon fill="none" stroke="black" points="733.02,-697 733.02,-727.8 954.8,-727.8 954.8,-697 733.02,-697"/>
<text text-anchor="start" x="740.02" y="-709.2" font-family="Arial" font-size="14.00">id </text>
<text text-anchor="start" x="754.81" y="-709.2" font-family="Arial" font-size="14.00" fill="#666666">[bigint]</text>
<polygon fill="none" stroke="black" points="733.02,-666.2 733.02,-697 954.8,-697 954.8,-666.2 733.02,-666.2"/>
<text text-anchor="start" x="740.02" y="-678.4" font-family="Arial" font-size="14.00">organization_id </text>
<text text-anchor="start" x="838.87" y="-678.4" font-family="Arial" font-size="14.00" fill="#666666">[bigint]</text>
<polygon fill="none" stroke="black" points="733.02,-635.4 733.02,-666.2 954.8,-666.2 954.8,-635.4 733.02,-635.4"/>
<text text-anchor="start" x="740.02" y="-647.6" font-family="Arial" font-size="14.00">administrator_id </text>
<text text-anchor="start" x="843.51" y="-647.6" font-family="Arial" font-size="14.00" fill="#666666">[bigint]</text>
<polygon fill="none" stroke="black" points="733.02,-604.6 733.02,-635.4 954.8,-635.4 954.8,-604.6 733.02,-604.6"/>
<text text-anchor="start" x="740.02" y="-616.8" font-family="Arial" font-size="14.00">name </text>
<text text-anchor="start" x="778.93" y="-616.8" font-family="Arial" font-size="14.00" fill="#666666">[varchar(255)]</text>
<polygon fill="none" stroke="black" points="733.02,-573.8 733.02,-604.6 954.8,-604.6 954.8,-573.8 733.02,-573.8"/>
<text text-anchor="start" x="740.02" y="-586" font-family="Arial" font-size="14.00">start_at </text>
<text text-anchor="start" x="790.6" y="-586" font-family="Arial" font-size="14.00" fill="#666666">[datetime]</text>
<polygon fill="none" stroke="black" points="733.02,-543 733.02,-573.8 954.8,-573.8 954.8,-543 733.02,-543"/>
<text text-anchor="start" x="740.02" y="-555.2" font-family="Arial" font-size="14.00">end_at </text>
<text text-anchor="start" x="786.73" y="-555.2" font-family="Arial" font-size="14.00" fill="#666666">[datetime]</text>
<polygon fill="none" stroke="black" points="733.02,-512.2 733.02,-543 954.8,-543 954.8,-512.2 733.02,-512.2"/>
<text text-anchor="start" x="740.02" y="-524.4" font-family="Arial" font-size="14.00">is_deleted </text>
<text text-anchor="start" x="807.74" y="-524.4" font-family="Arial" font-size="14.00" fill="#666666">[tinyint(1)]</text>
<polygon fill="none" stroke="black" points="733.02,-481.4 733.02,-512.2 954.8,-512.2 954.8,-481.4 733.02,-481.4"/>
<text text-anchor="start" x="740.02" y="-493.6" font-family="Arial" font-size="14.00">max_round </text>
<text text-anchor="start" x="813.95" y="-493.6" font-family="Arial" font-size="14.00" fill="#666666">[varchar(255)]</text>
<polygon fill="none" stroke="black" points="733.02,-450.6 733.02,-481.4 954.8,-481.4 954.8,-450.6 733.02,-450.6"/>
<text text-anchor="start" x="740.02" y="-462.8" font-family="Arial" font-size="14.00">in_progress_round </text>
<text text-anchor="start" x="860.66" y="-462.8" font-family="Arial" font-size="14.00" fill="#666666">[varchar(255)]</text>
<polygon fill="none" stroke="black" points="733.02,-419.8 733.02,-450.6 954.8,-450.6 954.8,-419.8 733.02,-419.8"/>
<text text-anchor="start" x="740.02" y="-432" font-family="Arial" font-size="14.00">sport_type </text>
<text text-anchor="start" x="809.29" y="-432" font-family="Arial" font-size="14.00" fill="#666666">[varchar(20)]</text>
<polygon fill="none" stroke="black" points="733.02,-389 733.02,-419.8 954.8,-419.8 954.8,-389 733.02,-389"/>
<text text-anchor="start" x="740.02" y="-401.2" font-family="Arial" font-size="14.00">third_place_enabled </text>
<text text-anchor="start" x="870.02" y="-401.2" font-family="Arial" font-size="14.00" fill="#666666">[tinyint(1)]</text>
<polygon fill="none" stroke="black" stroke-width="3" points="731.52,-387.5 731.52,-764.9 956.3,-764.9 956.3,-387.5 731.52,-387.5"/>
</g>
<!-- organizations -->
<g id="node7" class="node">
<title>organizations</title>
<polygon fill="#efefef" stroke="none" points="564.18,-197.2 564.18,-232.8 799.64,-232.8 799.64,-197.2 564.18,-197.2"/>
<polygon fill="none" stroke="black" points="564.18,-197.2 564.18,-232.8 799.64,-232.8 799.64,-197.2 564.18,-197.2"/>
<text text-anchor="start" x="571.18" y="-210.6" font-family="Arial Bold" font-size="18.00">organizations</text>
<text text-anchor="start" x="668.15" y="-210.6" font-family="Arial" font-size="14.00">    </text>
<text text-anchor="start" x="699.27" y="-210.6" font-family="Arial" font-size="14.00" fill="#666666">[BASE TABLE]</text>
<polygon fill="none" stroke="black" points="564.18,-166.4 564.18,-197.2 799.64,-197.2 799.64,-166.4 564.18,-166.4"/>
<text text-anchor="start" x="571.18" y="-178.6" font-family="Arial" font-size="14.00">id </text>
<text text-anchor="start" x="585.97" y="-178.6" font-family="Arial" font-size="14.00" fill="#666666">[bigint]</text>
<polygon fill="none" stroke="black" points="564.18,-135.6 564.18,-166.4 799.64,-166.4 799.64,-135.6 564.18,-135.6"/>
<text text-anchor="start" x="571.18" y="-147.8" font-family="Arial" font-size="14.00">name </text>
<text text-anchor="start" x="610.09" y="-147.8" font-family="Arial" font-size="14.00" fill="#666666">[varchar(255)]</text>
<polygon fill="none" stroke="black" points="564.18,-104.8 564.18,-135.6 799.64,-135.6 799.64,-104.8 564.18,-104.8"/>
<text text-anchor="start" x="571.18" y="-117" font-family="Arial" font-size="14.00">student_number_digits </text>
<text text-anchor="start" x="716.72" y="-117" font-family="Arial" font-size="14.00" fill="#666666">[int]</text>
<polygon fill="none" stroke="black" points="564.18,-74 564.18,-104.8 799.64,-104.8 799.64,-74 564.18,-74"/>
<text text-anchor="start" x="571.18" y="-86.2" font-family="Arial" font-size="14.00">logo_image_url </text>
<text text-anchor="start" x="670.8" y="-86.2" font-family="Arial" font-size="14.00" fill="#666666">[varchar(255)]</text>
</g>
<!-- leagues&#45;&gt;organizations -->
<g id="edge6" class="edge">
<title>leagues:organization_id&#45;&gt;organizations:id</title>
<path fill="none" stroke="black" d="M721.84,-681.27C585.82,-672.27 676.64,-478.61 733.02,-342.8 749.1,-304.08 783.42,-314.66 799.64,-276 815.84,-237.39 842.51,-181.8 800.64,-181.8"/>
<polygon fill="black" stroke="black" points="721.7,-681.27 731.55,-686.09 727.03,-681.44 731.36,-681.58 731.36,-681.58 731.36,-681.58 727.03,-681.44 731.83,-677.09 721.7,-681.27"/>
<text text-anchor="start" x="428.81" y="-691.6" font-family="Arial" font-size="10.00">FOREIGN KEY (organization_id) REFERENCES organizations (id)</text>
</g>
<!-- members -->
<g id="node8" class="node">
<title>members</title>
<polygon fill="#efefef" stroke="none" points="903.68,-228 903.68,-263.6 1108.15,-263.6 1108.15,-228 903.68,-228"/>
<polygon fill="none" stroke="black" points="903.68,-228 903.68,-263.6 1108.15,-263.6 1108.15,-228 903.68,-228"/>
<text text-anchor="start" x="910.68" y="-241.4" font-family="Arial Bold" font-size="18.00">members</text>
<text text-anchor="start" x="976.66" y="-241.4" font-family="Arial" font-size="14.00">    </text>
<text text-anchor="start" x="1007.78" y="-241.4" font-family="Arial" font-size="14.00" fill="#666666">[BASE TABLE]</text>
<polygon fill="none" stroke="black" points="903.68,-197.2 903.68,-228 1108.15,-228 1108.15,-197.2 903.68,-197.2"/>
<text text-anchor="start" x="910.68" y="-209.4" font-family="Arial" font-size="14.00">id </text>
<text text-anchor="start" x="925.47" y="-209.4" font-family="Arial" font-size="14.00" fill="#666666">[bigint]</text>
<polygon fill="none" stroke="black" points="903.68,-166.4 903.68,-197.2 1108.15,-197.2 1108.15,-166.4 903.68,-166.4"/>
<text text-anchor="start" x="910.68" y="-178.6" font-family="Arial" font-size="14.00">organization_id </text>
<text text-anchor="start" x="1009.53" y="-178.6" font-family="Arial" font-size="14.00" fill="#666666">[bigint]</text>
<polygon fill="none" stroke="black" points="903.68,-135.6 903.68,-166.4 1108.15,-166.4 1108.15,-135.6 903.68,-135.6"/>
<text text-anchor="start" x="910.68" y="-147.8" font-family="Arial" font-size="14.00">email </text>
<text text-anchor="start" x="948.02" y="-147.8" font-family="Arial" font-size="14.00" fill="#666666">[varchar(255)]</text>
<polygon fill="none" stroke="black" points="903.68,-104.8 903.68,-135.6 1108.15,-135.6 1108.15,-104.8 903.68,-104.8"/>
<text text-anchor="start" x="910.68" y="-117" font-family="Arial" font-size="14.00">password </text>
<text text-anchor="start" x="974.49" y="-117" font-family="Arial" font-size="14.00" fill="#666666">[varchar(255)]</text>
<polygon fill="none" stroke="black" points="903.68,-74 903.68,-104.8 1108.15,-104.8 1108.15,-74 903.68,-74"/>
<text text-anchor="start" x="910.68" y="-86.2" font-family="Arial" font-size="14.00">is_administrator </text>
<text text-anchor="start" x="1013.38" y="-86.2" font-family="Arial" font-size="14.00" fill="#666666">[tinyint(1)]</text>
<polygon fill="none" stroke="black" points="903.68,-43.2 903.68,-74 1108.15,-74 1108.15,-43.2 903.68,-43.2"/>
<text text-anchor="start" x="910.68" y="-55.4" font-family="Arial" font-size="14.00">last_login </text>
<text text-anchor="start" x="973.72" y="-55.4" font-family="Arial" font-size="14.00" fill="#666666">[datetime]</text>
</g>
<!-- leagues&#45;&gt;members -->
<g id="edge7" class="edge">
<title>leagues:administrator_id&#45;&gt;members:id</title>
<path fill="none" stroke="black" d="M966.19,-650.42C1088.76,-641.01 1016.38,-461 954.8,-342.8 941.96,-318.15 916.61,-331.4 903.68,-306.8 884.2,-269.74 860.81,-212.6 902.68,-212.6"/>
<polygon fill="black" stroke="black" points="966.13,-650.42 955.97,-646.29 960.8,-650.62 956.47,-650.78 956.47,-650.78 956.47,-650.78 960.8,-650.62 956.3,-655.28 966.13,-650.42"/>
<text text-anchor="start" x="962.8" y="-660.8" font-family="Arial" font-size="10.00">FOREIGN KEY (administrator_id) REFERENCES members (id)</text>
</g>
<!-- bracket_matches -->
<g id="node2" class="node">
<title>bracket_matches</title>
<polygon fill="#efefef" stroke="none" points="43.2,-1166 43.2,-1201.6 302.63,-1201.6 302.63,-1166 43.2,-1166"/>
<polygon fill="none" stroke="black" points="43.2,-1166 43.2,-1201.6 302.63,-1201.6 302.63,-1166 43.2,-1166"/>
<text text-anchor="start" x="50.2" y="-1179.4" font-family="Arial Bold" font-size="18.00">bracket_matches</text>
<text text-anchor="start" x="171.14" y="-1179.4" font-family="Arial" font-size="14.00">    </text>
<text text-anchor="start" x="202.25" y="-1179.4" font-family="Arial" font-size="14.00" fill="#666666">[BASE TABLE]</text>
<polygon fill="none" stroke="black" points="43.2,-1135.2 43.2,-1166 302.63,-1166 302.63,-1135.2 43.2,-1135.2"/>
<text text-anchor="start" x="50.2" y="-1147.4" font-family="Arial" font-size="14.00">id </text>
<text text-anchor="start" x="64.99" y="-1147.4" font-family="Arial" font-size="14.00" fill="#666666">[bigint]</text>
<polygon fill="none" stroke="black" points="43.2,-1104.4 43.2,-1135.2 302.63,-1135.2 302.63,-1104.4 43.2,-1104.4"/>
<text text-anchor="start" x="50.2" y="-1116.6" font-family="Arial" font-size="14.00">league_id </text>
<text text-anchor="start" x="114.81" y="-1116.6" font-family="Arial" font-size="14.00" fill="#666666">[bigint]</text>
<polygon fill="none" stroke="black" points="43.2,-1073.6 43.2,-1104.4 302.63,-1104.4 302.63,-1073.6 43.2,-1073.6"/>
<text text-anchor="start" x="50.2" y="-1085.8" font-family="Arial" font-size="14.00">round </text>
<text text-anchor="start" x="89.9" y="-1085.8" font-family="Arial" font-size="14.00" fill="#666666">[varchar(255)]</text>
<polygon fill="none" stroke="black" points="43.2,-1042.8 43.2,-1073.6 302.63,-1073.6 302.63,-1042.8 43.2,-1042.8"/>
<text text-anchor="start" x="50.2" y="-1055" font-family="Arial" font-size="14.00">match_number </text>
<text text-anchor="start" x="147.47" y="-1055" font-family="Arial" font-size="14.00" fill="#666666">[int]</text>
<polygon fill="none" stroke="black" points="43.2,-1012 43.2,-1042.8 302.63,-1042.8 302.63,-1012 43.2,-1012"/>
<text text-anchor="start" x="50.2" y="-1024.2" font-family="Arial" font-size="14.00">team1_id </text>
<text text-anchor="start" x="111.68" y="-1024.2" font-family="Arial" font-size="14.00" fill="#666666">[bigint]</text>
<polygon fill="none" stroke="black" points="43.2,-981.2 43.2,-1012 302.63,-1012 302.63,-981.2 43.2,-981.2"/>
<text text-anchor="start" x="50.2" y="-993.4" font-family="Arial" font-size="14.00">team2_id </text>
<text text-anchor="start" x="111.68" y="-993.4" font-family="Arial" font-size="14.00" fill="#666666">[bigint]</text>
<polygon fill="none" stroke="black" points="43.2,-950.4 43.2,-981.2 302.63,-981.2 302.63,-950.4 43.2,-950.4"/>
<text text-anchor="start" x="50.2" y="-962.6" font-family="Arial" font-size="14.00">game_id </text>
<text text-anchor="start" x="107.79" y="-962.6" font-family="Arial" font-size="14.00" fill="#666666">[bigint]</text>
</g>
<!-- bracket_matches&#45;&gt;leagues -->
<g id="edge1" class="edge">
<title>bracket_matches:league_id&#45;&gt;leagues:id</title>
<path fill="none" stroke="black" d="M313.67,-1117.39C359.63,-1092.96 316.12,-889.86 353.91,-845.6 411.76,-777.85 642.94,-712.4 732.02,-712.4"/>
<polygon fill="black" stroke="black" points="313.68,-1117.39 302.9,-1115.35 308.49,-1118.63 304.28,-1119.64 304.28,-1119.64 304.28,-1119.64 308.49,-1118.63 305,-1124.1 313.68,-1117.39"/>
<text text-anchor="start" x="179.97" y="-1103.8" font-family="Arial" font-size="10.00">FOREIGN KEY (league_id) REFERENCES leagues (id)</text>
</g>
<!-- games -->
<g id="node3" class="node">
<title>games</title>
<polygon fill="#efefef" stroke="none" points="406.57,-1227.6 406.57,-1263.2 611.26,-1263.2 611.26,-1227.6 406.57,-1227.6"/>
<polygon fill="none" stroke="black" points="406.57,-1227.6 406.57,-1263.2 611.26,-1263.2 611.26,-1227.6 406.57,-1227.6"/>
<text text-anchor="start" x="423.68" y="-1241" font-family="Arial Bold" font-size="18.00">games</text>
<text text-anchor="start" x="469.66" y="-1241" font-family="Arial" font-size="14.00">    </text>
<text text-anchor="start" x="500.78" y="-1241" font-family="Arial" font-size="14.00" fill="#666666">[BASE TABLE]</text>
<polygon fill="none" stroke="black" points="406.57,-1196.8 406.57,-1227.6 611.26,-1227.6 611.26,-1196.8 406.57,-1196.8"/>
<text text-anchor="start" x="413.57" y="-1209" font-family="Arial" font-size="14.00">id </text>
<text text-anchor="start" x="428.36" y="-1209" font-family="Arial" font-size="14.00" fill="#666666">[bigint]</text>
<polygon fill="none" stroke="black" points="406.57,-1166 406.57,-1196.8 611.26,-1196.8 611.26,-1166 406.57,-1166"/>
<text text-anchor="start" x="413.57" y="-1178.2" font-family="Arial" font-size="14.00">administrator_id </text>
<text text-anchor="start" x="517.06" y="-1178.2" font-family="Arial" font-size="14.00" fill="#666666">[bigint]</text>
<polygon fill="none" stroke="black" points="406.57,-1135.2 406.57,-1166 611.26,-1166 611.26,-1135.2 406.57,-1135.2"/>
<text text-anchor="start" x="413.57" y="-1147.4" font-family="Arial" font-size="14.00">league_id </text>
<text text-anchor="start" x="478.18" y="-1147.4" font-family="Arial" font-size="14.00" fill="#666666">[bigint]</text>
<polygon fill="none" stroke="black" points="406.57,-1104.4 406.57,-1135.2 611.26,-1135.2 611.26,-1104.4 406.57,-1104.4"/>
<text text-anchor="start" x="413.57" y="-1116.6" font-family="Arial" font-size="14.00">start_time </text>
<text text-anchor="start" x="478.92" y="-1116.6" font-family="Arial" font-size="14.00" fill="#666666">[datetime]</text>
<polygon fill="none" stroke="black" points="406.57,-1073.6 406.57,-1104.4 611.26,-1104.4 611.26,-1073.6 406.57,-1073.6"/>
<text text-anchor="start" x="413.57" y="-1085.8" font-family="Arial" font-size="14.00">name </text>
<text text-anchor="start" x="452.48" y="-1085.8" font-family="Arial" font-size="14.00" fill="#666666">[varchar(255)]</text>
<polygon fill="none" stroke="black" points="406.57,-1042.8 406.57,-1073.6 611.26,-1073.6 611.26,-1042.8 406.57,-1042.8"/>
<text text-anchor="start" x="413.57" y="-1055" font-family="Arial" font-size="14.00">video_id </text>
<text text-anchor="start" x="469.61" y="-1055" font-family="Arial" font-size="14.00" fill="#666666">[varchar(255)]</text>
<polygon fill="none" stroke="black" points="406.57,-1012 406.57,-1042.8 611.26,-1042.8 611.26,-1012 406.57,-1012"/>
<text text-anchor="start" x="413.57" y="-1024.2" font-family="Arial" font-size="14.00">quarter_changed_at </text>
<text text-anchor="start" x="542.78" y="-1024.2" font-family="Arial" font-size="14.00" fill="#666666">[datetime]</text>
<polygon fill="none" stroke="black" points="406.57,-981.2 406.57,-1012 611.26,-1012 611.26,-981.2 406.57,-981.2"/>
<text text-anchor="start" x="413.57" y="-993.4" font-family="Arial" font-size="14.00">game_quarter </text>
<text text-anchor="start" x="504.62" y="-993.4" font-family="Arial" font-size="14.00" fill="#666666">[varchar(255)]</text>
<polygon fill="none" stroke="black" points="406.57,-950.4 406.57,-981.2 611.26,-981.2 611.26,-950.4 406.57,-950.4"/>
<text text-anchor="start" x="413.57" y="-962.6" font-family="Arial" font-size="14.00">state </text>
<text text-anchor="start" x="447.81" y="-962.6" font-family="Arial" font-size="14.00" fill="#666666">[varchar(255)]</text>
<polygon fill="none" stroke="black" points="406.57,-919.6 406.57,-950.4 611.26,-950.4 611.26,-919.6 406.57,-919.6"/>
<text text-anchor="start" x="413.57" y="-931.8" font-family="Arial" font-size="14.00">round </text>
<text text-anchor="start" x="453.27" y="-931.8" font-family="Arial" font-size="14.00" fill="#666666">[varchar(255)]</text>
<polygon fill="none" stroke="black" points="406.57,-888.8 406.57,-919.6 611.26,-919.6 611.26,-888.8 406.57,-888.8"/>
<text text-anchor="start" x="413.57" y="-901" font-family="Arial" font-size="14.00">is_pk_taken </text>
<text text-anchor="start" x="492.18" y="-901" font-family="Arial" font-size="14.00" fill="#666666">[tinyint(1)]</text>
</g>
<!-- games&#45;&gt;leagues -->
<g id="edge2" class="edge">
<title>games:league_id&#45;&gt;leagues:id</title>
<path fill="none" stroke="black" d="M622.26,-1148.66C677.08,-1125.8 643.42,-907.41 663.91,-845.6 684.84,-782.49 665.53,-712.4 732.02,-712.4"/>
<polygon fill="black" stroke="black" points="622.4,-1148.63 611.73,-1146.12 617.17,-1149.65 612.91,-1150.47 612.91,-1150.47 612.91,-1150.47 617.17,-1149.65 613.44,-1154.95 622.4,-1148.63"/>
<text text-anchor="start" x="619.26" y="-1160.6" font-family="Arial" font-size="10.00">FOREIGN KEY (league_id) REFERENCES leagues (id)</text>
</g>
<!-- league_statistics -->
<g id="node4" class="node">
<title>league_statistics</title>
<polygon fill="#efefef" stroke="none" points="715.69,-1150.6 715.69,-1186.2 972.14,-1186.2 972.14,-1150.6 715.69,-1150.6"/>
<polygon fill="none" stroke="black" points="715.69,-1150.6 715.69,-1186.2 972.14,-1186.2 972.14,-1150.6 715.69,-1150.6"/>
<text text-anchor="start" x="722.69" y="-1164" font-family="Arial Bold" font-size="18.00">league_statistics</text>
<text text-anchor="start" x="840.65" y="-1164" font-family="Arial" font-size="14.00">    </text>
<text text-anchor="start" x="871.77" y="-1164" font-family="Arial" font-size="14.00" fill="#666666">[BASE TABLE]</text>
<polygon fill="none" stroke="black" points="715.69,-1119.8 715.69,-1150.6 972.14,-1150.6 972.14,-1119.8 715.69,-1119.8"/>
<text text-anchor="start" x="722.69" y="-1132" font-family="Arial" font-size="14.00">id </text>
<text text-anchor="start" x="737.47" y="-1132" font-family="Arial" font-size="14.00" fill="#666666">[bigint]</text>
<polygon fill="none" stroke="black" points="715.69,-1089 715.69,-1119.8 972.14,-1119.8 972.14,-1089 715.69,-1089"/>
<text text-anchor="start" x="722.69" y="-1101.2" font-family="Arial" font-size="14.00">league_id </text>
<text text-anchor="start" x="787.3" y="-1101.2" font-family="Arial" font-size="14.00" fill="#666666">[bigint]</text>
<polygon fill="none" stroke="black" points="715.69,-1058.2 715.69,-1089 972.14,-1089 972.14,-1058.2 715.69,-1058.2"/>
<text text-anchor="start" x="722.69" y="-1070.4" font-family="Arial" font-size="14.00">first_winner_team_id </text>
<text text-anchor="start" x="855.75" y="-1070.4" font-family="Arial" font-size="14.00" fill="#666666">[bigint]</text>
<polygon fill="none" stroke="black" points="715.69,-1027.4 715.69,-1058.2 972.14,-1058.2 972.14,-1027.4 715.69,-1027.4"/>
<text text-anchor="start" x="722.69" y="-1039.6" font-family="Arial" font-size="14.00">second_winner_team_id </text>
<text text-anchor="start" x="878.34" y="-1039.6" font-family="Arial" font-size="14.00" fill="#666666">[bigint]</text>
<polygon fill="none" stroke="black" points="715.69,-996.6 715.69,-1027.4 972.14,-1027.4 972.14,-996.6 715.69,-996.6"/>
<text text-anchor="start" x="722.69" y="-1008.8" font-family="Arial" font-size="14.00">most_cheered_team_id </text>
<text text-anchor="start" x="872.88" y="-1008.8" font-family="Arial" font-size="14.00" fill="#666666">[bigint]</text>
<polygon fill="none" stroke="black" points="715.69,-965.8 715.69,-996.6 972.14,-996.6 972.14,-965.8 715.69,-965.8"/>
<text text-anchor="start" x="722.69" y="-978" font-family="Arial" font-size="14.00">most_cheer_talks_team_id </text>
<text text-anchor="start" x="893.88" y="-978" font-family="Arial" font-size="14.00" fill="#666666">[bigint]</text>
</g>
<!-- league_statistics&#45;&gt;leagues -->
<g id="edge3" class="edge">
<title>league_statistics:league_id&#45;&gt;leagues:id</title>
<path fill="none" stroke="black" d="M981.65,-1098.55C1014.1,-1049.79 996.25,-712.4 955.8,-712.4"/>
<polygon fill="black" stroke="black" points="981.66,-1098.55 970.87,-1100.5 977.26,-1101.57 973.69,-1104.02 973.69,-1104.02 973.69,-1104.02 977.26,-1101.57 975.96,-1107.92 981.66,-1098.55"/>
<text text-anchor="start" x="849.49" y="-1088.4" font-family="Arial" font-size="10.00">FOREIGN KEY (league_id) REFERENCES leagues (id)</text>
</g>
<!-- league_teams -->
<g id="node5" class="node">
<title>league_teams</title>
<polygon fill="#efefef" stroke="none" points="1076.69,-1150.6 1076.69,-1186.2 1313.14,-1186.2 1313.14,-1150.6 1076.69,-1150.6"/>
<polygon fill="none" stroke="black" points="1076.69,-1150.6 1076.69,-1186.2 1313.14,-1186.2 1313.14,-1150.6 1076.69,-1150.6"/>
<text text-anchor="start" x="1083.69" y="-1164" font-family="Arial Bold" font-size="18.00">league_teams</text>
<text text-anchor="start" x="1181.65" y="-1164" font-family="Arial" font-size="14.00">    </text>
<text text-anchor="start" x="1212.76" y="-1164" font-family="Arial" font-size="14.00" fill="#666666">[BASE TABLE]</text>
<polygon fill="none" stroke="black" points="1076.69,-1119.8 1076.69,-1150.6 1313.14,-1150.6 1313.14,-1119.8 1076.69,-1119.8"/>
<text text-anchor="start" x="1083.69" y="-1132" font-family="Arial" font-size="14.00">id </text>
<text text-anchor="start" x="1098.48" y="-1132" font-family="Arial" font-size="14.00" fill="#666666">[bigint]</text>
<polygon fill="none" stroke="black" points="1076.69,-1089 1076.69,-1119.8 1313.14,-1119.8 1313.14,-1089 1076.69,-1089"/>
<text text-anchor="start" x="1083.69" y="-1101.2" font-family="Arial" font-size="14.00">league_id </text>
<text text-anchor="start" x="1148.3" y="-1101.2" font-family="Arial" font-size="14.00" fill="#666666">[bigint]</text>
<polygon fill="none" stroke="black" points="1076.69,-1058.2 1076.69,-1089 1313.14,-1089 1313.14,-1058.2 1076.69,-1058.2"/>
<text text-anchor="start" x="1083.69" y="-1070.4" font-family="Arial" font-size="14.00">team_id </text>
<text text-anchor="start" x="1137.39" y="-1070.4" font-family="Arial" font-size="14.00" fill="#666666">[bigint]</text>
<polygon fill="none" stroke="black" points="1076.69,-1027.4 1076.69,-1058.2 1313.14,-1058.2 1313.14,-1027.4 1076.69,-1027.4"/>
<text text-anchor="start" x="1083.69" y="-1039.6" font-family="Arial" font-size="14.00">total_cheer_count </text>
<text text-anchor="start" x="1198.88" y="-1039.6" font-family="Arial" font-size="14.00" fill="#666666">[int]</text>
<polygon fill="none" stroke="black" points="1076.69,-996.6 1076.69,-1027.4 1313.14,-1027.4 1313.14,-996.6 1076.69,-996.6"/>
<text text-anchor="start" x="1083.69" y="-1008.8" font-family="Arial" font-size="14.00">total_talk_count </text>
<text text-anchor="start" x="1185.65" y="-1008.8" font-family="Arial" font-size="14.00" fill="#666666">[int]</text>
<polygon fill="none" stroke="black" points="1076.69,-965.8 1076.69,-996.6 1313.14,-996.6 1313.14,-965.8 1076.69,-965.8"/>
<text text-anchor="start" x="1083.69" y="-978" font-family="Arial" font-size="14.00">ranking </text>
<text text-anchor="start" x="1133.5" y="-978" font-family="Arial" font-size="14.00" fill="#666666">[int]</text>
</g>
<!-- league_teams&#45;&gt;leagues -->
<g id="edge4" class="edge">
<title>league_teams:league_id&#45;&gt;leagues:id</title>
<path fill="none" stroke="black" d="M1065.66,-1102.1C1020.13,-1079.55 1041.99,-897.53 1023.91,-845.6 1002.05,-782.81 1022.29,-712.4 955.8,-712.4"/>
<polygon fill="black" stroke="black" points="1065.62,-1102.09 1074.36,-1108.71 1070.82,-1103.28 1075.04,-1104.25 1075.04,-1104.25 1075.04,-1104.25 1070.82,-1103.28 1076.37,-1099.94 1065.62,-1102.09"/>
<text text-anchor="start" x="821.38" y="-1114.4" font-family="Arial" font-size="10.00">FOREIGN KEY (league_id) REFERENCES leagues (id)</text>
</g>
<!-- league_top_scorers -->
<g id="node6" class="node">
<title>league_top_scorers</title>
<polygon fill="#efefef" stroke="none" points="1417.2,-1135.2 1417.2,-1170.8 1694.63,-1170.8 1694.63,-1135.2 1417.2,-1135.2"/>
<polygon fill="none" stroke="black" points="1417.2,-1135.2 1417.2,-1170.8 1694.63,-1170.8 1694.63,-1135.2 1417.2,-1135.2"/>
<text text-anchor="start" x="1424.2" y="-1148.6" font-family="Arial Bold" font-size="18.00">league_top_scorers</text>
<text text-anchor="start" x="1563.14" y="-1148.6" font-family="Arial" font-size="14.00">    </text>
<text text-anchor="start" x="1594.26" y="-1148.6" font-family="Arial" font-size="14.00" fill="#666666">[BASE TABLE]</text>
<polygon fill="none" stroke="black" points="1417.2,-1104.4 1417.2,-1135.2 1694.63,-1135.2 1694.63,-1104.4 1417.2,-1104.4"/>
<text text-anchor="start" x="1424.2" y="-1116.6" font-family="Arial" font-size="14.00">id </text>
<text text-anchor="start" x="1438.98" y="-1116.6" font-family="Arial" font-size="14.00" fill="#666666">[bigint]</text>
<polygon fill="none" stroke="black" points="1417.2,-1073.6 1417.2,-1104.4 1694.63,-1104.4 1694.63,-1073.6 1417.2,-1073.6"/>
<text text-anchor="start" x="1424.2" y="-1085.8" font-family="Arial" font-size="14.00">league_id </text>
<text text-anchor="start" x="1488.81" y="-1085.8" font-family="Arial" font-size="14.00" fill="#666666">[bigint]</text>
<polygon fill="none" stroke="black" points="1417.2,-1042.8 1417.2,-1073.6 1694.63,-1073.6 1694.63,-1042.8 1417.2,-1042.8"/>
<text text-anchor="start" x="1424.2" y="-1055" font-family="Arial" font-size="14.00">player_id </text>
<text text-anchor="start" x="1484.9" y="-1055" font-family="Arial" font-size="14.00" fill="#666666">[bigint]</text>
<polygon fill="none" stroke="black" points="1417.2,-1012 1417.2,-1042.8 1694.63,-1042.8 1694.63,-1012 1417.2,-1012"/>
<text text-anchor="start" x="1424.2" y="-1024.2" font-family="Arial" font-size="14.00">ranking </text>
<text text-anchor="start" x="1474" y="-1024.2" font-family="Arial" font-size="14.00" fill="#666666">[int]</text>
<polygon fill="none" stroke="black" points="1417.2,-981.2 1417.2,-1012 1694.63,-1012 1694.63,-981.2 1417.2,-981.2"/>
<text text-anchor="start" x="1424.2" y="-993.4" font-family="Arial" font-size="14.00">goal_count </text>
<text text-anchor="start" x="1496.59" y="-993.4" font-family="Arial" font-size="14.00" fill="#666666">[int]</text>
</g>
<!-- league_top_scorers&#45;&gt;leagues -->
<g id="edge5" class="edge">
<title>league_top_scorers:league_id&#45;&gt;leagues:id</title>
<path fill="none" stroke="black" d="M1405.97,-1088.48C1314.26,-1078.39 1436.34,-925.11 1364.91,-845.6 1301.02,-774.47 1051.41,-712.4 955.8,-712.4"/>
<polygon fill="black" stroke="black" points="1405.87,-1088.47 1415.63,-1093.48 1411.2,-1088.74 1415.53,-1088.97 1415.53,-1088.97 1415.53,-1088.97 1411.2,-1088.74 1416.09,-1084.49 1405.87,-1088.47"/>
<text text-anchor="start" x="1227.21" y="-1073" font-family="Arial" font-size="10.00">FOREIGN KEY (league_id) REFERENCES leagues (id)</text>
</g>
</g>
</svg>
