<?xml version="1.0" encoding="UTF-8" standalone="no"?>
<!DOCTYPE svg PUBLIC "-//W3C//DTD SVG 1.1//EN"
 "http://www.w3.org/Graphics/SVG/1.1/DTD/svg11.dtd">
<!-- Generated by graphviz version 12.1.2 (20240928.0832)
 -->
<!-- Title: leagues Pages: 1 -->
<svg width="1382pt" height="1284pt"
 viewBox="0.00 0.00 1382.46 1283.60" xmlns="http://www.w3.org/2000/svg" xmlns:xlink="http://www.w3.org/1999/xlink">
<g id="graph0" class="graph" transform="scale(1 1) rotate(0) translate(4 1279.6)">
<title>leagues</title>
<polygon fill="white" stroke="none" points="-4,4 -4,-1279.6 1378.46,-1279.6 1378.46,4 -4,4"/>
<!-- leagues -->
<g id="node1" class="node">
<title>leagues</title>
<polygon fill="#efefef" stroke="none" points="544.66,-697 544.66,-732.6 766.43,-732.6 766.43,-697 544.66,-697"/>
<polygon fill="none" stroke="black" points="544.66,-697 544.66,-732.6 766.43,-732.6 766.43,-697 544.66,-697"/>
<text text-anchor="start" x="566.31" y="-710.4" font-family="Arial Bold" font-size="18.00">leagues</text>
<text text-anchor="start" x="620.29" y="-710.4" font-family="Arial" font-size="14.00">    </text>
<text text-anchor="start" x="651.4" y="-710.4" font-family="Arial" font-size="14.00" fill="#666666">[BASE TABLE]</text>
<polygon fill="none" stroke="black" points="544.66,-666.2 544.66,-697 766.43,-697 766.43,-666.2 544.66,-666.2"/>
<text text-anchor="start" x="551.66" y="-678.4" font-family="Arial" font-size="14.00">id </text>
<text text-anchor="start" x="566.44" y="-678.4" font-family="Arial" font-size="14.00" fill="#666666">[bigint]</text>
<polygon fill="none" stroke="black" points="544.66,-635.4 544.66,-666.2 766.43,-666.2 766.43,-635.4 544.66,-635.4"/>
<text text-anchor="start" x="551.66" y="-647.6" font-family="Arial" font-size="14.00">organization_id </text>
<text text-anchor="start" x="650.5" y="-647.6" font-family="Arial" font-size="14.00" fill="#666666">[bigint]</text>
<polygon fill="none" stroke="black" points="544.66,-604.6 544.66,-635.4 766.43,-635.4 766.43,-604.6 544.66,-604.6"/>
<text text-anchor="start" x="551.66" y="-616.8" font-family="Arial" font-size="14.00">administrator_id </text>
<text text-anchor="start" x="655.14" y="-616.8" font-family="Arial" font-size="14.00" fill="#666666">[bigint]</text>
<polygon fill="none" stroke="black" points="544.66,-573.8 544.66,-604.6 766.43,-604.6 766.43,-573.8 544.66,-573.8"/>
<text text-anchor="start" x="551.66" y="-586" font-family="Arial" font-size="14.00">name </text>
<text text-anchor="start" x="590.57" y="-586" font-family="Arial" font-size="14.00" fill="#666666">[varchar(255)]</text>
<polygon fill="none" stroke="black" points="544.66,-543 544.66,-573.8 766.43,-573.8 766.43,-543 544.66,-543"/>
<text text-anchor="start" x="551.66" y="-555.2" font-family="Arial" font-size="14.00">start_at </text>
<text text-anchor="start" x="602.23" y="-555.2" font-family="Arial" font-size="14.00" fill="#666666">[datetime]</text>
<polygon fill="none" stroke="black" points="544.66,-512.2 544.66,-543 766.43,-543 766.43,-512.2 544.66,-512.2"/>
<text text-anchor="start" x="551.66" y="-524.4" font-family="Arial" font-size="14.00">end_at </text>
<text text-anchor="start" x="598.37" y="-524.4" font-family="Arial" font-size="14.00" fill="#666666">[datetime]</text>
<polygon fill="none" stroke="black" points="544.66,-481.4 544.66,-512.2 766.43,-512.2 766.43,-481.4 544.66,-481.4"/>
<text text-anchor="start" x="551.66" y="-493.6" font-family="Arial" font-size="14.00">is_deleted </text>
<text text-anchor="start" x="619.37" y="-493.6" font-family="Arial" font-size="14.00" fill="#666666">[tinyint(1)]</text>
<polygon fill="none" stroke="black" points="544.66,-450.6 544.66,-481.4 766.43,-481.4 766.43,-450.6 544.66,-450.6"/>
<text text-anchor="start" x="551.66" y="-462.8" font-family="Arial" font-size="14.00">max_round </text>
<text text-anchor="start" x="625.59" y="-462.8" font-family="Arial" font-size="14.00" fill="#666666">[varchar(255)]</text>
<polygon fill="none" stroke="black" points="544.66,-419.8 544.66,-450.6 766.43,-450.6 766.43,-419.8 544.66,-419.8"/>
<text text-anchor="start" x="551.66" y="-432" font-family="Arial" font-size="14.00">in_progress_round </text>
<text text-anchor="start" x="672.29" y="-432" font-family="Arial" font-size="14.00" fill="#666666">[varchar(255)]</text>
<polygon fill="none" stroke="black" points="544.66,-389 544.66,-419.8 766.43,-419.8 766.43,-389 544.66,-389"/>
<text text-anchor="start" x="551.66" y="-401.2" font-family="Arial" font-size="14.00">sport_type </text>
<text text-anchor="start" x="620.92" y="-401.2" font-family="Arial" font-size="14.00" fill="#666666">[varchar(20)]</text>
<polygon fill="none" stroke="black" stroke-width="3" points="543.16,-387.5 543.16,-734.1 767.93,-734.1 767.93,-387.5 543.16,-387.5"/>
</g>
<!-- organizations -->
<g id="node6" class="node">
<title>organizations</title>
<polygon fill="#efefef" stroke="none" points="375.81,-197.2 375.81,-232.8 611.27,-232.8 611.27,-197.2 375.81,-197.2"/>
<polygon fill="none" stroke="black" points="375.81,-197.2 375.81,-232.8 611.27,-232.8 611.27,-197.2 375.81,-197.2"/>
<text text-anchor="start" x="382.81" y="-210.6" font-family="Arial Bold" font-size="18.00">organizations</text>
<text text-anchor="start" x="479.78" y="-210.6" font-family="Arial" font-size="14.00">    </text>
<text text-anchor="start" x="510.9" y="-210.6" font-family="Arial" font-size="14.00" fill="#666666">[BASE TABLE]</text>
<polygon fill="none" stroke="black" points="375.81,-166.4 375.81,-197.2 611.27,-197.2 611.27,-166.4 375.81,-166.4"/>
<text text-anchor="start" x="382.81" y="-178.6" font-family="Arial" font-size="14.00">id </text>
<text text-anchor="start" x="397.6" y="-178.6" font-family="Arial" font-size="14.00" fill="#666666">[bigint]</text>
<polygon fill="none" stroke="black" points="375.81,-135.6 375.81,-166.4 611.27,-166.4 611.27,-135.6 375.81,-135.6"/>
<text text-anchor="start" x="382.81" y="-147.8" font-family="Arial" font-size="14.00">name </text>
<text text-anchor="start" x="421.72" y="-147.8" font-family="Arial" font-size="14.00" fill="#666666">[varchar(255)]</text>
<polygon fill="none" stroke="black" points="375.81,-104.8 375.81,-135.6 611.27,-135.6 611.27,-104.8 375.81,-104.8"/>
<text text-anchor="start" x="382.81" y="-117" font-family="Arial" font-size="14.00">student_number_digits </text>
<text text-anchor="start" x="528.35" y="-117" font-family="Arial" font-size="14.00" fill="#666666">[int]</text>
<polygon fill="none" stroke="black" points="375.81,-74 375.81,-104.8 611.27,-104.8 611.27,-74 375.81,-74"/>
<text text-anchor="start" x="382.81" y="-86.2" font-family="Arial" font-size="14.00">logo_image_url </text>
<text text-anchor="start" x="482.43" y="-86.2" font-family="Arial" font-size="14.00" fill="#666666">[varchar(255)]</text>
</g>
<!-- leagues&#45;&gt;organizations -->
<g id="edge5" class="edge">
<title>leagues:organization_id&#45;&gt;organizations:id</title>
<path fill="none" stroke="black" d="M533.29,-650.43C411.25,-641.26 493.53,-465.89 544.66,-342.8 560.74,-304.08 595.05,-314.66 611.27,-276 627.48,-237.39 654.14,-181.8 612.27,-181.8"/>
<polygon fill="black" stroke="black" points="533.33,-650.43 543.16,-655.28 538.66,-650.62 542.99,-650.78 542.99,-650.78 542.99,-650.78 538.66,-650.62 543.48,-646.29 533.33,-650.43"/>
<text text-anchor="start" x="240.44" y="-660.8" font-family="Arial" font-size="10.00">FOREIGN KEY (organization_id) REFERENCES organizations (id)</text>
</g>
<!-- members -->
<g id="node7" class="node">
<title>members</title>
<polygon fill="#efefef" stroke="none" points="715.31,-228 715.31,-263.6 919.78,-263.6 919.78,-228 715.31,-228"/>
<polygon fill="none" stroke="black" points="715.31,-228 715.31,-263.6 919.78,-263.6 919.78,-228 715.31,-228"/>
<text text-anchor="start" x="722.31" y="-241.4" font-family="Arial Bold" font-size="18.00">members</text>
<text text-anchor="start" x="788.29" y="-241.4" font-family="Arial" font-size="14.00">    </text>
<text text-anchor="start" x="819.41" y="-241.4" font-family="Arial" font-size="14.00" fill="#666666">[BASE TABLE]</text>
<polygon fill="none" stroke="black" points="715.31,-197.2 715.31,-228 919.78,-228 919.78,-197.2 715.31,-197.2"/>
<text text-anchor="start" x="722.31" y="-209.4" font-family="Arial" font-size="14.00">id </text>
<text text-anchor="start" x="737.1" y="-209.4" font-family="Arial" font-size="14.00" fill="#666666">[bigint]</text>
<polygon fill="none" stroke="black" points="715.31,-166.4 715.31,-197.2 919.78,-197.2 919.78,-166.4 715.31,-166.4"/>
<text text-anchor="start" x="722.31" y="-178.6" font-family="Arial" font-size="14.00">organization_id </text>
<text text-anchor="start" x="821.16" y="-178.6" font-family="Arial" font-size="14.00" fill="#666666">[bigint]</text>
<polygon fill="none" stroke="black" points="715.31,-135.6 715.31,-166.4 919.78,-166.4 919.78,-135.6 715.31,-135.6"/>
<text text-anchor="start" x="722.31" y="-147.8" font-family="Arial" font-size="14.00">email </text>
<text text-anchor="start" x="759.65" y="-147.8" font-family="Arial" font-size="14.00" fill="#666666">[varchar(255)]</text>
<polygon fill="none" stroke="black" points="715.31,-104.8 715.31,-135.6 919.78,-135.6 919.78,-104.8 715.31,-104.8"/>
<text text-anchor="start" x="722.31" y="-117" font-family="Arial" font-size="14.00">password </text>
<text text-anchor="start" x="786.12" y="-117" font-family="Arial" font-size="14.00" fill="#666666">[varchar(255)]</text>
<polygon fill="none" stroke="black" points="715.31,-74 715.31,-104.8 919.78,-104.8 919.78,-74 715.31,-74"/>
<text text-anchor="start" x="722.31" y="-86.2" font-family="Arial" font-size="14.00">is_administrator </text>
<text text-anchor="start" x="825.01" y="-86.2" font-family="Arial" font-size="14.00" fill="#666666">[tinyint(1)]</text>
<polygon fill="none" stroke="black" points="715.31,-43.2 715.31,-74 919.78,-74 919.78,-43.2 715.31,-43.2"/>
<text text-anchor="start" x="722.31" y="-55.4" font-family="Arial" font-size="14.00">last_login </text>
<text text-anchor="start" x="785.35" y="-55.4" font-family="Arial" font-size="14.00" fill="#666666">[datetime]</text>
</g>
<!-- leagues&#45;&gt;members -->
<g id="edge6" class="edge">
<title>leagues:administrator_id&#45;&gt;members:id</title>
<path fill="none" stroke="black" d="M777.78,-619.57C886.7,-610.21 821.7,-448.85 766.43,-342.8 753.59,-318.16 728.24,-331.4 715.31,-306.8 695.83,-269.74 672.44,-212.6 714.31,-212.6"/>
<polygon fill="black" stroke="black" points="777.76,-619.57 767.58,-615.49 772.43,-619.79 768.1,-619.97 768.1,-619.97 768.1,-619.97 772.43,-619.79 767.95,-624.48 777.76,-619.57"/>
<text text-anchor="start" x="774.43" y="-630" font-family="Arial" font-size="10.00">FOREIGN KEY (administrator_id) REFERENCES members (id)</text>
</g>
<!-- games -->
<g id="node2" class="node">
<title>games</title>
<polygon fill="#efefef" stroke="none" points="43.2,-1196.8 43.2,-1232.4 247.89,-1232.4 247.89,-1196.8 43.2,-1196.8"/>
<polygon fill="none" stroke="black" points="43.2,-1196.8 43.2,-1232.4 247.89,-1232.4 247.89,-1196.8 43.2,-1196.8"/>
<text text-anchor="start" x="60.31" y="-1210.2" font-family="Arial Bold" font-size="18.00">games</text>
<text text-anchor="start" x="106.29" y="-1210.2" font-family="Arial" font-size="14.00">    </text>
<text text-anchor="start" x="137.41" y="-1210.2" font-family="Arial" font-size="14.00" fill="#666666">[BASE TABLE]</text>
<polygon fill="none" stroke="black" points="43.2,-1166 43.2,-1196.8 247.89,-1196.8 247.89,-1166 43.2,-1166"/>
<text text-anchor="start" x="50.2" y="-1178.2" font-family="Arial" font-size="14.00">id </text>
<text text-anchor="start" x="64.99" y="-1178.2" font-family="Arial" font-size="14.00" fill="#666666">[bigint]</text>
<polygon fill="none" stroke="black" points="43.2,-1135.2 43.2,-1166 247.89,-1166 247.89,-1135.2 43.2,-1135.2"/>
<text text-anchor="start" x="50.2" y="-1147.4" font-family="Arial" font-size="14.00">administrator_id </text>
<text text-anchor="start" x="153.69" y="-1147.4" font-family="Arial" font-size="14.00" fill="#666666">[bigint]</text>
<polygon fill="none" stroke="black" points="43.2,-1104.4 43.2,-1135.2 247.89,-1135.2 247.89,-1104.4 43.2,-1104.4"/>
<text text-anchor="start" x="50.2" y="-1116.6" font-family="Arial" font-size="14.00">league_id </text>
<text text-anchor="start" x="114.81" y="-1116.6" font-family="Arial" font-size="14.00" fill="#666666">[bigint]</text>
<polygon fill="none" stroke="black" points="43.2,-1073.6 43.2,-1104.4 247.89,-1104.4 247.89,-1073.6 43.2,-1073.6"/>
<text text-anchor="start" x="50.2" y="-1085.8" font-family="Arial" font-size="14.00">start_time </text>
<text text-anchor="start" x="115.55" y="-1085.8" font-family="Arial" font-size="14.00" fill="#666666">[datetime]</text>
<polygon fill="none" stroke="black" points="43.2,-1042.8 43.2,-1073.6 247.89,-1073.6 247.89,-1042.8 43.2,-1042.8"/>
<text text-anchor="start" x="50.2" y="-1055" font-family="Arial" font-size="14.00">name </text>
<text text-anchor="start" x="89.11" y="-1055" font-family="Arial" font-size="14.00" fill="#666666">[varchar(255)]</text>
<polygon fill="none" stroke="black" points="43.2,-1012 43.2,-1042.8 247.89,-1042.8 247.89,-1012 43.2,-1012"/>
<text text-anchor="start" x="50.2" y="-1024.2" font-family="Arial" font-size="14.00">video_id </text>
<text text-anchor="start" x="106.24" y="-1024.2" font-family="Arial" font-size="14.00" fill="#666666">[varchar(255)]</text>
<polygon fill="none" stroke="black" points="43.2,-981.2 43.2,-1012 247.89,-1012 247.89,-981.2 43.2,-981.2"/>
<text text-anchor="start" x="50.2" y="-993.4" font-family="Arial" font-size="14.00">quarter_changed_at </text>
<text text-anchor="start" x="179.41" y="-993.4" font-family="Arial" font-size="14.00" fill="#666666">[datetime]</text>
<polygon fill="none" stroke="black" points="43.2,-950.4 43.2,-981.2 247.89,-981.2 247.89,-950.4 43.2,-950.4"/>
<text text-anchor="start" x="50.2" y="-962.6" font-family="Arial" font-size="14.00">game_quarter </text>
<text text-anchor="start" x="141.25" y="-962.6" font-family="Arial" font-size="14.00" fill="#666666">[varchar(255)]</text>
<polygon fill="none" stroke="black" points="43.2,-919.6 43.2,-950.4 247.89,-950.4 247.89,-919.6 43.2,-919.6"/>
<text text-anchor="start" x="50.2" y="-931.8" font-family="Arial" font-size="14.00">state </text>
<text text-anchor="start" x="84.44" y="-931.8" font-family="Arial" font-size="14.00" fill="#666666">[varchar(255)]</text>
<polygon fill="none" stroke="black" points="43.2,-888.8 43.2,-919.6 247.89,-919.6 247.89,-888.8 43.2,-888.8"/>
<text text-anchor="start" x="50.2" y="-901" font-family="Arial" font-size="14.00">round </text>
<text text-anchor="start" x="89.9" y="-901" font-family="Arial" font-size="14.00" fill="#666666">[varchar(255)]</text>
<polygon fill="none" stroke="black" points="43.2,-858 43.2,-888.8 247.89,-888.8 247.89,-858 43.2,-858"/>
<text text-anchor="start" x="50.2" y="-870.2" font-family="Arial" font-size="14.00">is_pk_taken </text>
<text text-anchor="start" x="128.81" y="-870.2" font-family="Arial" font-size="14.00" fill="#666666">[tinyint(1)]</text>
</g>
<!-- games&#45;&gt;leagues -->
<g id="edge1" class="edge">
<title>games:league_id&#45;&gt;leagues:id</title>
<path fill="none" stroke="black" d="M259.08,-1117.64C311.69,-1093.14 262.86,-867.74 300.54,-814.8 372,-714.43 420.45,-681.6 543.66,-681.6"/>
<polygon fill="black" stroke="black" points="259,-1117.65 248.28,-1115.33 253.78,-1118.76 249.54,-1119.66 249.54,-1119.66 249.54,-1119.66 253.78,-1118.76 250.15,-1124.13 259,-1117.65"/>
<text text-anchor="start" x="125.23" y="-1103.8" font-family="Arial" font-size="10.00">FOREIGN KEY (league_id) REFERENCES leagues (id)</text>
</g>
<!-- league_statistics -->
<g id="node3" class="node">
<title>league_statistics</title>
<polygon fill="#efefef" stroke="none" points="352.32,-1119.8 352.32,-1155.4 608.77,-1155.4 608.77,-1119.8 352.32,-1119.8"/>
<polygon fill="none" stroke="black" points="352.32,-1119.8 352.32,-1155.4 608.77,-1155.4 608.77,-1119.8 352.32,-1119.8"/>
<text text-anchor="start" x="359.32" y="-1133.2" font-family="Arial Bold" font-size="18.00">league_statistics</text>
<text text-anchor="start" x="477.28" y="-1133.2" font-family="Arial" font-size="14.00">    </text>
<text text-anchor="start" x="508.4" y="-1133.2" font-family="Arial" font-size="14.00" fill="#666666">[BASE TABLE]</text>
<polygon fill="none" stroke="black" points="352.32,-1089 352.32,-1119.8 608.77,-1119.8 608.77,-1089 352.32,-1089"/>
<text text-anchor="start" x="359.32" y="-1101.2" font-family="Arial" font-size="14.00">id </text>
<text text-anchor="start" x="374.1" y="-1101.2" font-family="Arial" font-size="14.00" fill="#666666">[bigint]</text>
<polygon fill="none" stroke="black" points="352.32,-1058.2 352.32,-1089 608.77,-1089 608.77,-1058.2 352.32,-1058.2"/>
<text text-anchor="start" x="359.32" y="-1070.4" font-family="Arial" font-size="14.00">league_id </text>
<text text-anchor="start" x="423.93" y="-1070.4" font-family="Arial" font-size="14.00" fill="#666666">[bigint]</text>
<polygon fill="none" stroke="black" points="352.32,-1027.4 352.32,-1058.2 608.77,-1058.2 608.77,-1027.4 352.32,-1027.4"/>
<text text-anchor="start" x="359.32" y="-1039.6" font-family="Arial" font-size="14.00">first_winner_team_id </text>
<text text-anchor="start" x="492.38" y="-1039.6" font-family="Arial" font-size="14.00" fill="#666666">[bigint]</text>
<polygon fill="none" stroke="black" points="352.32,-996.6 352.32,-1027.4 608.77,-1027.4 608.77,-996.6 352.32,-996.6"/>
<text text-anchor="start" x="359.32" y="-1008.8" font-family="Arial" font-size="14.00">second_winner_team_id </text>
<text text-anchor="start" x="514.97" y="-1008.8" font-family="Arial" font-size="14.00" fill="#666666">[bigint]</text>
<polygon fill="none" stroke="black" points="352.32,-965.8 352.32,-996.6 608.77,-996.6 608.77,-965.8 352.32,-965.8"/>
<text text-anchor="start" x="359.32" y="-978" font-family="Arial" font-size="14.00">most_cheered_team_id </text>
<text text-anchor="start" x="509.52" y="-978" font-family="Arial" font-size="14.00" fill="#666666">[bigint]</text>
<polygon fill="none" stroke="black" points="352.32,-935 352.32,-965.8 608.77,-965.8 608.77,-935 352.32,-935"/>
<text text-anchor="start" x="359.32" y="-947.2" font-family="Arial" font-size="14.00">most_cheer_talks_team_id </text>
<text text-anchor="start" x="530.52" y="-947.2" font-family="Arial" font-size="14.00" fill="#666666">[bigint]</text>
</g>
<!-- league_statistics&#45;&gt;leagues -->
<g id="edge2" class="edge">
<title>league_statistics:league_id&#45;&gt;leagues:id</title>
<path fill="none" stroke="black" d="M619.82,-1072.98C685.18,-1064.33 628.67,-966.36 608.77,-891.8 593.88,-836.01 559.68,-834.56 544.66,-778.8 533.42,-737.09 500.45,-681.6 543.66,-681.6"/>
<polygon fill="black" stroke="black" points="620.09,-1072.97 609.83,-1069.09 614.76,-1073.29 610.44,-1073.56 610.44,-1073.56 610.44,-1073.56 614.76,-1073.29 610.38,-1078.07 620.09,-1072.97"/>
<text text-anchor="start" x="616.77" y="-1083.6" font-family="Arial" font-size="10.00">FOREIGN KEY (league_id) REFERENCES leagues (id)</text>
</g>
<!-- league_teams -->
<g id="node4" class="node">
<title>league_teams</title>
<polygon fill="#efefef" stroke="none" points="713.32,-1119.8 713.32,-1155.4 949.77,-1155.4 949.77,-1119.8 713.32,-1119.8"/>
<polygon fill="none" stroke="black" points="713.32,-1119.8 713.32,-1155.4 949.77,-1155.4 949.77,-1119.8 713.32,-1119.8"/>
<text text-anchor="start" x="720.32" y="-1133.2" font-family="Arial Bold" font-size="18.00">league_teams</text>
<text text-anchor="start" x="818.28" y="-1133.2" font-family="Arial" font-size="14.00">    </text>
<text text-anchor="start" x="849.39" y="-1133.2" font-family="Arial" font-size="14.00" fill="#666666">[BASE TABLE]</text>
<polygon fill="none" stroke="black" points="713.32,-1089 713.32,-1119.8 949.77,-1119.8 949.77,-1089 713.32,-1089"/>
<text text-anchor="start" x="720.32" y="-1101.2" font-family="Arial" font-size="14.00">id </text>
<text text-anchor="start" x="735.11" y="-1101.2" font-family="Arial" font-size="14.00" fill="#666666">[bigint]</text>
<polygon fill="none" stroke="black" points="713.32,-1058.2 713.32,-1089 949.77,-1089 949.77,-1058.2 713.32,-1058.2"/>
<text text-anchor="start" x="720.32" y="-1070.4" font-family="Arial" font-size="14.00">league_id </text>
<text text-anchor="start" x="784.94" y="-1070.4" font-family="Arial" font-size="14.00" fill="#666666">[bigint]</text>
<polygon fill="none" stroke="black" points="713.32,-1027.4 713.32,-1058.2 949.77,-1058.2 949.77,-1027.4 713.32,-1027.4"/>
<text text-anchor="start" x="720.32" y="-1039.6" font-family="Arial" font-size="14.00">team_id </text>
<text text-anchor="start" x="774.02" y="-1039.6" font-family="Arial" font-size="14.00" fill="#666666">[bigint]</text>
<polygon fill="none" stroke="black" points="713.32,-996.6 713.32,-1027.4 949.77,-1027.4 949.77,-996.6 713.32,-996.6"/>
<text text-anchor="start" x="720.32" y="-1008.8" font-family="Arial" font-size="14.00">total_cheer_count </text>
<text text-anchor="start" x="835.51" y="-1008.8" font-family="Arial" font-size="14.00" fill="#666666">[int]</text>
<polygon fill="none" stroke="black" points="713.32,-965.8 713.32,-996.6 949.77,-996.6 949.77,-965.8 713.32,-965.8"/>
<text text-anchor="start" x="720.32" y="-978" font-family="Arial" font-size="14.00">total_talk_count </text>
<text text-anchor="start" x="822.28" y="-978" font-family="Arial" font-size="14.00" fill="#666666">[int]</text>
<polygon fill="none" stroke="black" points="713.32,-935 713.32,-965.8 949.77,-965.8 949.77,-935 713.32,-935"/>
<text text-anchor="start" x="720.32" y="-947.2" font-family="Arial" font-size="14.00">ranking </text>
<text text-anchor="start" x="770.13" y="-947.2" font-family="Arial" font-size="14.00" fill="#666666">[int]</text>
</g>
<!-- league_teams&#45;&gt;leagues -->
<g id="edge3" class="edge">
<title>league_teams:league_id&#45;&gt;leagues:id</title>
<path fill="none" stroke="black" d="M702.29,-1072.99C637.18,-1064.4 696.3,-967.07 713.32,-891.8 725.56,-837.67 754.06,-832.9 766.43,-778.8 776.06,-736.69 810.64,-681.6 767.43,-681.6"/>
<polygon fill="black" stroke="black" points="702.01,-1072.97 711.71,-1078.07 707.33,-1073.3 711.65,-1073.56 711.65,-1073.56 711.65,-1073.56 707.33,-1073.3 712.26,-1069.09 702.01,-1072.97"/>
<text text-anchor="start" x="719.32" y="-1057.6" font-family="Arial" font-size="10.00">FOREIGN KEY (league_id) REFERENCES leagues (id)</text>
</g>
<!-- league_top_scorers -->
<g id="node5" class="node">
<title>league_top_scorers</title>
<polygon fill="#efefef" stroke="none" points="1053.83,-1104.4 1053.83,-1140 1331.26,-1140 1331.26,-1104.4 1053.83,-1104.4"/>
<polygon fill="none" stroke="black" points="1053.83,-1104.4 1053.83,-1140 1331.26,-1140 1331.26,-1104.4 1053.83,-1104.4"/>
<text text-anchor="start" x="1060.83" y="-1117.8" font-family="Arial Bold" font-size="18.00">league_top_scorers</text>
<text text-anchor="start" x="1199.77" y="-1117.8" font-family="Arial" font-size="14.00">    </text>
<text text-anchor="start" x="1230.89" y="-1117.8" font-family="Arial" font-size="14.00" fill="#666666">[BASE TABLE]</text>
<polygon fill="none" stroke="black" points="1053.83,-1073.6 1053.83,-1104.4 1331.26,-1104.4 1331.26,-1073.6 1053.83,-1073.6"/>
<text text-anchor="start" x="1060.83" y="-1085.8" font-family="Arial" font-size="14.00">id </text>
<text text-anchor="start" x="1075.61" y="-1085.8" font-family="Arial" font-size="14.00" fill="#666666">[bigint]</text>
<polygon fill="none" stroke="black" points="1053.83,-1042.8 1053.83,-1073.6 1331.26,-1073.6 1331.26,-1042.8 1053.83,-1042.8"/>
<text text-anchor="start" x="1060.83" y="-1055" font-family="Arial" font-size="14.00">league_id </text>
<text text-anchor="start" x="1125.44" y="-1055" font-family="Arial" font-size="14.00" fill="#666666">[bigint]</text>
<polygon fill="none" stroke="black" points="1053.83,-1012 1053.83,-1042.8 1331.26,-1042.8 1331.26,-1012 1053.83,-1012"/>
<text text-anchor="start" x="1060.83" y="-1024.2" font-family="Arial" font-size="14.00">player_id </text>
<text text-anchor="start" x="1121.53" y="-1024.2" font-family="Arial" font-size="14.00" fill="#666666">[bigint]</text>
<polygon fill="none" stroke="black" points="1053.83,-981.2 1053.83,-1012 1331.26,-1012 1331.26,-981.2 1053.83,-981.2"/>
<text text-anchor="start" x="1060.83" y="-993.4" font-family="Arial" font-size="14.00">ranking </text>
<text text-anchor="start" x="1110.63" y="-993.4" font-family="Arial" font-size="14.00" fill="#666666">[int]</text>
<polygon fill="none" stroke="black" points="1053.83,-950.4 1053.83,-981.2 1331.26,-981.2 1331.26,-950.4 1053.83,-950.4"/>
<text text-anchor="start" x="1060.83" y="-962.6" font-family="Arial" font-size="14.00">goal_count </text>
<text text-anchor="start" x="1133.22" y="-962.6" font-family="Arial" font-size="14.00" fill="#666666">[int]</text>
</g>
<!-- league_top_scorers&#45;&gt;leagues -->
<g id="edge4" class="edge">
<title>league_top_scorers:league_id&#45;&gt;leagues:id</title>
<path fill="none" stroke="black" d="M1042.58,-1057.7C950.33,-1048.04 1064.56,-901.13 1001.54,-814.8 930.96,-718.11 887.15,-681.6 767.43,-681.6"/>
<polygon fill="black" stroke="black" points="1042.5,-1057.69 1052.27,-1062.68 1047.83,-1057.96 1052.16,-1058.17 1052.16,-1058.17 1052.16,-1058.17 1047.83,-1057.96 1052.71,-1053.69 1042.5,-1057.69"/>
<text text-anchor="start" x="1059.83" y="-1068.2" font-family="Arial" font-size="10.00">FOREIGN KEY (league_id) REFERENCES leagues (id)</text>
</g>
</g>
</svg>
