<?xml version="1.0" encoding="UTF-8" standalone="no"?>
<!DOCTYPE svg PUBLIC "-//W3C//DTD SVG 1.1//EN"
 "http://www.w3.org/Graphics/SVG/1.1/DTD/svg11.dtd">
<!-- Generated by graphviz version 12.1.2 (20240928.0832)
 -->
<!-- Title: league_statistics Pages: 1 -->
<svg width="926pt" height="787pt"
 viewBox="0.00 0.00 925.86 786.80" xmlns="http://www.w3.org/2000/svg" xmlns:xlink="http://www.w3.org/1999/xlink">
<g id="graph0" class="graph" transform="scale(1 1) rotate(0) translate(4 782.8)">
<title>league_statistics</title>
<polygon fill="white" stroke="none" points="-4,4 -4,-782.8 921.86,-782.8 921.86,4 -4,4"/>
<!-- league_statistics -->
<g id="node1" class="node">
<title>league_statistics</title>
<polygon fill="#efefef" stroke="none" points="341.86,-697 341.86,-732.6 598.32,-732.6 598.32,-697 341.86,-697"/>
<polygon fill="none" stroke="black" points="341.86,-697 341.86,-732.6 598.32,-732.6 598.32,-697 341.86,-697"/>
<text text-anchor="start" x="348.86" y="-710.4" font-family="Arial Bold" font-size="18.00">league_statistics</text>
<text text-anchor="start" x="466.83" y="-710.4" font-family="Arial" font-size="14.00">    </text>
<text text-anchor="start" x="497.95" y="-710.4" font-family="Arial" font-size="14.00" fill="#666666">[BASE TABLE]</text>
<polygon fill="none" stroke="black" points="341.86,-666.2 341.86,-697 598.32,-697 598.32,-666.2 341.86,-666.2"/>
<text text-anchor="start" x="348.86" y="-678.4" font-family="Arial" font-size="14.00">id </text>
<text text-anchor="start" x="363.65" y="-678.4" font-family="Arial" font-size="14.00" fill="#666666">[bigint]</text>
<polygon fill="none" stroke="black" points="341.86,-635.4 341.86,-666.2 598.32,-666.2 598.32,-635.4 341.86,-635.4"/>
<text text-anchor="start" x="348.86" y="-647.6" font-family="Arial" font-size="14.00">league_id </text>
<text text-anchor="start" x="413.47" y="-647.6" font-family="Arial" font-size="14.00" fill="#666666">[bigint]</text>
<polygon fill="none" stroke="black" points="341.86,-604.6 341.86,-635.4 598.32,-635.4 598.32,-604.6 341.86,-604.6"/>
<text text-anchor="start" x="348.86" y="-616.8" font-family="Arial" font-size="14.00">first_winner_team_id </text>
<text text-anchor="start" x="481.92" y="-616.8" font-family="Arial" font-size="14.00" fill="#666666">[bigint]</text>
<polygon fill="none" stroke="black" points="341.86,-573.8 341.86,-604.6 598.32,-604.6 598.32,-573.8 341.86,-573.8"/>
<text text-anchor="start" x="348.86" y="-586" font-family="Arial" font-size="14.00">second_winner_team_id </text>
<text text-anchor="start" x="504.52" y="-586" font-family="Arial" font-size="14.00" fill="#666666">[bigint]</text>
<polygon fill="none" stroke="black" points="341.86,-543 341.86,-573.8 598.32,-573.8 598.32,-543 341.86,-543"/>
<text text-anchor="start" x="348.86" y="-555.2" font-family="Arial" font-size="14.00">most_cheered_team_id </text>
<text text-anchor="start" x="499.06" y="-555.2" font-family="Arial" font-size="14.00" fill="#666666">[bigint]</text>
<polygon fill="none" stroke="black" points="341.86,-512.2 341.86,-543 598.32,-543 598.32,-512.2 341.86,-512.2"/>
<text text-anchor="start" x="348.86" y="-524.4" font-family="Arial" font-size="14.00">most_cheer_talks_team_id </text>
<text text-anchor="start" x="520.06" y="-524.4" font-family="Arial" font-size="14.00" fill="#666666">[bigint]</text>
<polygon fill="none" stroke="black" stroke-width="3" points="340.36,-510.7 340.36,-734.1 599.82,-734.1 599.82,-510.7 340.36,-510.7"/>
</g>
<!-- leagues -->
<g id="node2" class="node">
<title>leagues</title>
<polygon fill="#efefef" stroke="none" points="43.2,-351.2 43.2,-386.8 264.98,-386.8 264.98,-351.2 43.2,-351.2"/>
<polygon fill="none" stroke="black" points="43.2,-351.2 43.2,-386.8 264.98,-386.8 264.98,-351.2 43.2,-351.2"/>
<text text-anchor="start" x="64.86" y="-364.6" font-family="Arial Bold" font-size="18.00">leagues</text>
<text text-anchor="start" x="118.83" y="-364.6" font-family="Arial" font-size="14.00">    </text>
<text text-anchor="start" x="149.95" y="-364.6" font-family="Arial" font-size="14.00" fill="#666666">[BASE TABLE]</text>
<polygon fill="none" stroke="black" points="43.2,-320.4 43.2,-351.2 264.98,-351.2 264.98,-320.4 43.2,-320.4"/>
<text text-anchor="start" x="50.2" y="-332.6" font-family="Arial" font-size="14.00">id </text>
<text text-anchor="start" x="64.99" y="-332.6" font-family="Arial" font-size="14.00" fill="#666666">[bigint]</text>
<polygon fill="none" stroke="black" points="43.2,-289.6 43.2,-320.4 264.98,-320.4 264.98,-289.6 43.2,-289.6"/>
<text text-anchor="start" x="50.2" y="-301.8" font-family="Arial" font-size="14.00">organization_id </text>
<text text-anchor="start" x="149.05" y="-301.8" font-family="Arial" font-size="14.00" fill="#666666">[bigint]</text>
<polygon fill="none" stroke="black" points="43.2,-258.8 43.2,-289.6 264.98,-289.6 264.98,-258.8 43.2,-258.8"/>
<text text-anchor="start" x="50.2" y="-271" font-family="Arial" font-size="14.00">administrator_id </text>
<text text-anchor="start" x="153.69" y="-271" font-family="Arial" font-size="14.00" fill="#666666">[bigint]</text>
<polygon fill="none" stroke="black" points="43.2,-228 43.2,-258.8 264.98,-258.8 264.98,-228 43.2,-228"/>
<text text-anchor="start" x="50.2" y="-240.2" font-family="Arial" font-size="14.00">name </text>
<text text-anchor="start" x="89.11" y="-240.2" font-family="Arial" font-size="14.00" fill="#666666">[varchar(255)]</text>
<polygon fill="none" stroke="black" points="43.2,-197.2 43.2,-228 264.98,-228 264.98,-197.2 43.2,-197.2"/>
<text text-anchor="start" x="50.2" y="-209.4" font-family="Arial" font-size="14.00">start_at </text>
<text text-anchor="start" x="100.78" y="-209.4" font-family="Arial" font-size="14.00" fill="#666666">[datetime]</text>
<polygon fill="none" stroke="black" points="43.2,-166.4 43.2,-197.2 264.98,-197.2 264.98,-166.4 43.2,-166.4"/>
<text text-anchor="start" x="50.2" y="-178.6" font-family="Arial" font-size="14.00">end_at </text>
<text text-anchor="start" x="96.91" y="-178.6" font-family="Arial" font-size="14.00" fill="#666666">[datetime]</text>
<polygon fill="none" stroke="black" points="43.2,-135.6 43.2,-166.4 264.98,-166.4 264.98,-135.6 43.2,-135.6"/>
<text text-anchor="start" x="50.2" y="-147.8" font-family="Arial" font-size="14.00">is_deleted </text>
<text text-anchor="start" x="117.92" y="-147.8" font-family="Arial" font-size="14.00" fill="#666666">[tinyint(1)]</text>
<polygon fill="none" stroke="black" points="43.2,-104.8 43.2,-135.6 264.98,-135.6 264.98,-104.8 43.2,-104.8"/>
<text text-anchor="start" x="50.2" y="-117" font-family="Arial" font-size="14.00">max_round </text>
<text text-anchor="start" x="124.13" y="-117" font-family="Arial" font-size="14.00" fill="#666666">[varchar(255)]</text>
<polygon fill="none" stroke="black" points="43.2,-74 43.2,-104.8 264.98,-104.8 264.98,-74 43.2,-74"/>
<text text-anchor="start" x="50.2" y="-86.2" font-family="Arial" font-size="14.00">in_progress_round </text>
<text text-anchor="start" x="170.83" y="-86.2" font-family="Arial" font-size="14.00" fill="#666666">[varchar(255)]</text>
<polygon fill="none" stroke="black" points="43.2,-43.2 43.2,-74 264.98,-74 264.98,-43.2 43.2,-43.2"/>
<text text-anchor="start" x="50.2" y="-55.4" font-family="Arial" font-size="14.00">sport_type </text>
<text text-anchor="start" x="119.46" y="-55.4" font-family="Arial" font-size="14.00" fill="#666666">[varchar(20)]</text>
</g>
<!-- league_statistics&#45;&gt;leagues -->
<g id="edge1" class="edge">
<title>league_statistics:league_id&#45;&gt;leagues:id</title>
<path fill="none" stroke="black" d="M330.95,-648.45C275.56,-619.62 334.28,-335.8 265.98,-335.8"/>
<polygon fill="black" stroke="black" points="330.81,-648.41 339.5,-655.1 336,-649.64 340.21,-650.65 340.21,-650.65 340.21,-650.65 336,-649.64 341.58,-646.34 330.81,-648.41"/>
<text text-anchor="start" x="86.55" y="-660.8" font-family="Arial" font-size="10.00">FOREIGN KEY (league_id) REFERENCES leagues (id)</text>
</g>
<!-- teams -->
<g id="node3" class="node">
<title>teams</title>
<polygon fill="#efefef" stroke="none" points="369.71,-305 369.71,-340.6 570.47,-340.6 570.47,-305 369.71,-305"/>
<polygon fill="none" stroke="black" points="369.71,-305 369.71,-340.6 570.47,-340.6 570.47,-305 369.71,-305"/>
<text text-anchor="start" x="386.85" y="-318.4" font-family="Arial Bold" font-size="18.00">teams</text>
<text text-anchor="start" x="428.84" y="-318.4" font-family="Arial" font-size="14.00">    </text>
<text text-anchor="start" x="459.95" y="-318.4" font-family="Arial" font-size="14.00" fill="#666666">[BASE TABLE]</text>
<polygon fill="none" stroke="black" points="369.71,-274.2 369.71,-305 570.47,-305 570.47,-274.2 369.71,-274.2"/>
<text text-anchor="start" x="376.71" y="-286.4" font-family="Arial" font-size="14.00">id </text>
<text text-anchor="start" x="391.49" y="-286.4" font-family="Arial" font-size="14.00" fill="#666666">[bigint]</text>
<polygon fill="none" stroke="black" points="369.71,-243.4 369.71,-274.2 570.47,-274.2 570.47,-243.4 369.71,-243.4"/>
<text text-anchor="start" x="376.71" y="-255.6" font-family="Arial" font-size="14.00">name </text>
<text text-anchor="start" x="415.62" y="-255.6" font-family="Arial" font-size="14.00" fill="#666666">[varchar(255)]</text>
<polygon fill="none" stroke="black" points="369.71,-212.6 369.71,-243.4 570.47,-243.4 570.47,-212.6 369.71,-212.6"/>
<text text-anchor="start" x="376.71" y="-224.8" font-family="Arial" font-size="14.00">logo_image_url </text>
<text text-anchor="start" x="476.33" y="-224.8" font-family="Arial" font-size="14.00" fill="#666666">[varchar(255)]</text>
<polygon fill="none" stroke="black" points="369.71,-181.8 369.71,-212.6 570.47,-212.6 570.47,-181.8 369.71,-181.8"/>
<text text-anchor="start" x="376.71" y="-194" font-family="Arial" font-size="14.00">team_color </text>
<text text-anchor="start" x="449.85" y="-194" font-family="Arial" font-size="14.00" fill="#666666">[varchar(255)]</text>
<polygon fill="none" stroke="black" points="369.71,-151 369.71,-181.8 570.47,-181.8 570.47,-151 369.71,-151"/>
<text text-anchor="start" x="376.71" y="-163.2" font-family="Arial" font-size="14.00">is_deleted </text>
<text text-anchor="start" x="444.42" y="-163.2" font-family="Arial" font-size="14.00" fill="#666666">[tinyint(1)]</text>
<polygon fill="none" stroke="black" points="369.71,-120.2 369.71,-151 570.47,-151 570.47,-120.2 369.71,-120.2"/>
<text text-anchor="start" x="376.71" y="-132.4" font-family="Arial" font-size="14.00">sport_type </text>
<text text-anchor="start" x="445.97" y="-132.4" font-family="Arial" font-size="14.00" fill="#666666">[varchar(20)]</text>
<polygon fill="none" stroke="black" points="369.71,-89.4 369.71,-120.2 570.47,-120.2 570.47,-89.4 369.71,-89.4"/>
<text text-anchor="start" x="376.71" y="-101.6" font-family="Arial" font-size="14.00">unit_id </text>
<text text-anchor="start" x="421.85" y="-101.6" font-family="Arial" font-size="14.00" fill="#666666">[bigint]</text>
</g>
<!-- league_statistics&#45;&gt;teams -->
<g id="edge2" class="edge">
<title>league_statistics:first_winner_team_id&#45;&gt;teams:id</title>
<path fill="none" stroke="black" d="M609.39,-617.71C670.17,-588.52 641.56,-289.6 571.47,-289.6"/>
<polygon fill="black" stroke="black" points="609.4,-617.71 598.65,-615.54 604.19,-618.89 599.97,-619.85 599.97,-619.85 599.97,-619.85 604.19,-618.89 600.64,-624.31 609.4,-617.71"/>
<text text-anchor="start" x="606.32" y="-630" font-family="Arial" font-size="10.00">FOREIGN KEY (first_winner_team_id) REFERENCES teams (id)</text>
</g>
<!-- league_statistics&#45;&gt;teams -->
<g id="edge3" class="edge">
<title>league_statistics:second_winner_team_id&#45;&gt;teams:id</title>
<path fill="none" stroke="black" d="M609.11,-586.79C663.14,-558.43 634.81,-289.6 571.47,-289.6"/>
<polygon fill="black" stroke="black" points="609.35,-586.73 598.57,-584.75 604.17,-588 599.97,-589.04 599.97,-589.04 599.97,-589.04 604.17,-588 600.72,-593.49 609.35,-586.73"/>
<text text-anchor="start" x="606.32" y="-599.2" font-family="Arial" font-size="10.00">FOREIGN KEY (second_winner_team_id) REFERENCES teams (id)</text>
</g>
<!-- league_statistics&#45;&gt;teams -->
<g id="edge4" class="edge">
<title>league_statistics:most_cheered_team_id&#45;&gt;teams:id</title>
<path fill="none" stroke="black" d="M609.27,-555.56C655.88,-526.84 627.89,-289.6 571.47,-289.6"/>
<polygon fill="black" stroke="black" points="609.26,-555.57 598.41,-553.98 604.13,-557.03 599.96,-558.22 599.96,-558.22 599.96,-558.22 604.13,-557.03 600.87,-562.64 609.26,-555.57"/>
<text text-anchor="start" x="606.32" y="-568.4" font-family="Arial" font-size="10.00">FOREIGN KEY (most_cheered_team_id) REFERENCES teams (id)</text>
</g>
<!-- league_statistics&#45;&gt;teams -->
<g id="edge5" class="edge">
<title>league_statistics:most_cheer_talks_team_id&#45;&gt;teams:id</title>
<path fill="none" stroke="black" d="M470.66,-500.85C477.71,-440.19 547.72,-448.33 570.47,-383.8 584.39,-344.31 613.34,-289.6 571.47,-289.6"/>
<polygon fill="black" stroke="black" points="470.66,-500.88 465.61,-510.62 470.37,-506.21 470.13,-510.53 470.13,-510.53 470.13,-510.53 470.37,-506.21 474.6,-511.12 470.66,-500.88"/>
<text text-anchor="start" x="147.44" y="-521.2" font-family="Arial" font-size="10.00">FOREIGN KEY (most_cheer_talks_team_id) REFERENCES teams (id)</text>
</g>
</g>
</svg>
