<?xml version="1.0" encoding="UTF-8" standalone="no"?>
<!DOCTYPE svg PUBLIC "-//W3C//DTD SVG 1.1//EN"
 "http://www.w3.org/Graphics/SVG/1.1/DTD/svg11.dtd">
<!-- Generated by graphviz version 12.1.2 (20240928.0832)
 -->
<!-- Title: league_teams Pages: 1 -->
<svg width="753pt" height="787pt"
 viewBox="0.00 0.00 753.47 786.80" xmlns="http://www.w3.org/2000/svg" xmlns:xlink="http://www.w3.org/1999/xlink">
<g id="graph0" class="graph" transform="scale(1 1) rotate(0) translate(4 782.8)">
<title>league_teams</title>
<polygon fill="white" stroke="none" points="-4,4 -4,-782.8 749.47,-782.8 749.47,4 -4,4"/>
<!-- league_teams -->
<g id="node1" class="node">
<title>league_teams</title>
<polygon fill="#efefef" stroke="none" points="262.31,-697 262.31,-732.6 498.75,-732.6 498.75,-697 262.31,-697"/>
<polygon fill="none" stroke="black" points="262.31,-697 262.31,-732.6 498.75,-732.6 498.75,-697 262.31,-697"/>
<text text-anchor="start" x="269.31" y="-710.4" font-family="Arial Bold" font-size="18.00">league_teams</text>
<text text-anchor="start" x="367.26" y="-710.4" font-family="Arial" font-size="14.00">    </text>
<text text-anchor="start" x="398.38" y="-710.4" font-family="Arial" font-size="14.00" fill="#666666">[BASE TABLE]</text>
<polygon fill="none" stroke="black" points="262.31,-666.2 262.31,-697 498.75,-697 498.75,-666.2 262.31,-666.2"/>
<text text-anchor="start" x="269.31" y="-678.4" font-family="Arial" font-size="14.00">id </text>
<text text-anchor="start" x="284.1" y="-678.4" font-family="Arial" font-size="14.00" fill="#666666">[bigint]</text>
<polygon fill="none" stroke="black" points="262.31,-635.4 262.31,-666.2 498.75,-666.2 498.75,-635.4 262.31,-635.4"/>
<text text-anchor="start" x="269.31" y="-647.6" font-family="Arial" font-size="14.00">league_id </text>
<text text-anchor="start" x="333.92" y="-647.6" font-family="Arial" font-size="14.00" fill="#666666">[bigint]</text>
<polygon fill="none" stroke="black" points="262.31,-604.6 262.31,-635.4 498.75,-635.4 498.75,-604.6 262.31,-604.6"/>
<text text-anchor="start" x="269.31" y="-616.8" font-family="Arial" font-size="14.00">team_id </text>
<text text-anchor="start" x="323.01" y="-616.8" font-family="Arial" font-size="14.00" fill="#666666">[bigint]</text>
<polygon fill="none" stroke="black" points="262.31,-573.8 262.31,-604.6 498.75,-604.6 498.75,-573.8 262.31,-573.8"/>
<text text-anchor="start" x="269.31" y="-586" font-family="Arial" font-size="14.00">total_cheer_count </text>
<text text-anchor="start" x="384.5" y="-586" font-family="Arial" font-size="14.00" fill="#666666">[int]</text>
<polygon fill="none" stroke="black" points="262.31,-543 262.31,-573.8 498.75,-573.8 498.75,-543 262.31,-543"/>
<text text-anchor="start" x="269.31" y="-555.2" font-family="Arial" font-size="14.00">total_talk_count </text>
<text text-anchor="start" x="371.27" y="-555.2" font-family="Arial" font-size="14.00" fill="#666666">[int]</text>
<polygon fill="none" stroke="black" points="262.31,-512.2 262.31,-543 498.75,-543 498.75,-512.2 262.31,-512.2"/>
<text text-anchor="start" x="269.31" y="-524.4" font-family="Arial" font-size="14.00">ranking </text>
<text text-anchor="start" x="319.12" y="-524.4" font-family="Arial" font-size="14.00" fill="#666666">[int]</text>
<polygon fill="none" stroke="black" stroke-width="3" points="260.81,-510.7 260.81,-734.1 500.25,-734.1 500.25,-510.7 260.81,-510.7"/>
</g>
<!-- leagues -->
<g id="node2" class="node">
<title>leagues</title>
<polygon fill="#efefef" stroke="none" points="111.64,-351.2 111.64,-386.8 333.42,-386.8 333.42,-351.2 111.64,-351.2"/>
<polygon fill="none" stroke="black" points="111.64,-351.2 111.64,-386.8 333.42,-386.8 333.42,-351.2 111.64,-351.2"/>
<text text-anchor="start" x="133.3" y="-364.6" font-family="Arial Bold" font-size="18.00">leagues</text>
<text text-anchor="start" x="187.27" y="-364.6" font-family="Arial" font-size="14.00">    </text>
<text text-anchor="start" x="218.39" y="-364.6" font-family="Arial" font-size="14.00" fill="#666666">[BASE TABLE]</text>
<polygon fill="none" stroke="black" points="111.64,-320.4 111.64,-351.2 333.42,-351.2 333.42,-320.4 111.64,-320.4"/>
<text text-anchor="start" x="118.64" y="-332.6" font-family="Arial" font-size="14.00">id </text>
<text text-anchor="start" x="133.43" y="-332.6" font-family="Arial" font-size="14.00" fill="#666666">[bigint]</text>
<polygon fill="none" stroke="black" points="111.64,-289.6 111.64,-320.4 333.42,-320.4 333.42,-289.6 111.64,-289.6"/>
<text text-anchor="start" x="118.64" y="-301.8" font-family="Arial" font-size="14.00">organization_id </text>
<text text-anchor="start" x="217.49" y="-301.8" font-family="Arial" font-size="14.00" fill="#666666">[bigint]</text>
<polygon fill="none" stroke="black" points="111.64,-258.8 111.64,-289.6 333.42,-289.6 333.42,-258.8 111.64,-258.8"/>
<text text-anchor="start" x="118.64" y="-271" font-family="Arial" font-size="14.00">administrator_id </text>
<text text-anchor="start" x="222.13" y="-271" font-family="Arial" font-size="14.00" fill="#666666">[bigint]</text>
<polygon fill="none" stroke="black" points="111.64,-228 111.64,-258.8 333.42,-258.8 333.42,-228 111.64,-228"/>
<text text-anchor="start" x="118.64" y="-240.2" font-family="Arial" font-size="14.00">name </text>
<text text-anchor="start" x="157.55" y="-240.2" font-family="Arial" font-size="14.00" fill="#666666">[varchar(255)]</text>
<polygon fill="none" stroke="black" points="111.64,-197.2 111.64,-228 333.42,-228 333.42,-197.2 111.64,-197.2"/>
<text text-anchor="start" x="118.64" y="-209.4" font-family="Arial" font-size="14.00">start_at </text>
<text text-anchor="start" x="169.22" y="-209.4" font-family="Arial" font-size="14.00" fill="#666666">[datetime]</text>
<polygon fill="none" stroke="black" points="111.64,-166.4 111.64,-197.2 333.42,-197.2 333.42,-166.4 111.64,-166.4"/>
<text text-anchor="start" x="118.64" y="-178.6" font-family="Arial" font-size="14.00">end_at </text>
<text text-anchor="start" x="165.35" y="-178.6" font-family="Arial" font-size="14.00" fill="#666666">[datetime]</text>
<polygon fill="none" stroke="black" points="111.64,-135.6 111.64,-166.4 333.42,-166.4 333.42,-135.6 111.64,-135.6"/>
<text text-anchor="start" x="118.64" y="-147.8" font-family="Arial" font-size="14.00">is_deleted </text>
<text text-anchor="start" x="186.36" y="-147.8" font-family="Arial" font-size="14.00" fill="#666666">[tinyint(1)]</text>
<polygon fill="none" stroke="black" points="111.64,-104.8 111.64,-135.6 333.42,-135.6 333.42,-104.8 111.64,-104.8"/>
<text text-anchor="start" x="118.64" y="-117" font-family="Arial" font-size="14.00">max_round </text>
<text text-anchor="start" x="192.57" y="-117" font-family="Arial" font-size="14.00" fill="#666666">[varchar(255)]</text>
<polygon fill="none" stroke="black" points="111.64,-74 111.64,-104.8 333.42,-104.8 333.42,-74 111.64,-74"/>
<text text-anchor="start" x="118.64" y="-86.2" font-family="Arial" font-size="14.00">in_progress_round </text>
<text text-anchor="start" x="239.28" y="-86.2" font-family="Arial" font-size="14.00" fill="#666666">[varchar(255)]</text>
<polygon fill="none" stroke="black" points="111.64,-43.2 111.64,-74 333.42,-74 333.42,-43.2 111.64,-43.2"/>
<text text-anchor="start" x="118.64" y="-55.4" font-family="Arial" font-size="14.00">sport_type </text>
<text text-anchor="start" x="187.9" y="-55.4" font-family="Arial" font-size="14.00" fill="#666666">[varchar(20)]</text>
</g>
<!-- league_teams&#45;&gt;leagues -->
<g id="edge1" class="edge">
<title>league_teams:league_id&#45;&gt;leagues:id</title>
<path fill="none" stroke="black" d="M250.97,-650.12C182.77,-640.56 221.05,-532.72 262.31,-466 280.94,-435.87 314.71,-460.08 333.42,-430 355.53,-394.45 376.29,-335.8 334.42,-335.8"/>
<polygon fill="black" stroke="black" points="251,-650.12 260.68,-655.27 256.32,-650.47 260.64,-650.76 260.64,-650.76 260.64,-650.76 256.32,-650.47 261.27,-646.29 251,-650.12"/>
<text text-anchor="start" x="7" y="-660.8" font-family="Arial" font-size="10.00">FOREIGN KEY (league_id) REFERENCES leagues (id)</text>
</g>
<!-- teams -->
<g id="node3" class="node">
<title>teams</title>
<polygon fill="#efefef" stroke="none" points="438.15,-305 438.15,-340.6 638.91,-340.6 638.91,-305 438.15,-305"/>
<polygon fill="none" stroke="black" points="438.15,-305 438.15,-340.6 638.91,-340.6 638.91,-305 438.15,-305"/>
<text text-anchor="start" x="455.29" y="-318.4" font-family="Arial Bold" font-size="18.00">teams</text>
<text text-anchor="start" x="497.28" y="-318.4" font-family="Arial" font-size="14.00">    </text>
<text text-anchor="start" x="528.4" y="-318.4" font-family="Arial" font-size="14.00" fill="#666666">[BASE TABLE]</text>
<polygon fill="none" stroke="black" points="438.15,-274.2 438.15,-305 638.91,-305 638.91,-274.2 438.15,-274.2"/>
<text text-anchor="start" x="445.15" y="-286.4" font-family="Arial" font-size="14.00">id </text>
<text text-anchor="start" x="459.94" y="-286.4" font-family="Arial" font-size="14.00" fill="#666666">[bigint]</text>
<polygon fill="none" stroke="black" points="438.15,-243.4 438.15,-274.2 638.91,-274.2 638.91,-243.4 438.15,-243.4"/>
<text text-anchor="start" x="445.15" y="-255.6" font-family="Arial" font-size="14.00">name </text>
<text text-anchor="start" x="484.06" y="-255.6" font-family="Arial" font-size="14.00" fill="#666666">[varchar(255)]</text>
<polygon fill="none" stroke="black" points="438.15,-212.6 438.15,-243.4 638.91,-243.4 638.91,-212.6 438.15,-212.6"/>
<text text-anchor="start" x="445.15" y="-224.8" font-family="Arial" font-size="14.00">logo_image_url </text>
<text text-anchor="start" x="544.77" y="-224.8" font-family="Arial" font-size="14.00" fill="#666666">[varchar(255)]</text>
<polygon fill="none" stroke="black" points="438.15,-181.8 438.15,-212.6 638.91,-212.6 638.91,-181.8 438.15,-181.8"/>
<text text-anchor="start" x="445.15" y="-194" font-family="Arial" font-size="14.00">team_color </text>
<text text-anchor="start" x="518.29" y="-194" font-family="Arial" font-size="14.00" fill="#666666">[varchar(255)]</text>
<polygon fill="none" stroke="black" points="438.15,-151 438.15,-181.8 638.91,-181.8 638.91,-151 438.15,-151"/>
<text text-anchor="start" x="445.15" y="-163.2" font-family="Arial" font-size="14.00">is_deleted </text>
<text text-anchor="start" x="512.87" y="-163.2" font-family="Arial" font-size="14.00" fill="#666666">[tinyint(1)]</text>
<polygon fill="none" stroke="black" points="438.15,-120.2 438.15,-151 638.91,-151 638.91,-120.2 438.15,-120.2"/>
<text text-anchor="start" x="445.15" y="-132.4" font-family="Arial" font-size="14.00">sport_type </text>
<text text-anchor="start" x="514.41" y="-132.4" font-family="Arial" font-size="14.00" fill="#666666">[varchar(20)]</text>
<polygon fill="none" stroke="black" points="438.15,-89.4 438.15,-120.2 638.91,-120.2 638.91,-89.4 438.15,-89.4"/>
<text text-anchor="start" x="445.15" y="-101.6" font-family="Arial" font-size="14.00">unit_id </text>
<text text-anchor="start" x="490.29" y="-101.6" font-family="Arial" font-size="14.00" fill="#666666">[bigint]</text>
</g>
<!-- league_teams&#45;&gt;teams -->
<g id="edge2" class="edge">
<title>league_teams:team_id&#45;&gt;teams:id</title>
<path fill="none" stroke="black" d="M509.95,-619.73C672.61,-610.92 438.66,-385.34 438.15,-383.8 424.86,-344.1 395.28,-289.6 437.15,-289.6"/>
<polygon fill="black" stroke="black" points="510.08,-619.73 499.97,-615.49 504.75,-619.87 500.42,-619.98 500.42,-619.98 500.42,-619.98 504.75,-619.87 500.2,-624.49 510.08,-619.73"/>
<text text-anchor="start" x="506.75" y="-630" font-family="Arial" font-size="10.00">FOREIGN KEY (team_id) REFERENCES teams (id)</text>
</g>
</g>
</svg>
