<?xml version="1.0" encoding="UTF-8" standalone="no"?>
<!DOCTYPE svg PUBLIC "-//W3C//DTD SVG 1.1//EN"
 "http://www.w3.org/Graphics/SVG/1.1/DTD/svg11.dtd">
<!-- Generated by graphviz version 12.1.2 (20240928.0832)
 -->
<!-- Title: lineup_players Pages: 1 -->
<svg width="936pt" height="1530pt"
 viewBox="0.00 0.00 935.94 1530.00" xmlns="http://www.w3.org/2000/svg" xmlns:xlink="http://www.w3.org/1999/xlink">
<g id="graph0" class="graph" transform="scale(1 1) rotate(0) translate(4 1526)">
<title>lineup_players</title>
<polygon fill="white" stroke="none" points="-4,4 -4,-1526 931.94,-1526 931.94,4 -4,4"/>
<!-- lineup_players -->
<g id="node1" class="node">
<title>lineup_players</title>
<polygon fill="#efefef" stroke="none" points="307.87,-666.2 307.87,-701.8 552.33,-701.8 552.33,-666.2 307.87,-666.2"/>
<polygon fill="none" stroke="black" points="307.87,-666.2 307.87,-701.8 552.33,-701.8 552.33,-666.2 307.87,-666.2"/>
<text text-anchor="start" x="314.87" y="-679.6" font-family="Arial Bold" font-size="18.00">lineup_players</text>
<text text-anchor="start" x="420.84" y="-679.6" font-family="Arial" font-size="14.00">    </text>
<text text-anchor="start" x="451.95" y="-679.6" font-family="Arial" font-size="14.00" fill="#666666">[BASE TABLE]</text>
<polygon fill="none" stroke="black" points="307.87,-635.4 307.87,-666.2 552.33,-666.2 552.33,-635.4 307.87,-635.4"/>
<text text-anchor="start" x="314.87" y="-647.6" font-family="Arial" font-size="14.00">id </text>
<text text-anchor="start" x="329.65" y="-647.6" font-family="Arial" font-size="14.00" fill="#666666">[bigint]</text>
<polygon fill="none" stroke="black" points="307.87,-604.6 307.87,-635.4 552.33,-635.4 552.33,-604.6 307.87,-604.6"/>
<text text-anchor="start" x="314.87" y="-616.8" font-family="Arial" font-size="14.00">game_team_id </text>
<text text-anchor="start" x="411.37" y="-616.8" font-family="Arial" font-size="14.00" fill="#666666">[bigint]</text>
<polygon fill="none" stroke="black" points="307.87,-573.8 307.87,-604.6 552.33,-604.6 552.33,-573.8 307.87,-573.8"/>
<text text-anchor="start" x="314.87" y="-586" font-family="Arial" font-size="14.00">player_id </text>
<text text-anchor="start" x="375.57" y="-586" font-family="Arial" font-size="14.00" fill="#666666">[bigint]</text>
<polygon fill="none" stroke="black" points="307.87,-543 307.87,-573.8 552.33,-573.8 552.33,-543 307.87,-543"/>
<text text-anchor="start" x="314.87" y="-555.2" font-family="Arial" font-size="14.00">jersey_number </text>
<text text-anchor="start" x="411.36" y="-555.2" font-family="Arial" font-size="14.00" fill="#666666">[int]</text>
<polygon fill="none" stroke="black" points="307.87,-512.2 307.87,-543 552.33,-543 552.33,-512.2 307.87,-512.2"/>
<text text-anchor="start" x="314.87" y="-524.4" font-family="Arial" font-size="14.00">is_captain </text>
<text text-anchor="start" x="381.8" y="-524.4" font-family="Arial" font-size="14.00" fill="#666666">[tinyint(1)]</text>
<polygon fill="none" stroke="black" points="307.87,-481.4 307.87,-512.2 552.33,-512.2 552.33,-481.4 307.87,-481.4"/>
<text text-anchor="start" x="314.87" y="-493.6" font-family="Arial" font-size="14.00">state </text>
<text text-anchor="start" x="349.11" y="-493.6" font-family="Arial" font-size="14.00" fill="#666666">[varchar(255)]</text>
<polygon fill="none" stroke="black" points="307.87,-450.6 307.87,-481.4 552.33,-481.4 552.33,-450.6 307.87,-450.6"/>
<text text-anchor="start" x="314.87" y="-462.8" font-family="Arial" font-size="14.00">is_playing </text>
<text text-anchor="start" x="381.02" y="-462.8" font-family="Arial" font-size="14.00" fill="#666666">[tinyint(1)]</text>
<polygon fill="none" stroke="black" points="307.87,-419.8 307.87,-450.6 552.33,-450.6 552.33,-419.8 307.87,-419.8"/>
<text text-anchor="start" x="314.87" y="-432" font-family="Arial" font-size="14.00">replaced_player_id </text>
<text text-anchor="start" x="437.06" y="-432" font-family="Arial" font-size="14.00" fill="#666666">[bigint]</text>
<polygon fill="none" stroke="black" stroke-width="3" points="306.37,-418.3 306.37,-703.3 553.83,-703.3 553.83,-418.3 306.37,-418.3"/>
</g>
<!-- lineup_players&#45;&gt;lineup_players -->
<g id="edge1" class="edge">
<title>lineup_players:replaced_player_id&#45;&gt;lineup_players:id</title>
<path fill="none" stroke="black" d="M431.61,-460.64C439.06,-607.06 438.56,-944 430.1,-944 421.45,-944 421.11,-791.21 429.08,-665.93"/>
<polygon fill="black" stroke="black" points="431.62,-460.75 435.57,-450.53 431.33,-455.43 431.1,-451.1 431.1,-451.1 431.1,-451.1 431.33,-455.43 426.59,-451.01 431.62,-460.75"/>
<text text-anchor="start" x="106.16" y="-460.43" font-family="Arial" font-size="10.00">FOREIGN KEY (replaced_player_id) REFERENCES lineup_players (id)</text>
</g>
<!-- game_teams -->
<g id="node3" class="node">
<title>game_teams</title>
<polygon fill="#efefef" stroke="none" points="154.87,-258.8 154.87,-294.4 383.32,-294.4 383.32,-258.8 154.87,-258.8"/>
<polygon fill="none" stroke="black" points="154.87,-258.8 154.87,-294.4 383.32,-294.4 383.32,-258.8 154.87,-258.8"/>
<text text-anchor="start" x="161.87" y="-272.2" font-family="Arial Bold" font-size="18.00">game_teams</text>
<text text-anchor="start" x="251.83" y="-272.2" font-family="Arial" font-size="14.00">    </text>
<text text-anchor="start" x="282.95" y="-272.2" font-family="Arial" font-size="14.00" fill="#666666">[BASE TABLE]</text>
<polygon fill="none" stroke="black" points="154.87,-228 154.87,-258.8 383.32,-258.8 383.32,-228 154.87,-228"/>
<text text-anchor="start" x="161.87" y="-240.2" font-family="Arial" font-size="14.00">id </text>
<text text-anchor="start" x="176.65" y="-240.2" font-family="Arial" font-size="14.00" fill="#666666">[bigint]</text>
<polygon fill="none" stroke="black" points="154.87,-197.2 154.87,-228 383.32,-228 383.32,-197.2 154.87,-197.2"/>
<text text-anchor="start" x="161.87" y="-209.4" font-family="Arial" font-size="14.00">game_id </text>
<text text-anchor="start" x="219.46" y="-209.4" font-family="Arial" font-size="14.00" fill="#666666">[bigint]</text>
<polygon fill="none" stroke="black" points="154.87,-166.4 154.87,-197.2 383.32,-197.2 383.32,-166.4 154.87,-166.4"/>
<text text-anchor="start" x="161.87" y="-178.6" font-family="Arial" font-size="14.00">team_id </text>
<text text-anchor="start" x="215.56" y="-178.6" font-family="Arial" font-size="14.00" fill="#666666">[bigint]</text>
<polygon fill="none" stroke="black" points="154.87,-135.6 154.87,-166.4 383.32,-166.4 383.32,-135.6 154.87,-135.6"/>
<text text-anchor="start" x="161.87" y="-147.8" font-family="Arial" font-size="14.00">cheer_count </text>
<text text-anchor="start" x="242.81" y="-147.8" font-family="Arial" font-size="14.00" fill="#666666">[int]</text>
<polygon fill="none" stroke="black" points="154.87,-104.8 154.87,-135.6 383.32,-135.6 383.32,-104.8 154.87,-104.8"/>
<text text-anchor="start" x="161.87" y="-117" font-family="Arial" font-size="14.00">score </text>
<text text-anchor="start" x="199.99" y="-117" font-family="Arial" font-size="14.00" fill="#666666">[int]</text>
<polygon fill="none" stroke="black" points="154.87,-74 154.87,-104.8 383.32,-104.8 383.32,-74 154.87,-74"/>
<text text-anchor="start" x="161.87" y="-86.2" font-family="Arial" font-size="14.00">pk_score </text>
<text text-anchor="start" x="222.56" y="-86.2" font-family="Arial" font-size="14.00" fill="#666666">[int]</text>
<polygon fill="none" stroke="black" points="154.87,-43.2 154.87,-74 383.32,-74 383.32,-43.2 154.87,-43.2"/>
<text text-anchor="start" x="161.87" y="-55.4" font-family="Arial" font-size="14.00">result </text>
<text text-anchor="start" x="199.99" y="-55.4" font-family="Arial" font-size="14.00" fill="#666666">[varchar(255)]</text>
</g>
<!-- lineup_players&#45;&gt;game_teams -->
<g id="edge6" class="edge">
<title>lineup_players:game_team_id&#45;&gt;game_teams:id</title>
<path fill="none" stroke="black" d="M296.49,-619.5C200.81,-609.85 251.19,-463.03 307.87,-373.6 327.76,-342.21 363.33,-368.92 383.32,-337.6 405.85,-302.31 426.19,-243.4 384.32,-243.4"/>
<polygon fill="black" stroke="black" points="296.54,-619.5 306.32,-624.48 301.87,-619.76 306.2,-619.97 306.2,-619.97 306.2,-619.97 301.87,-619.76 306.75,-615.49 296.54,-619.5"/>
<text text-anchor="start" x="7" y="-630" font-family="Arial" font-size="10.00">FOREIGN KEY (game_team_id) REFERENCES game_teams (id)</text>
</g>
<!-- players -->
<g id="node4" class="node">
<title>players</title>
<polygon fill="#efefef" stroke="none" points="487.99,-212.6 487.99,-248.2 694.2,-248.2 694.2,-212.6 487.99,-212.6"/>
<polygon fill="none" stroke="black" points="487.99,-212.6 487.99,-248.2 694.2,-248.2 694.2,-212.6 487.99,-212.6"/>
<text text-anchor="start" x="502.86" y="-226" font-family="Arial Bold" font-size="18.00">players</text>
<text text-anchor="start" x="554.84" y="-226" font-family="Arial" font-size="14.00">    </text>
<text text-anchor="start" x="585.96" y="-226" font-family="Arial" font-size="14.00" fill="#666666">[BASE TABLE]</text>
<polygon fill="none" stroke="black" points="487.99,-181.8 487.99,-212.6 694.2,-212.6 694.2,-181.8 487.99,-181.8"/>
<text text-anchor="start" x="494.99" y="-194" font-family="Arial" font-size="14.00">id </text>
<text text-anchor="start" x="509.78" y="-194" font-family="Arial" font-size="14.00" fill="#666666">[bigint]</text>
<polygon fill="none" stroke="black" points="487.99,-151 487.99,-181.8 694.2,-181.8 694.2,-151 487.99,-151"/>
<text text-anchor="start" x="494.99" y="-163.2" font-family="Arial" font-size="14.00">name </text>
<text text-anchor="start" x="533.9" y="-163.2" font-family="Arial" font-size="14.00" fill="#666666">[varchar(255)]</text>
<polygon fill="none" stroke="black" points="487.99,-120.2 487.99,-151 694.2,-151 694.2,-120.2 487.99,-120.2"/>
<text text-anchor="start" x="494.99" y="-132.4" font-family="Arial" font-size="14.00">student_number </text>
<text text-anchor="start" x="600.06" y="-132.4" font-family="Arial" font-size="14.00" fill="#666666">[varchar(255)]</text>
<polygon fill="none" stroke="black" points="487.99,-89.4 487.99,-120.2 694.2,-120.2 694.2,-89.4 487.99,-89.4"/>
<text text-anchor="start" x="494.99" y="-101.6" font-family="Arial" font-size="14.00">organization_id </text>
<text text-anchor="start" x="593.84" y="-101.6" font-family="Arial" font-size="14.00" fill="#666666">[bigint]</text>
</g>
<!-- lineup_players&#45;&gt;players -->
<g id="edge7" class="edge">
<title>lineup_players:player_id&#45;&gt;players:id</title>
<path fill="none" stroke="black" d="M563.34,-588.69C644.34,-579.96 582.6,-460.76 552.33,-373.6 537.1,-329.78 503.34,-335.18 487.99,-291.4 474.13,-251.89 445.12,-197.2 486.99,-197.2"/>
<polygon fill="black" stroke="black" points="563.65,-588.68 553.43,-584.69 558.32,-588.95 553.99,-589.17 553.99,-589.17 553.99,-589.17 558.32,-588.95 553.89,-593.68 563.65,-588.68"/>
<text text-anchor="start" x="560.33" y="-599.2" font-family="Arial" font-size="10.00">FOREIGN KEY (player_id) REFERENCES players (id)</text>
</g>
<!-- timelines -->
<g id="node2" class="node">
<title>timelines</title>
<polygon fill="#efefef" stroke="none" points="297.4,-1443.2 297.4,-1478.8 562.79,-1478.8 562.79,-1443.2 297.4,-1443.2"/>
<polygon fill="none" stroke="black" points="297.4,-1443.2 297.4,-1478.8 562.79,-1478.8 562.79,-1443.2 297.4,-1443.2"/>
<text text-anchor="start" x="334.86" y="-1456.6" font-family="Arial Bold" font-size="18.00">timelines</text>
<text text-anchor="start" x="400.85" y="-1456.6" font-family="Arial" font-size="14.00">    </text>
<text text-anchor="start" x="431.96" y="-1456.6" font-family="Arial" font-size="14.00" fill="#666666">[BASE TABLE]</text>
<polygon fill="none" stroke="black" points="297.4,-1412.4 297.4,-1443.2 562.79,-1443.2 562.79,-1412.4 297.4,-1412.4"/>
<text text-anchor="start" x="304.4" y="-1424.6" font-family="Arial" font-size="14.00">id </text>
<text text-anchor="start" x="319.19" y="-1424.6" font-family="Arial" font-size="14.00" fill="#666666">[bigint]</text>
<polygon fill="none" stroke="black" points="297.4,-1381.6 297.4,-1412.4 562.79,-1412.4 562.79,-1381.6 297.4,-1381.6"/>
<text text-anchor="start" x="304.4" y="-1393.8" font-family="Arial" font-size="14.00">type </text>
<text text-anchor="start" x="334.75" y="-1393.8" font-family="Arial" font-size="14.00" fill="#666666">[varchar(255)]</text>
<polygon fill="none" stroke="black" points="297.4,-1350.8 297.4,-1381.6 562.79,-1381.6 562.79,-1350.8 297.4,-1350.8"/>
<text text-anchor="start" x="304.4" y="-1363" font-family="Arial" font-size="14.00">game_id </text>
<text text-anchor="start" x="361.99" y="-1363" font-family="Arial" font-size="14.00" fill="#666666">[bigint]</text>
<polygon fill="none" stroke="black" points="297.4,-1320 297.4,-1350.8 562.79,-1350.8 562.79,-1320 297.4,-1320"/>
<text text-anchor="start" x="304.4" y="-1332.2" font-family="Arial" font-size="14.00">recorded_quarter </text>
<text text-anchor="start" x="415.69" y="-1332.2" font-family="Arial" font-size="14.00" fill="#666666">[varchar(255)]</text>
<polygon fill="none" stroke="black" points="297.4,-1289.2 297.4,-1320 562.79,-1320 562.79,-1289.2 297.4,-1289.2"/>
<text text-anchor="start" x="304.4" y="-1301.4" font-family="Arial" font-size="14.00">recorded_at </text>
<text text-anchor="start" x="383.01" y="-1301.4" font-family="Arial" font-size="14.00" fill="#666666">[int]</text>
<polygon fill="none" stroke="black" points="297.4,-1258.4 297.4,-1289.2 562.79,-1289.2 562.79,-1258.4 297.4,-1258.4"/>
<text text-anchor="start" x="304.4" y="-1270.6" font-family="Arial" font-size="14.00">scorer_id </text>
<text text-anchor="start" x="365.87" y="-1270.6" font-family="Arial" font-size="14.00" fill="#666666">[bigint]</text>
<polygon fill="none" stroke="black" points="297.4,-1227.6 297.4,-1258.4 562.79,-1258.4 562.79,-1227.6 297.4,-1227.6"/>
<text text-anchor="start" x="304.4" y="-1239.8" font-family="Arial" font-size="14.00">score </text>
<text text-anchor="start" x="342.52" y="-1239.8" font-family="Arial" font-size="14.00" fill="#666666">[int]</text>
<polygon fill="none" stroke="black" points="297.4,-1196.8 297.4,-1227.6 562.79,-1227.6 562.79,-1196.8 297.4,-1196.8"/>
<text text-anchor="start" x="304.4" y="-1209" font-family="Arial" font-size="14.00">is_success </text>
<text text-anchor="start" x="376.76" y="-1209" font-family="Arial" font-size="14.00" fill="#666666">[tinyint(1)]</text>
<polygon fill="none" stroke="black" points="297.4,-1166 297.4,-1196.8 562.79,-1196.8 562.79,-1166 297.4,-1166"/>
<text text-anchor="start" x="304.4" y="-1178.2" font-family="Arial" font-size="14.00">origin_lineup_player_id </text>
<text text-anchor="start" x="452.28" y="-1178.2" font-family="Arial" font-size="14.00" fill="#666666">[bigint]</text>
<polygon fill="none" stroke="black" points="297.4,-1135.2 297.4,-1166 562.79,-1166 562.79,-1135.2 297.4,-1135.2"/>
<text text-anchor="start" x="304.4" y="-1147.4" font-family="Arial" font-size="14.00">replaced_lineup_player_id </text>
<text text-anchor="start" x="471.74" y="-1147.4" font-family="Arial" font-size="14.00" fill="#666666">[bigint]</text>
<polygon fill="none" stroke="black" points="297.4,-1104.4 297.4,-1135.2 562.79,-1135.2 562.79,-1104.4 297.4,-1104.4"/>
<text text-anchor="start" x="304.4" y="-1116.6" font-family="Arial" font-size="14.00">game_progress_type </text>
<text text-anchor="start" x="439.81" y="-1116.6" font-family="Arial" font-size="14.00" fill="#666666">[varchar(255)]</text>
<polygon fill="none" stroke="black" points="297.4,-1073.6 297.4,-1104.4 562.79,-1104.4 562.79,-1073.6 297.4,-1073.6"/>
<text text-anchor="start" x="304.4" y="-1085.8" font-family="Arial" font-size="14.00">game_team1_id </text>
<text text-anchor="start" x="408.69" y="-1085.8" font-family="Arial" font-size="14.00" fill="#666666">[bigint]</text>
<polygon fill="none" stroke="black" points="297.4,-1042.8 297.4,-1073.6 562.79,-1073.6 562.79,-1042.8 297.4,-1042.8"/>
<text text-anchor="start" x="304.4" y="-1055" font-family="Arial" font-size="14.00">game_team2_id </text>
<text text-anchor="start" x="408.69" y="-1055" font-family="Arial" font-size="14.00" fill="#666666">[bigint]</text>
<polygon fill="none" stroke="black" points="297.4,-1012 297.4,-1042.8 562.79,-1042.8 562.79,-1012 297.4,-1012"/>
<text text-anchor="start" x="304.4" y="-1024.2" font-family="Arial" font-size="14.00">snapshot_score1 </text>
<text text-anchor="start" x="414.92" y="-1024.2" font-family="Arial" font-size="14.00" fill="#666666">[int]</text>
<polygon fill="none" stroke="black" points="297.4,-981.2 297.4,-1012 562.79,-1012 562.79,-981.2 297.4,-981.2"/>
<text text-anchor="start" x="304.4" y="-993.4" font-family="Arial" font-size="14.00">snapshot_score2 </text>
<text text-anchor="start" x="414.92" y="-993.4" font-family="Arial" font-size="14.00" fill="#666666">[int]</text>
<polygon fill="none" stroke="black" points="297.4,-950.4 297.4,-981.2 562.79,-981.2 562.79,-950.4 297.4,-950.4"/>
<text text-anchor="start" x="304.4" y="-962.6" font-family="Arial" font-size="14.00">previous_quarter </text>
<text text-anchor="start" x="413.35" y="-962.6" font-family="Arial" font-size="14.00" fill="#666666">[varchar(255)]</text>
<polygon fill="none" stroke="black" points="297.4,-919.6 297.4,-950.4 562.79,-950.4 562.79,-919.6 297.4,-919.6"/>
<text text-anchor="start" x="304.4" y="-931.8" font-family="Arial" font-size="14.00">previous_quarter_changed_at </text>
<text text-anchor="start" x="494.32" y="-931.8" font-family="Arial" font-size="14.00" fill="#666666">[datetime]</text>
<polygon fill="none" stroke="black" points="297.4,-888.8 297.4,-919.6 562.79,-919.6 562.79,-888.8 297.4,-888.8"/>
<text text-anchor="start" x="304.4" y="-901" font-family="Arial" font-size="14.00">warning_card_type </text>
<text text-anchor="start" x="426.59" y="-901" font-family="Arial" font-size="14.00" fill="#666666">[varchar(255)]</text>
<polygon fill="none" stroke="black" points="297.4,-858 297.4,-888.8 562.79,-888.8 562.79,-858 297.4,-858"/>
<text text-anchor="start" x="304.4" y="-870.2" font-family="Arial" font-size="14.00">assist_lineup_player_id </text>
<text text-anchor="start" x="453.83" y="-870.2" font-family="Arial" font-size="14.00" fill="#666666">[bigint]</text>
<polygon fill="none" stroke="black" points="297.4,-827.2 297.4,-858 562.79,-858 562.79,-827.2 297.4,-827.2"/>
<text text-anchor="start" x="304.4" y="-839.4" font-family="Arial" font-size="14.00">is_foul_out </text>
<text text-anchor="start" x="376.01" y="-839.4" font-family="Arial" font-size="14.00" fill="#666666">[tinyint(1)]</text>
</g>
<!-- timelines&#45;&gt;lineup_players -->
<g id="edge2" class="edge">
<title>timelines:assist_lineup_player_id&#45;&gt;lineup_players:id</title>
<path fill="none" stroke="black" d="M574.1,-872.55C661.96,-857.6 648.79,-650.8 553.33,-650.8"/>
<polygon fill="black" stroke="black" points="574.09,-872.55 563.75,-868.89 568.77,-872.99 564.46,-873.34 564.46,-873.34 564.46,-873.34 568.77,-872.99 564.5,-877.86 574.09,-872.55"/>
<text text-anchor="start" x="570.79" y="-883.4" font-family="Arial" font-size="10.00">FOREIGN KEY (assist_lineup_player_id) REFERENCES lineup_players (id)</text>
</g>
<!-- timelines&#45;&gt;lineup_players -->
<g id="edge3" class="edge">
<title>timelines:scorer_id&#45;&gt;lineup_players:id</title>
<path fill="none" stroke="black" d="M574.05,-1272.62C701.64,-1242.56 688.27,-650.8 553.33,-650.8"/>
<polygon fill="black" stroke="black" points="574.06,-1272.61 563.61,-1269.29 568.76,-1273.23 564.46,-1273.72 564.46,-1273.72 564.46,-1273.72 568.76,-1273.23 564.64,-1278.23 574.06,-1272.61"/>
<text text-anchor="start" x="570.79" y="-1283.8" font-family="Arial" font-size="10.00">FOREIGN KEY (scorer_id) REFERENCES lineup_players (id)</text>
</g>
<!-- timelines&#45;&gt;lineup_players -->
<g id="edge4" class="edge">
<title>timelines:origin_lineup_player_id&#45;&gt;lineup_players:id</title>
<path fill="none" stroke="black" d="M574,-1181.06C799.3,-1165.97 785.74,-650.8 553.33,-650.8"/>
<polygon fill="black" stroke="black" points="574.12,-1181.06 563.98,-1176.89 568.79,-1181.23 564.46,-1181.38 564.46,-1181.38 564.46,-1181.38 568.79,-1181.23 564.27,-1185.89 574.12,-1181.06"/>
<text text-anchor="start" x="570.79" y="-1191.4" font-family="Arial" font-size="10.00">FOREIGN KEY (origin_lineup_player_id) REFERENCES lineup_players (id)</text>
</g>
<!-- timelines&#45;&gt;lineup_players -->
<g id="edge5" class="edge">
<title>timelines:replaced_lineup_player_id&#45;&gt;lineup_players:id</title>
<path fill="none" stroke="black" d="M574.04,-1150.24C785.59,-1135.1 772.04,-650.8 553.33,-650.8"/>
<polygon fill="black" stroke="black" points="574.12,-1150.23 563.97,-1146.09 568.79,-1150.42 564.46,-1150.58 564.46,-1150.58 564.46,-1150.58 568.79,-1150.42 564.28,-1155.09 574.12,-1150.23"/>
<text text-anchor="start" x="570.79" y="-1160.6" font-family="Arial" font-size="10.00">FOREIGN KEY (replaced_lineup_player_id) REFERENCES lineup_players (id)</text>
</g>
</g>
</svg>
