<?xml version="1.0" encoding="UTF-8" standalone="no"?>
<!DOCTYPE svg PUBLIC "-//W3C//DTD SVG 1.1//EN"
 "http://www.w3.org/Graphics/SVG/1.1/DTD/svg11.dtd">
<!-- Generated by graphviz version 12.1.2 (20240928.0832)
 -->
<!-- Title: members Pages: 1 -->
<svg width="773pt" height="1099pt"
 viewBox="0.00 0.00 772.83 1098.80" xmlns="http://www.w3.org/2000/svg" xmlns:xlink="http://www.w3.org/1999/xlink">
<g id="graph0" class="graph" transform="scale(1 1) rotate(0) translate(4 1094.8)">
<title>members</title>
<polygon fill="white" stroke="none" points="-4,4 -4,-1094.8 768.83,-1094.8 768.83,4 -4,4"/>
<!-- members -->
<g id="node1" class="node">
<title>members</title>
<polygon fill="#efefef" stroke="none" points="249.15,-512.2 249.15,-547.8 453.61,-547.8 453.61,-512.2 249.15,-512.2"/>
<polygon fill="none" stroke="black" points="249.15,-512.2 249.15,-547.8 453.61,-547.8 453.61,-512.2 249.15,-512.2"/>
<text text-anchor="start" x="256.15" y="-525.6" font-family="Arial Bold" font-size="18.00">members</text>
<text text-anchor="start" x="322.12" y="-525.6" font-family="Arial" font-size="14.00">    </text>
<text text-anchor="start" x="353.24" y="-525.6" font-family="Arial" font-size="14.00" fill="#666666">[BASE TABLE]</text>
<polygon fill="none" stroke="black" points="249.15,-481.4 249.15,-512.2 453.61,-512.2 453.61,-481.4 249.15,-481.4"/>
<text text-anchor="start" x="256.15" y="-493.6" font-family="Arial" font-size="14.00">id </text>
<text text-anchor="start" x="270.93" y="-493.6" font-family="Arial" font-size="14.00" fill="#666666">[bigint]</text>
<polygon fill="none" stroke="black" points="249.15,-450.6 249.15,-481.4 453.61,-481.4 453.61,-450.6 249.15,-450.6"/>
<text text-anchor="start" x="256.15" y="-462.8" font-family="Arial" font-size="14.00">organization_id </text>
<text text-anchor="start" x="354.99" y="-462.8" font-family="Arial" font-size="14.00" fill="#666666">[bigint]</text>
<polygon fill="none" stroke="black" points="249.15,-419.8 249.15,-450.6 453.61,-450.6 453.61,-419.8 249.15,-419.8"/>
<text text-anchor="start" x="256.15" y="-432" font-family="Arial" font-size="14.00">email </text>
<text text-anchor="start" x="293.49" y="-432" font-family="Arial" font-size="14.00" fill="#666666">[varchar(255)]</text>
<polygon fill="none" stroke="black" points="249.15,-389 249.15,-419.8 453.61,-419.8 453.61,-389 249.15,-389"/>
<text text-anchor="start" x="256.15" y="-401.2" font-family="Arial" font-size="14.00">password </text>
<text text-anchor="start" x="319.95" y="-401.2" font-family="Arial" font-size="14.00" fill="#666666">[varchar(255)]</text>
<polygon fill="none" stroke="black" points="249.15,-358.2 249.15,-389 453.61,-389 453.61,-358.2 249.15,-358.2"/>
<text text-anchor="start" x="256.15" y="-370.4" font-family="Arial" font-size="14.00">is_administrator </text>
<text text-anchor="start" x="358.85" y="-370.4" font-family="Arial" font-size="14.00" fill="#666666">[tinyint(1)]</text>
<polygon fill="none" stroke="black" points="249.15,-327.4 249.15,-358.2 453.61,-358.2 453.61,-327.4 249.15,-327.4"/>
<text text-anchor="start" x="256.15" y="-339.6" font-family="Arial" font-size="14.00">last_login </text>
<text text-anchor="start" x="319.19" y="-339.6" font-family="Arial" font-size="14.00" fill="#666666">[datetime]</text>
<polygon fill="none" stroke="black" stroke-width="3" points="247.65,-325.9 247.65,-549.3 455.11,-549.3 455.11,-325.9 247.65,-325.9"/>
</g>
<!-- organizations -->
<g id="node4" class="node">
<title>organizations</title>
<polygon fill="#efefef" stroke="none" points="233.65,-166.4 233.65,-202 469.11,-202 469.11,-166.4 233.65,-166.4"/>
<polygon fill="none" stroke="black" points="233.65,-166.4 233.65,-202 469.11,-202 469.11,-166.4 233.65,-166.4"/>
<text text-anchor="start" x="240.65" y="-179.8" font-family="Arial Bold" font-size="18.00">organizations</text>
<text text-anchor="start" x="337.62" y="-179.8" font-family="Arial" font-size="14.00">    </text>
<text text-anchor="start" x="368.74" y="-179.8" font-family="Arial" font-size="14.00" fill="#666666">[BASE TABLE]</text>
<polygon fill="none" stroke="black" points="233.65,-135.6 233.65,-166.4 469.11,-166.4 469.11,-135.6 233.65,-135.6"/>
<text text-anchor="start" x="240.65" y="-147.8" font-family="Arial" font-size="14.00">id </text>
<text text-anchor="start" x="255.44" y="-147.8" font-family="Arial" font-size="14.00" fill="#666666">[bigint]</text>
<polygon fill="none" stroke="black" points="233.65,-104.8 233.65,-135.6 469.11,-135.6 469.11,-104.8 233.65,-104.8"/>
<text text-anchor="start" x="240.65" y="-117" font-family="Arial" font-size="14.00">name </text>
<text text-anchor="start" x="279.56" y="-117" font-family="Arial" font-size="14.00" fill="#666666">[varchar(255)]</text>
<polygon fill="none" stroke="black" points="233.65,-74 233.65,-104.8 469.11,-104.8 469.11,-74 233.65,-74"/>
<text text-anchor="start" x="240.65" y="-86.2" font-family="Arial" font-size="14.00">student_number_digits </text>
<text text-anchor="start" x="386.19" y="-86.2" font-family="Arial" font-size="14.00" fill="#666666">[int]</text>
<polygon fill="none" stroke="black" points="233.65,-43.2 233.65,-74 469.11,-74 469.11,-43.2 233.65,-43.2"/>
<text text-anchor="start" x="240.65" y="-55.4" font-family="Arial" font-size="14.00">logo_image_url </text>
<text text-anchor="start" x="340.27" y="-55.4" font-family="Arial" font-size="14.00" fill="#666666">[varchar(255)]</text>
</g>
<!-- members&#45;&gt;organizations -->
<g id="edge3" class="edge">
<title>members:organization_id&#45;&gt;organizations:id</title>
<path fill="none" stroke="black" d="M464.66,-465.45C595.45,-450.81 606.86,-151 470.11,-151"/>
<polygon fill="black" stroke="black" points="464.93,-465.43 454.7,-461.49 459.61,-465.72 455.28,-465.96 455.28,-465.96 455.28,-465.96 459.61,-465.72 455.2,-470.47 464.93,-465.43"/>
<text text-anchor="start" x="461.61" y="-476" font-family="Arial" font-size="10.00">FOREIGN KEY (organization_id) REFERENCES organizations (id)</text>
</g>
<!-- games -->
<g id="node2" class="node">
<title>games</title>
<polygon fill="#efefef" stroke="none" points="90.04,-1012 90.04,-1047.6 294.72,-1047.6 294.72,-1012 90.04,-1012"/>
<polygon fill="none" stroke="black" points="90.04,-1012 90.04,-1047.6 294.72,-1047.6 294.72,-1012 90.04,-1012"/>
<text text-anchor="start" x="107.14" y="-1025.4" font-family="Arial Bold" font-size="18.00">games</text>
<text text-anchor="start" x="153.13" y="-1025.4" font-family="Arial" font-size="14.00">    </text>
<text text-anchor="start" x="184.24" y="-1025.4" font-family="Arial" font-size="14.00" fill="#666666">[BASE TABLE]</text>
<polygon fill="none" stroke="black" points="90.04,-981.2 90.04,-1012 294.72,-1012 294.72,-981.2 90.04,-981.2"/>
<text text-anchor="start" x="97.04" y="-993.4" font-family="Arial" font-size="14.00">id </text>
<text text-anchor="start" x="111.82" y="-993.4" font-family="Arial" font-size="14.00" fill="#666666">[bigint]</text>
<polygon fill="none" stroke="black" points="90.04,-950.4 90.04,-981.2 294.72,-981.2 294.72,-950.4 90.04,-950.4"/>
<text text-anchor="start" x="97.04" y="-962.6" font-family="Arial" font-size="14.00">administrator_id </text>
<text text-anchor="start" x="200.52" y="-962.6" font-family="Arial" font-size="14.00" fill="#666666">[bigint]</text>
<polygon fill="none" stroke="black" points="90.04,-919.6 90.04,-950.4 294.72,-950.4 294.72,-919.6 90.04,-919.6"/>
<text text-anchor="start" x="97.04" y="-931.8" font-family="Arial" font-size="14.00">league_id </text>
<text text-anchor="start" x="161.65" y="-931.8" font-family="Arial" font-size="14.00" fill="#666666">[bigint]</text>
<polygon fill="none" stroke="black" points="90.04,-888.8 90.04,-919.6 294.72,-919.6 294.72,-888.8 90.04,-888.8"/>
<text text-anchor="start" x="97.04" y="-901" font-family="Arial" font-size="14.00">start_time </text>
<text text-anchor="start" x="162.39" y="-901" font-family="Arial" font-size="14.00" fill="#666666">[datetime]</text>
<polygon fill="none" stroke="black" points="90.04,-858 90.04,-888.8 294.72,-888.8 294.72,-858 90.04,-858"/>
<text text-anchor="start" x="97.04" y="-870.2" font-family="Arial" font-size="14.00">name </text>
<text text-anchor="start" x="135.95" y="-870.2" font-family="Arial" font-size="14.00" fill="#666666">[varchar(255)]</text>
<polygon fill="none" stroke="black" points="90.04,-827.2 90.04,-858 294.72,-858 294.72,-827.2 90.04,-827.2"/>
<text text-anchor="start" x="97.04" y="-839.4" font-family="Arial" font-size="14.00">video_id </text>
<text text-anchor="start" x="153.08" y="-839.4" font-family="Arial" font-size="14.00" fill="#666666">[varchar(255)]</text>
<polygon fill="none" stroke="black" points="90.04,-796.4 90.04,-827.2 294.72,-827.2 294.72,-796.4 90.04,-796.4"/>
<text text-anchor="start" x="97.04" y="-808.6" font-family="Arial" font-size="14.00">quarter_changed_at </text>
<text text-anchor="start" x="226.25" y="-808.6" font-family="Arial" font-size="14.00" fill="#666666">[datetime]</text>
<polygon fill="none" stroke="black" points="90.04,-765.6 90.04,-796.4 294.72,-796.4 294.72,-765.6 90.04,-765.6"/>
<text text-anchor="start" x="97.04" y="-777.8" font-family="Arial" font-size="14.00">game_quarter </text>
<text text-anchor="start" x="188.09" y="-777.8" font-family="Arial" font-size="14.00" fill="#666666">[varchar(255)]</text>
<polygon fill="none" stroke="black" points="90.04,-734.8 90.04,-765.6 294.72,-765.6 294.72,-734.8 90.04,-734.8"/>
<text text-anchor="start" x="97.04" y="-747" font-family="Arial" font-size="14.00">state </text>
<text text-anchor="start" x="131.28" y="-747" font-family="Arial" font-size="14.00" fill="#666666">[varchar(255)]</text>
<polygon fill="none" stroke="black" points="90.04,-704 90.04,-734.8 294.72,-734.8 294.72,-704 90.04,-704"/>
<text text-anchor="start" x="97.04" y="-716.2" font-family="Arial" font-size="14.00">round </text>
<text text-anchor="start" x="136.73" y="-716.2" font-family="Arial" font-size="14.00" fill="#666666">[varchar(255)]</text>
<polygon fill="none" stroke="black" points="90.04,-673.2 90.04,-704 294.72,-704 294.72,-673.2 90.04,-673.2"/>
<text text-anchor="start" x="97.04" y="-685.4" font-family="Arial" font-size="14.00">is_pk_taken </text>
<text text-anchor="start" x="175.64" y="-685.4" font-family="Arial" font-size="14.00" fill="#666666">[tinyint(1)]</text>
</g>
<!-- games&#45;&gt;members -->
<g id="edge1" class="edge">
<title>games:administrator_id&#45;&gt;members:id</title>
<path fill="none" stroke="black" d="M305.83,-963.93C366.17,-940.04 325.76,-693.83 294.72,-630 283.43,-606.79 260.52,-617.17 249.15,-594 230.11,-555.22 204.94,-496.8 248.15,-496.8"/>
<polygon fill="black" stroke="black" points="305.89,-963.92 295.23,-961.31 300.64,-964.89 296.38,-965.68 296.38,-965.68 296.38,-965.68 300.64,-964.89 296.87,-970.16 305.89,-963.92"/>
<text text-anchor="start" x="7" y="-975.8" font-family="Arial" font-size="10.00">FOREIGN KEY (administrator_id) REFERENCES members (id)</text>
</g>
<!-- leagues -->
<g id="node3" class="node">
<title>leagues</title>
<polygon fill="#efefef" stroke="none" points="399.49,-996.6 399.49,-1032.2 621.27,-1032.2 621.27,-996.6 399.49,-996.6"/>
<polygon fill="none" stroke="black" points="399.49,-996.6 399.49,-1032.2 621.27,-1032.2 621.27,-996.6 399.49,-996.6"/>
<text text-anchor="start" x="421.15" y="-1010" font-family="Arial Bold" font-size="18.00">leagues</text>
<text text-anchor="start" x="475.12" y="-1010" font-family="Arial" font-size="14.00">    </text>
<text text-anchor="start" x="506.24" y="-1010" font-family="Arial" font-size="14.00" fill="#666666">[BASE TABLE]</text>
<polygon fill="none" stroke="black" points="399.49,-965.8 399.49,-996.6 621.27,-996.6 621.27,-965.8 399.49,-965.8"/>
<text text-anchor="start" x="406.49" y="-978" font-family="Arial" font-size="14.00">id </text>
<text text-anchor="start" x="421.28" y="-978" font-family="Arial" font-size="14.00" fill="#666666">[bigint]</text>
<polygon fill="none" stroke="black" points="399.49,-935 399.49,-965.8 621.27,-965.8 621.27,-935 399.49,-935"/>
<text text-anchor="start" x="406.49" y="-947.2" font-family="Arial" font-size="14.00">organization_id </text>
<text text-anchor="start" x="505.34" y="-947.2" font-family="Arial" font-size="14.00" fill="#666666">[bigint]</text>
<polygon fill="none" stroke="black" points="399.49,-904.2 399.49,-935 621.27,-935 621.27,-904.2 399.49,-904.2"/>
<text text-anchor="start" x="406.49" y="-916.4" font-family="Arial" font-size="14.00">administrator_id </text>
<text text-anchor="start" x="509.98" y="-916.4" font-family="Arial" font-size="14.00" fill="#666666">[bigint]</text>
<polygon fill="none" stroke="black" points="399.49,-873.4 399.49,-904.2 621.27,-904.2 621.27,-873.4 399.49,-873.4"/>
<text text-anchor="start" x="406.49" y="-885.6" font-family="Arial" font-size="14.00">name </text>
<text text-anchor="start" x="445.4" y="-885.6" font-family="Arial" font-size="14.00" fill="#666666">[varchar(255)]</text>
<polygon fill="none" stroke="black" points="399.49,-842.6 399.49,-873.4 621.27,-873.4 621.27,-842.6 399.49,-842.6"/>
<text text-anchor="start" x="406.49" y="-854.8" font-family="Arial" font-size="14.00">start_at </text>
<text text-anchor="start" x="457.07" y="-854.8" font-family="Arial" font-size="14.00" fill="#666666">[datetime]</text>
<polygon fill="none" stroke="black" points="399.49,-811.8 399.49,-842.6 621.27,-842.6 621.27,-811.8 399.49,-811.8"/>
<text text-anchor="start" x="406.49" y="-824" font-family="Arial" font-size="14.00">end_at </text>
<text text-anchor="start" x="453.2" y="-824" font-family="Arial" font-size="14.00" fill="#666666">[datetime]</text>
<polygon fill="none" stroke="black" points="399.49,-781 399.49,-811.8 621.27,-811.8 621.27,-781 399.49,-781"/>
<text text-anchor="start" x="406.49" y="-793.2" font-family="Arial" font-size="14.00">is_deleted </text>
<text text-anchor="start" x="474.21" y="-793.2" font-family="Arial" font-size="14.00" fill="#666666">[tinyint(1)]</text>
<polygon fill="none" stroke="black" points="399.49,-750.2 399.49,-781 621.27,-781 621.27,-750.2 399.49,-750.2"/>
<text text-anchor="start" x="406.49" y="-762.4" font-family="Arial" font-size="14.00">max_round </text>
<text text-anchor="start" x="480.42" y="-762.4" font-family="Arial" font-size="14.00" fill="#666666">[varchar(255)]</text>
<polygon fill="none" stroke="black" points="399.49,-719.4 399.49,-750.2 621.27,-750.2 621.27,-719.4 399.49,-719.4"/>
<text text-anchor="start" x="406.49" y="-731.6" font-family="Arial" font-size="14.00">in_progress_round </text>
<text text-anchor="start" x="527.12" y="-731.6" font-family="Arial" font-size="14.00" fill="#666666">[varchar(255)]</text>
<polygon fill="none" stroke="black" points="399.49,-688.6 399.49,-719.4 621.27,-719.4 621.27,-688.6 399.49,-688.6"/>
<text text-anchor="start" x="406.49" y="-700.8" font-family="Arial" font-size="14.00">sport_type </text>
<text text-anchor="start" x="475.75" y="-700.8" font-family="Arial" font-size="14.00" fill="#666666">[varchar(20)]</text>
</g>
<!-- leagues&#45;&gt;members -->
<g id="edge2" class="edge">
<title>leagues:administrator_id&#45;&gt;members:id</title>
<path fill="none" stroke="black" d="M388.48,-917.28C342.08,-893.77 376.81,-697.96 399.49,-645.4 412.64,-614.94 440.37,-624.41 453.61,-594 470.86,-554.39 497.82,-496.8 454.61,-496.8"/>
<polygon fill="black" stroke="black" points="388.42,-917.27 397.15,-923.91 393.62,-918.47 397.84,-919.45 397.84,-919.45 397.84,-919.45 393.62,-918.47 399.18,-915.14 388.42,-917.27"/>
<text text-anchor="start" x="405.49" y="-929.6" font-family="Arial" font-size="10.00">FOREIGN KEY (administrator_id) REFERENCES members (id)</text>
</g>
</g>
</svg>
