<?xml version="1.0" encoding="UTF-8" standalone="no"?>
<!DOCTYPE svg PUBLIC "-//W3C//DTD SVG 1.1//EN"
 "http://www.w3.org/Graphics/SVG/1.1/DTD/svg11.dtd">
<!-- Generated by graphviz version 12.1.2 (20240928.0832)
 -->
<!-- Title: organizations Pages: 1 -->
<svg width="1351pt" height="725pt"
 viewBox="0.00 0.00 1350.79 725.20" xmlns="http://www.w3.org/2000/svg" xmlns:xlink="http://www.w3.org/1999/xlink">
<g id="graph0" class="graph" transform="scale(1 1) rotate(0) translate(4 721.2)">
<title>organizations</title>
<polygon fill="white" stroke="none" points="-4,4 -4,-721.2 1346.79,-721.2 1346.79,4 -4,4"/>
<!-- organizations -->
<g id="node1" class="node">
<title>organizations</title>
<polygon fill="#efefef" stroke="none" points="553.6,-169.4 553.6,-205 789.06,-205 789.06,-169.4 553.6,-169.4"/>
<polygon fill="none" stroke="black" points="553.6,-169.4 553.6,-205 789.06,-205 789.06,-169.4 553.6,-169.4"/>
<text text-anchor="start" x="560.6" y="-182.8" font-family="Arial Bold" font-size="18.00">organizations</text>
<text text-anchor="start" x="657.57" y="-182.8" font-family="Arial" font-size="14.00">    </text>
<text text-anchor="start" x="688.68" y="-182.8" font-family="Arial" font-size="14.00" fill="#666666">[BASE TABLE]</text>
<polygon fill="none" stroke="black" points="553.6,-138.6 553.6,-169.4 789.06,-169.4 789.06,-138.6 553.6,-138.6"/>
<text text-anchor="start" x="560.6" y="-150.8" font-family="Arial" font-size="14.00">id </text>
<text text-anchor="start" x="575.38" y="-150.8" font-family="Arial" font-size="14.00" fill="#666666">[bigint]</text>
<polygon fill="none" stroke="black" points="553.6,-107.8 553.6,-138.6 789.06,-138.6 789.06,-107.8 553.6,-107.8"/>
<text text-anchor="start" x="560.6" y="-120" font-family="Arial" font-size="14.00">name </text>
<text text-anchor="start" x="599.51" y="-120" font-family="Arial" font-size="14.00" fill="#666666">[varchar(255)]</text>
<polygon fill="none" stroke="black" points="553.6,-77 553.6,-107.8 789.06,-107.8 789.06,-77 553.6,-77"/>
<text text-anchor="start" x="560.6" y="-89.2" font-family="Arial" font-size="14.00">student_number_digits </text>
<text text-anchor="start" x="706.13" y="-89.2" font-family="Arial" font-size="14.00" fill="#666666">[int]</text>
<polygon fill="none" stroke="black" points="553.6,-46.2 553.6,-77 789.06,-77 789.06,-46.2 553.6,-46.2"/>
<text text-anchor="start" x="560.6" y="-58.4" font-family="Arial" font-size="14.00">logo_image_url </text>
<text text-anchor="start" x="660.22" y="-58.4" font-family="Arial" font-size="14.00" fill="#666666">[varchar(255)]</text>
<polygon fill="none" stroke="black" stroke-width="3" points="552.1,-44.7 552.1,-206.5 790.56,-206.5 790.56,-44.7 552.1,-44.7"/>
</g>
<!-- leagues -->
<g id="node2" class="node">
<title>leagues</title>
<polygon fill="#efefef" stroke="none" points="87.44,-638.4 87.44,-674 309.22,-674 309.22,-638.4 87.44,-638.4"/>
<polygon fill="none" stroke="black" points="87.44,-638.4 87.44,-674 309.22,-674 309.22,-638.4 87.44,-638.4"/>
<text text-anchor="start" x="109.1" y="-651.8" font-family="Arial Bold" font-size="18.00">leagues</text>
<text text-anchor="start" x="163.07" y="-651.8" font-family="Arial" font-size="14.00">    </text>
<text text-anchor="start" x="194.19" y="-651.8" font-family="Arial" font-size="14.00" fill="#666666">[BASE TABLE]</text>
<polygon fill="none" stroke="black" points="87.44,-607.6 87.44,-638.4 309.22,-638.4 309.22,-607.6 87.44,-607.6"/>
<text text-anchor="start" x="94.44" y="-619.8" font-family="Arial" font-size="14.00">id </text>
<text text-anchor="start" x="109.22" y="-619.8" font-family="Arial" font-size="14.00" fill="#666666">[bigint]</text>
<polygon fill="none" stroke="black" points="87.44,-576.8 87.44,-607.6 309.22,-607.6 309.22,-576.8 87.44,-576.8"/>
<text text-anchor="start" x="94.44" y="-589" font-family="Arial" font-size="14.00">organization_id </text>
<text text-anchor="start" x="193.29" y="-589" font-family="Arial" font-size="14.00" fill="#666666">[bigint]</text>
<polygon fill="none" stroke="black" points="87.44,-546 87.44,-576.8 309.22,-576.8 309.22,-546 87.44,-546"/>
<text text-anchor="start" x="94.44" y="-558.2" font-family="Arial" font-size="14.00">administrator_id </text>
<text text-anchor="start" x="197.93" y="-558.2" font-family="Arial" font-size="14.00" fill="#666666">[bigint]</text>
<polygon fill="none" stroke="black" points="87.44,-515.2 87.44,-546 309.22,-546 309.22,-515.2 87.44,-515.2"/>
<text text-anchor="start" x="94.44" y="-527.4" font-family="Arial" font-size="14.00">name </text>
<text text-anchor="start" x="133.35" y="-527.4" font-family="Arial" font-size="14.00" fill="#666666">[varchar(255)]</text>
<polygon fill="none" stroke="black" points="87.44,-484.4 87.44,-515.2 309.22,-515.2 309.22,-484.4 87.44,-484.4"/>
<text text-anchor="start" x="94.44" y="-496.6" font-family="Arial" font-size="14.00">start_at </text>
<text text-anchor="start" x="145.02" y="-496.6" font-family="Arial" font-size="14.00" fill="#666666">[datetime]</text>
<polygon fill="none" stroke="black" points="87.44,-453.6 87.44,-484.4 309.22,-484.4 309.22,-453.6 87.44,-453.6"/>
<text text-anchor="start" x="94.44" y="-465.8" font-family="Arial" font-size="14.00">end_at </text>
<text text-anchor="start" x="141.15" y="-465.8" font-family="Arial" font-size="14.00" fill="#666666">[datetime]</text>
<polygon fill="none" stroke="black" points="87.44,-422.8 87.44,-453.6 309.22,-453.6 309.22,-422.8 87.44,-422.8"/>
<text text-anchor="start" x="94.44" y="-435" font-family="Arial" font-size="14.00">is_deleted </text>
<text text-anchor="start" x="162.15" y="-435" font-family="Arial" font-size="14.00" fill="#666666">[tinyint(1)]</text>
<polygon fill="none" stroke="black" points="87.44,-392 87.44,-422.8 309.22,-422.8 309.22,-392 87.44,-392"/>
<text text-anchor="start" x="94.44" y="-404.2" font-family="Arial" font-size="14.00">max_round </text>
<text text-anchor="start" x="168.37" y="-404.2" font-family="Arial" font-size="14.00" fill="#666666">[varchar(255)]</text>
<polygon fill="none" stroke="black" points="87.44,-361.2 87.44,-392 309.22,-392 309.22,-361.2 87.44,-361.2"/>
<text text-anchor="start" x="94.44" y="-373.4" font-family="Arial" font-size="14.00">in_progress_round </text>
<text text-anchor="start" x="215.07" y="-373.4" font-family="Arial" font-size="14.00" fill="#666666">[varchar(255)]</text>
<polygon fill="none" stroke="black" points="87.44,-330.4 87.44,-361.2 309.22,-361.2 309.22,-330.4 87.44,-330.4"/>
<text text-anchor="start" x="94.44" y="-342.6" font-family="Arial" font-size="14.00">sport_type </text>
<text text-anchor="start" x="163.7" y="-342.6" font-family="Arial" font-size="14.00" fill="#666666">[varchar(20)]</text>
</g>
<!-- leagues&#45;&gt;organizations -->
<g id="edge1" class="edge">
<title>leagues:organization_id&#45;&gt;organizations:id</title>
<path fill="none" stroke="black" d="M320.44,-590.06C373.4,-565.76 327.55,-342.11 362.33,-287.2 417.56,-200 449.37,-154 552.6,-154"/>
<polygon fill="black" stroke="black" points="320.33,-590.08 309.62,-587.73 315.11,-591.17 310.87,-592.06 310.87,-592.06 310.87,-592.06 315.11,-591.17 311.47,-596.54 320.33,-590.08"/>
<text text-anchor="start" x="7" y="-602.2" font-family="Arial" font-size="10.00">FOREIGN KEY (organization_id) REFERENCES organizations (id)</text>
</g>
<!-- members -->
<g id="node3" class="node">
<title>members</title>
<polygon fill="#efefef" stroke="none" points="414.09,-576.8 414.09,-612.4 618.56,-612.4 618.56,-576.8 414.09,-576.8"/>
<polygon fill="none" stroke="black" points="414.09,-576.8 414.09,-612.4 618.56,-612.4 618.56,-576.8 414.09,-576.8"/>
<text text-anchor="start" x="421.09" y="-590.2" font-family="Arial Bold" font-size="18.00">members</text>
<text text-anchor="start" x="487.07" y="-590.2" font-family="Arial" font-size="14.00">    </text>
<text text-anchor="start" x="518.19" y="-590.2" font-family="Arial" font-size="14.00" fill="#666666">[BASE TABLE]</text>
<polygon fill="none" stroke="black" points="414.09,-546 414.09,-576.8 618.56,-576.8 618.56,-546 414.09,-546"/>
<text text-anchor="start" x="421.09" y="-558.2" font-family="Arial" font-size="14.00">id </text>
<text text-anchor="start" x="435.88" y="-558.2" font-family="Arial" font-size="14.00" fill="#666666">[bigint]</text>
<polygon fill="none" stroke="black" points="414.09,-515.2 414.09,-546 618.56,-546 618.56,-515.2 414.09,-515.2"/>
<text text-anchor="start" x="421.09" y="-527.4" font-family="Arial" font-size="14.00">organization_id </text>
<text text-anchor="start" x="519.94" y="-527.4" font-family="Arial" font-size="14.00" fill="#666666">[bigint]</text>
<polygon fill="none" stroke="black" points="414.09,-484.4 414.09,-515.2 618.56,-515.2 618.56,-484.4 414.09,-484.4"/>
<text text-anchor="start" x="421.09" y="-496.6" font-family="Arial" font-size="14.00">email </text>
<text text-anchor="start" x="458.44" y="-496.6" font-family="Arial" font-size="14.00" fill="#666666">[varchar(255)]</text>
<polygon fill="none" stroke="black" points="414.09,-453.6 414.09,-484.4 618.56,-484.4 618.56,-453.6 414.09,-453.6"/>
<text text-anchor="start" x="421.09" y="-465.8" font-family="Arial" font-size="14.00">password </text>
<text text-anchor="start" x="484.9" y="-465.8" font-family="Arial" font-size="14.00" fill="#666666">[varchar(255)]</text>
<polygon fill="none" stroke="black" points="414.09,-422.8 414.09,-453.6 618.56,-453.6 618.56,-422.8 414.09,-422.8"/>
<text text-anchor="start" x="421.09" y="-435" font-family="Arial" font-size="14.00">is_administrator </text>
<text text-anchor="start" x="523.8" y="-435" font-family="Arial" font-size="14.00" fill="#666666">[tinyint(1)]</text>
<polygon fill="none" stroke="black" points="414.09,-392 414.09,-422.8 618.56,-422.8 618.56,-392 414.09,-392"/>
<text text-anchor="start" x="421.09" y="-404.2" font-family="Arial" font-size="14.00">last_login </text>
<text text-anchor="start" x="484.13" y="-404.2" font-family="Arial" font-size="14.00" fill="#666666">[datetime]</text>
</g>
<!-- members&#45;&gt;organizations -->
<g id="edge2" class="edge">
<title>members:organization_id&#45;&gt;organizations:id</title>
<path fill="none" stroke="black" d="M629.62,-529.98C695.2,-521.26 641.1,-422.61 618.56,-348.8 603.34,-298.96 568.94,-301 553.6,-251.2 540.88,-209.91 509.39,-154 552.6,-154"/>
<polygon fill="black" stroke="black" points="629.88,-529.96 619.62,-526.09 624.55,-530.29 620.23,-530.56 620.23,-530.56 620.23,-530.56 624.55,-530.29 620.17,-535.07 629.88,-529.96"/>
<text text-anchor="start" x="316.35" y="-540.6" font-family="Arial" font-size="10.00">FOREIGN KEY (organization_id) REFERENCES organizations (id)</text>
</g>
<!-- players -->
<g id="node4" class="node">
<title>players</title>
<polygon fill="#efefef" stroke="none" points="723.22,-546 723.22,-581.6 929.43,-581.6 929.43,-546 723.22,-546"/>
<polygon fill="none" stroke="black" points="723.22,-546 723.22,-581.6 929.43,-581.6 929.43,-546 723.22,-546"/>
<text text-anchor="start" x="738.09" y="-559.4" font-family="Arial Bold" font-size="18.00">players</text>
<text text-anchor="start" x="790.07" y="-559.4" font-family="Arial" font-size="14.00">    </text>
<text text-anchor="start" x="821.19" y="-559.4" font-family="Arial" font-size="14.00" fill="#666666">[BASE TABLE]</text>
<polygon fill="none" stroke="black" points="723.22,-515.2 723.22,-546 929.43,-546 929.43,-515.2 723.22,-515.2"/>
<text text-anchor="start" x="730.22" y="-527.4" font-family="Arial" font-size="14.00">id </text>
<text text-anchor="start" x="745.01" y="-527.4" font-family="Arial" font-size="14.00" fill="#666666">[bigint]</text>
<polygon fill="none" stroke="black" points="723.22,-484.4 723.22,-515.2 929.43,-515.2 929.43,-484.4 723.22,-484.4"/>
<text text-anchor="start" x="730.22" y="-496.6" font-family="Arial" font-size="14.00">name </text>
<text text-anchor="start" x="769.13" y="-496.6" font-family="Arial" font-size="14.00" fill="#666666">[varchar(255)]</text>
<polygon fill="none" stroke="black" points="723.22,-453.6 723.22,-484.4 929.43,-484.4 929.43,-453.6 723.22,-453.6"/>
<text text-anchor="start" x="730.22" y="-465.8" font-family="Arial" font-size="14.00">student_number </text>
<text text-anchor="start" x="835.29" y="-465.8" font-family="Arial" font-size="14.00" fill="#666666">[varchar(255)]</text>
<polygon fill="none" stroke="black" points="723.22,-422.8 723.22,-453.6 929.43,-453.6 929.43,-422.8 723.22,-422.8"/>
<text text-anchor="start" x="730.22" y="-435" font-family="Arial" font-size="14.00">organization_id </text>
<text text-anchor="start" x="829.07" y="-435" font-family="Arial" font-size="14.00" fill="#666666">[bigint]</text>
</g>
<!-- players&#45;&gt;organizations -->
<g id="edge3" class="edge">
<title>players:organization_id&#45;&gt;organizations:id</title>
<path fill="none" stroke="black" d="M712.35,-435.21C703.15,-426.48 718.03,-400.33 723.22,-379.6 748.63,-278.16 894.63,-154 790.06,-154"/>
<polygon fill="black" stroke="black" points="712.33,-435.2 720.6,-442.41 717.43,-436.75 721.58,-438.01 721.58,-438.01 721.58,-438.01 717.43,-436.75 723.2,-433.8 712.33,-435.2"/>
<text text-anchor="start" x="496.56" y="-422.2" font-family="Arial" font-size="10.00">FOREIGN KEY (organization_id) REFERENCES organizations (id)</text>
</g>
<!-- units -->
<g id="node5" class="node">
<title>units</title>
<polygon fill="#efefef" stroke="none" points="1033.58,-530.6 1033.58,-566.2 1207.07,-566.2 1207.07,-530.6 1033.58,-530.6"/>
<polygon fill="none" stroke="black" points="1033.58,-530.6 1033.58,-566.2 1207.07,-566.2 1207.07,-530.6 1033.58,-530.6"/>
<text text-anchor="start" x="1040.58" y="-544" font-family="Arial Bold" font-size="18.00">units</text>
<text text-anchor="start" x="1075.59" y="-544" font-family="Arial" font-size="14.00">    </text>
<text text-anchor="start" x="1106.7" y="-544" font-family="Arial" font-size="14.00" fill="#666666">[BASE TABLE]</text>
<polygon fill="none" stroke="black" points="1033.58,-499.8 1033.58,-530.6 1207.07,-530.6 1207.07,-499.8 1033.58,-499.8"/>
<text text-anchor="start" x="1040.58" y="-512" font-family="Arial" font-size="14.00">id </text>
<text text-anchor="start" x="1055.36" y="-512" font-family="Arial" font-size="14.00" fill="#666666">[bigint]</text>
<polygon fill="none" stroke="black" points="1033.58,-469 1033.58,-499.8 1207.07,-499.8 1207.07,-469 1033.58,-469"/>
<text text-anchor="start" x="1040.58" y="-481.2" font-family="Arial" font-size="14.00">name </text>
<text text-anchor="start" x="1079.49" y="-481.2" font-family="Arial" font-size="14.00" fill="#666666">[varchar(255)]</text>
<polygon fill="none" stroke="black" points="1033.58,-438.2 1033.58,-469 1207.07,-469 1207.07,-438.2 1033.58,-438.2"/>
<text text-anchor="start" x="1040.58" y="-450.4" font-family="Arial" font-size="14.00">organization_id </text>
<text text-anchor="start" x="1139.43" y="-450.4" font-family="Arial" font-size="14.00" fill="#666666">[bigint]</text>
</g>
<!-- units&#45;&gt;organizations -->
<g id="edge4" class="edge">
<title>units:organization_id&#45;&gt;organizations:id</title>
<path fill="none" stroke="black" d="M1022.28,-452.87C961.92,-443.55 1024.73,-346.65 981.33,-287.2 920.24,-203.53 893.65,-154 790.06,-154"/>
<polygon fill="black" stroke="black" points="1022.27,-452.87 1031.93,-458.07 1027.59,-453.25 1031.91,-453.55 1031.91,-453.55 1031.91,-453.55 1027.59,-453.25 1032.56,-449.09 1022.27,-452.87"/>
<text text-anchor="start" x="1039.58" y="-463.6" font-family="Arial" font-size="10.00">FOREIGN KEY (organization_id) REFERENCES organizations (id)</text>
</g>
</g>
</svg>
