<?xml version="1.0" encoding="UTF-8" standalone="no"?>
<!DOCTYPE svg PUBLIC "-//W3C//DTD SVG 1.1//EN"
 "http://www.w3.org/Graphics/SVG/1.1/DTD/svg11.dtd">
<!-- Generated by graphviz version 12.1.2 (20240928.0832)
 -->
<!-- Title: players Pages: 1 -->
<svg width="1059pt" height="945pt"
 viewBox="0.00 0.00 1059.34 944.80" xmlns="http://www.w3.org/2000/svg" xmlns:xlink="http://www.w3.org/1999/xlink">
<g id="graph0" class="graph" transform="scale(1 1) rotate(0) translate(4 940.8)">
<title>players</title>
<polygon fill="white" stroke="none" points="-4,4 -4,-940.8 1055.34,-940.8 1055.34,4 -4,4"/>
<!-- players -->
<g id="node1" class="node">
<title>players</title>
<polygon fill="#efefef" stroke="none" points="443.81,-450.6 443.81,-486.2 650.02,-486.2 650.02,-450.6 443.81,-450.6"/>
<polygon fill="none" stroke="black" points="443.81,-450.6 443.81,-486.2 650.02,-486.2 650.02,-450.6 443.81,-450.6"/>
<text text-anchor="start" x="458.68" y="-464" font-family="Arial Bold" font-size="18.00">players</text>
<text text-anchor="start" x="510.66" y="-464" font-family="Arial" font-size="14.00">    </text>
<text text-anchor="start" x="541.78" y="-464" font-family="Arial" font-size="14.00" fill="#666666">[BASE TABLE]</text>
<polygon fill="none" stroke="black" points="443.81,-419.8 443.81,-450.6 650.02,-450.6 650.02,-419.8 443.81,-419.8"/>
<text text-anchor="start" x="450.81" y="-432" font-family="Arial" font-size="14.00">id </text>
<text text-anchor="start" x="465.6" y="-432" font-family="Arial" font-size="14.00" fill="#666666">[bigint]</text>
<polygon fill="none" stroke="black" points="443.81,-389 443.81,-419.8 650.02,-419.8 650.02,-389 443.81,-389"/>
<text text-anchor="start" x="450.81" y="-401.2" font-family="Arial" font-size="14.00">name </text>
<text text-anchor="start" x="489.72" y="-401.2" font-family="Arial" font-size="14.00" fill="#666666">[varchar(255)]</text>
<polygon fill="none" stroke="black" points="443.81,-358.2 443.81,-389 650.02,-389 650.02,-358.2 443.81,-358.2"/>
<text text-anchor="start" x="450.81" y="-370.4" font-family="Arial" font-size="14.00">student_number </text>
<text text-anchor="start" x="555.88" y="-370.4" font-family="Arial" font-size="14.00" fill="#666666">[varchar(255)]</text>
<polygon fill="none" stroke="black" points="443.81,-327.4 443.81,-358.2 650.02,-358.2 650.02,-327.4 443.81,-327.4"/>
<text text-anchor="start" x="450.81" y="-339.6" font-family="Arial" font-size="14.00">organization_id </text>
<text text-anchor="start" x="549.66" y="-339.6" font-family="Arial" font-size="14.00" fill="#666666">[bigint]</text>
<polygon fill="none" stroke="black" stroke-width="3" points="442.31,-325.9 442.31,-487.7 651.52,-487.7 651.52,-325.9 442.31,-325.9"/>
</g>
<!-- organizations -->
<g id="node5" class="node">
<title>organizations</title>
<polygon fill="#efefef" stroke="none" points="429.19,-166.4 429.19,-202 664.65,-202 664.65,-166.4 429.19,-166.4"/>
<polygon fill="none" stroke="black" points="429.19,-166.4 429.19,-202 664.65,-202 664.65,-166.4 429.19,-166.4"/>
<text text-anchor="start" x="436.19" y="-179.8" font-family="Arial Bold" font-size="18.00">organizations</text>
<text text-anchor="start" x="533.16" y="-179.8" font-family="Arial" font-size="14.00">    </text>
<text text-anchor="start" x="564.28" y="-179.8" font-family="Arial" font-size="14.00" fill="#666666">[BASE TABLE]</text>
<polygon fill="none" stroke="black" points="429.19,-135.6 429.19,-166.4 664.65,-166.4 664.65,-135.6 429.19,-135.6"/>
<text text-anchor="start" x="436.19" y="-147.8" font-family="Arial" font-size="14.00">id </text>
<text text-anchor="start" x="450.97" y="-147.8" font-family="Arial" font-size="14.00" fill="#666666">[bigint]</text>
<polygon fill="none" stroke="black" points="429.19,-104.8 429.19,-135.6 664.65,-135.6 664.65,-104.8 429.19,-104.8"/>
<text text-anchor="start" x="436.19" y="-117" font-family="Arial" font-size="14.00">name </text>
<text text-anchor="start" x="475.1" y="-117" font-family="Arial" font-size="14.00" fill="#666666">[varchar(255)]</text>
<polygon fill="none" stroke="black" points="429.19,-74 429.19,-104.8 664.65,-104.8 664.65,-74 429.19,-74"/>
<text text-anchor="start" x="436.19" y="-86.2" font-family="Arial" font-size="14.00">student_number_digits </text>
<text text-anchor="start" x="581.73" y="-86.2" font-family="Arial" font-size="14.00" fill="#666666">[int]</text>
<polygon fill="none" stroke="black" points="429.19,-43.2 429.19,-74 664.65,-74 664.65,-43.2 429.19,-43.2"/>
<text text-anchor="start" x="436.19" y="-55.4" font-family="Arial" font-size="14.00">logo_image_url </text>
<text text-anchor="start" x="535.81" y="-55.4" font-family="Arial" font-size="14.00" fill="#666666">[varchar(255)]</text>
</g>
<!-- players&#45;&gt;organizations -->
<g id="edge4" class="edge">
<title>players:organization_id&#45;&gt;organizations:id</title>
<path fill="none" stroke="black" d="M547.79,-316.24C557.02,-267.02 636.55,-298.03 664.65,-245.2 684.31,-208.23 707.52,-151 665.65,-151"/>
<polygon fill="black" stroke="black" points="547.81,-316.1 542.46,-325.68 547.35,-321.42 546.98,-325.73 546.98,-325.73 546.98,-325.73 547.35,-321.42 551.43,-326.45 547.81,-316.1"/>
<text text-anchor="start" x="243.7" y="-336.4" font-family="Arial" font-size="10.00">FOREIGN KEY (organization_id) REFERENCES organizations (id)</text>
</g>
<!-- league_top_scorers -->
<g id="node2" class="node">
<title>league_top_scorers</title>
<polygon fill="#efefef" stroke="none" points="43.2,-811.8 43.2,-847.4 320.64,-847.4 320.64,-811.8 43.2,-811.8"/>
<polygon fill="none" stroke="black" points="43.2,-811.8 43.2,-847.4 320.64,-847.4 320.64,-811.8 43.2,-811.8"/>
<text text-anchor="start" x="50.2" y="-825.2" font-family="Arial Bold" font-size="18.00">league_top_scorers</text>
<text text-anchor="start" x="189.15" y="-825.2" font-family="Arial" font-size="14.00">    </text>
<text text-anchor="start" x="220.26" y="-825.2" font-family="Arial" font-size="14.00" fill="#666666">[BASE TABLE]</text>
<polygon fill="none" stroke="black" points="43.2,-781 43.2,-811.8 320.64,-811.8 320.64,-781 43.2,-781"/>
<text text-anchor="start" x="50.2" y="-793.2" font-family="Arial" font-size="14.00">id </text>
<text text-anchor="start" x="64.99" y="-793.2" font-family="Arial" font-size="14.00" fill="#666666">[bigint]</text>
<polygon fill="none" stroke="black" points="43.2,-750.2 43.2,-781 320.64,-781 320.64,-750.2 43.2,-750.2"/>
<text text-anchor="start" x="50.2" y="-762.4" font-family="Arial" font-size="14.00">league_id </text>
<text text-anchor="start" x="114.81" y="-762.4" font-family="Arial" font-size="14.00" fill="#666666">[bigint]</text>
<polygon fill="none" stroke="black" points="43.2,-719.4 43.2,-750.2 320.64,-750.2 320.64,-719.4 43.2,-719.4"/>
<text text-anchor="start" x="50.2" y="-731.6" font-family="Arial" font-size="14.00">player_id </text>
<text text-anchor="start" x="110.9" y="-731.6" font-family="Arial" font-size="14.00" fill="#666666">[bigint]</text>
<polygon fill="none" stroke="black" points="43.2,-688.6 43.2,-719.4 320.64,-719.4 320.64,-688.6 43.2,-688.6"/>
<text text-anchor="start" x="50.2" y="-700.8" font-family="Arial" font-size="14.00">ranking </text>
<text text-anchor="start" x="100.01" y="-700.8" font-family="Arial" font-size="14.00" fill="#666666">[int]</text>
<polygon fill="none" stroke="black" points="43.2,-657.8 43.2,-688.6 320.64,-688.6 320.64,-657.8 43.2,-657.8"/>
<text text-anchor="start" x="50.2" y="-670" font-family="Arial" font-size="14.00">goal_count </text>
<text text-anchor="start" x="122.59" y="-670" font-family="Arial" font-size="14.00" fill="#666666">[int]</text>
</g>
<!-- league_top_scorers&#45;&gt;players -->
<g id="edge1" class="edge">
<title>league_top_scorers:player_id&#45;&gt;players:id</title>
<path fill="none" stroke="black" d="M332.05,-734.14C393.8,-725.59 344.86,-636.45 372.92,-568.4 398.4,-506.59 375.96,-435.2 442.81,-435.2"/>
<polygon fill="black" stroke="black" points="331.95,-734.14 321.68,-730.29 326.63,-734.48 322.3,-734.76 322.3,-734.76 322.3,-734.76 326.63,-734.48 322.26,-739.27 331.95,-734.14"/>
<text text-anchor="start" x="328.64" y="-744.8" font-family="Arial" font-size="10.00">FOREIGN KEY (player_id) REFERENCES players (id)</text>
</g>
<!-- lineup_players -->
<g id="node3" class="node">
<title>lineup_players</title>
<polygon fill="#efefef" stroke="none" points="424.69,-858 424.69,-893.6 669.15,-893.6 669.15,-858 424.69,-858"/>
<polygon fill="none" stroke="black" points="424.69,-858 424.69,-893.6 669.15,-893.6 669.15,-858 424.69,-858"/>
<text text-anchor="start" x="431.69" y="-871.4" font-family="Arial Bold" font-size="18.00">lineup_players</text>
<text text-anchor="start" x="537.66" y="-871.4" font-family="Arial" font-size="14.00">    </text>
<text text-anchor="start" x="568.78" y="-871.4" font-family="Arial" font-size="14.00" fill="#666666">[BASE TABLE]</text>
<polygon fill="none" stroke="black" points="424.69,-827.2 424.69,-858 669.15,-858 669.15,-827.2 424.69,-827.2"/>
<text text-anchor="start" x="431.69" y="-839.4" font-family="Arial" font-size="14.00">id </text>
<text text-anchor="start" x="446.47" y="-839.4" font-family="Arial" font-size="14.00" fill="#666666">[bigint]</text>
<polygon fill="none" stroke="black" points="424.69,-796.4 424.69,-827.2 669.15,-827.2 669.15,-796.4 424.69,-796.4"/>
<text text-anchor="start" x="431.69" y="-808.6" font-family="Arial" font-size="14.00">game_team_id </text>
<text text-anchor="start" x="528.19" y="-808.6" font-family="Arial" font-size="14.00" fill="#666666">[bigint]</text>
<polygon fill="none" stroke="black" points="424.69,-765.6 424.69,-796.4 669.15,-796.4 669.15,-765.6 424.69,-765.6"/>
<text text-anchor="start" x="431.69" y="-777.8" font-family="Arial" font-size="14.00">player_id </text>
<text text-anchor="start" x="492.39" y="-777.8" font-family="Arial" font-size="14.00" fill="#666666">[bigint]</text>
<polygon fill="none" stroke="black" points="424.69,-734.8 424.69,-765.6 669.15,-765.6 669.15,-734.8 424.69,-734.8"/>
<text text-anchor="start" x="431.69" y="-747" font-family="Arial" font-size="14.00">jersey_number </text>
<text text-anchor="start" x="528.18" y="-747" font-family="Arial" font-size="14.00" fill="#666666">[int]</text>
<polygon fill="none" stroke="black" points="424.69,-704 424.69,-734.8 669.15,-734.8 669.15,-704 424.69,-704"/>
<text text-anchor="start" x="431.69" y="-716.2" font-family="Arial" font-size="14.00">is_captain </text>
<text text-anchor="start" x="498.62" y="-716.2" font-family="Arial" font-size="14.00" fill="#666666">[tinyint(1)]</text>
<polygon fill="none" stroke="black" points="424.69,-673.2 424.69,-704 669.15,-704 669.15,-673.2 424.69,-673.2"/>
<text text-anchor="start" x="431.69" y="-685.4" font-family="Arial" font-size="14.00">state </text>
<text text-anchor="start" x="465.93" y="-685.4" font-family="Arial" font-size="14.00" fill="#666666">[varchar(255)]</text>
<polygon fill="none" stroke="black" points="424.69,-642.4 424.69,-673.2 669.15,-673.2 669.15,-642.4 424.69,-642.4"/>
<text text-anchor="start" x="431.69" y="-654.6" font-family="Arial" font-size="14.00">is_playing </text>
<text text-anchor="start" x="497.84" y="-654.6" font-family="Arial" font-size="14.00" fill="#666666">[tinyint(1)]</text>
<polygon fill="none" stroke="black" points="424.69,-611.6 424.69,-642.4 669.15,-642.4 669.15,-611.6 424.69,-611.6"/>
<text text-anchor="start" x="431.69" y="-623.8" font-family="Arial" font-size="14.00">replaced_player_id </text>
<text text-anchor="start" x="553.88" y="-623.8" font-family="Arial" font-size="14.00" fill="#666666">[bigint]</text>
</g>
<!-- lineup_players&#45;&gt;players -->
<g id="edge2" class="edge">
<title>lineup_players:player_id&#45;&gt;players:id</title>
<path fill="none" stroke="black" d="M680.34,-778.79C745.19,-749.34 724.38,-435.2 651.02,-435.2"/>
<polygon fill="black" stroke="black" points="680.25,-778.81 669.52,-776.53 675.03,-779.94 670.8,-780.86 670.8,-780.86 670.8,-780.86 675.03,-779.94 671.43,-785.33 680.25,-778.81"/>
<text text-anchor="start" x="421.42" y="-791" font-family="Arial" font-size="10.00">FOREIGN KEY (player_id) REFERENCES players (id)</text>
</g>
<!-- team_players -->
<g id="node4" class="node">
<title>team_players</title>
<polygon fill="#efefef" stroke="none" points="773.69,-796.4 773.69,-832 1008.14,-832 1008.14,-796.4 773.69,-796.4"/>
<polygon fill="none" stroke="black" points="773.69,-796.4 773.69,-832 1008.14,-832 1008.14,-796.4 773.69,-796.4"/>
<text text-anchor="start" x="780.69" y="-809.8" font-family="Arial Bold" font-size="18.00">team_players</text>
<text text-anchor="start" x="876.65" y="-809.8" font-family="Arial" font-size="14.00">    </text>
<text text-anchor="start" x="907.77" y="-809.8" font-family="Arial" font-size="14.00" fill="#666666">[BASE TABLE]</text>
<polygon fill="none" stroke="black" points="773.69,-765.6 773.69,-796.4 1008.14,-796.4 1008.14,-765.6 773.69,-765.6"/>
<text text-anchor="start" x="780.69" y="-777.8" font-family="Arial" font-size="14.00">id </text>
<text text-anchor="start" x="795.48" y="-777.8" font-family="Arial" font-size="14.00" fill="#666666">[bigint]</text>
<polygon fill="none" stroke="black" points="773.69,-734.8 773.69,-765.6 1008.14,-765.6 1008.14,-734.8 773.69,-734.8"/>
<text text-anchor="start" x="780.69" y="-747" font-family="Arial" font-size="14.00">team_id </text>
<text text-anchor="start" x="834.39" y="-747" font-family="Arial" font-size="14.00" fill="#666666">[bigint]</text>
<polygon fill="none" stroke="black" points="773.69,-704 773.69,-734.8 1008.14,-734.8 1008.14,-704 773.69,-704"/>
<text text-anchor="start" x="780.69" y="-716.2" font-family="Arial" font-size="14.00">player_id </text>
<text text-anchor="start" x="841.4" y="-716.2" font-family="Arial" font-size="14.00" fill="#666666">[bigint]</text>
<polygon fill="none" stroke="black" points="773.69,-673.2 773.69,-704 1008.14,-704 1008.14,-673.2 773.69,-673.2"/>
<text text-anchor="start" x="780.69" y="-685.4" font-family="Arial" font-size="14.00">jersey_number </text>
<text text-anchor="start" x="877.18" y="-685.4" font-family="Arial" font-size="14.00" fill="#666666">[int]</text>
</g>
<!-- team_players&#45;&gt;players -->
<g id="edge3" class="edge">
<title>team_players:player_id&#45;&gt;players:id</title>
<path fill="none" stroke="black" d="M762.43,-718.7C706.52,-710.4 747.51,-630.12 720.92,-568.4 694.47,-507 717.88,-435.2 651.02,-435.2"/>
<polygon fill="black" stroke="black" points="762.38,-718.7 772.05,-723.87 767.71,-719.06 772.03,-719.35 772.03,-719.35 772.03,-719.35 767.71,-719.06 772.67,-714.89 762.38,-718.7"/>
<text text-anchor="start" x="587.9" y="-703.4" font-family="Arial" font-size="10.00">FOREIGN KEY (player_id) REFERENCES players (id)</text>
</g>
</g>
</svg>
