<?xml version="1.0" encoding="UTF-8" standalone="no"?>
<!DOCTYPE svg PUBLIC "-//W3C//DTD SVG 1.1//EN"
 "http://www.w3.org/Graphics/SVG/1.1/DTD/svg11.dtd">
<!-- Generated by graphviz version 12.1.2 (20240928.0832)
 -->
<!-- Title: reports Pages: 1 -->
<svg width="550pt" height="602pt"
 viewBox="0.00 0.00 550.19 602.00" xmlns="http://www.w3.org/2000/svg" xmlns:xlink="http://www.w3.org/1999/xlink">
<g id="graph0" class="graph" transform="scale(1 1) rotate(0) translate(4 598)">
<title>reports</title>
<polygon fill="white" stroke="none" points="-4,4 -4,-598 546.19,-598 546.19,4 -4,4"/>
<!-- reports -->
<g id="node1" class="node">
<title>reports</title>
<polygon fill="#efefef" stroke="none" points="59.19,-512.2 59.19,-547.8 247.66,-547.8 247.66,-512.2 59.19,-512.2"/>
<polygon fill="none" stroke="black" points="59.19,-512.2 59.19,-547.8 247.66,-547.8 247.66,-512.2 59.19,-512.2"/>
<text text-anchor="start" x="66.19" y="-525.6" font-family="Arial Bold" font-size="18.00">reports</text>
<text text-anchor="start" x="116.17" y="-525.6" font-family="Arial" font-size="14.00">    </text>
<text text-anchor="start" x="147.29" y="-525.6" font-family="Arial" font-size="14.00" fill="#666666">[BASE TABLE]</text>
<polygon fill="none" stroke="black" points="59.19,-481.4 59.19,-512.2 247.66,-512.2 247.66,-481.4 59.19,-481.4"/>
<text text-anchor="start" x="66.19" y="-493.6" font-family="Arial" font-size="14.00">id </text>
<text text-anchor="start" x="80.97" y="-493.6" font-family="Arial" font-size="14.00" fill="#666666">[bigint]</text>
<polygon fill="none" stroke="black" points="59.19,-450.6 59.19,-481.4 247.66,-481.4 247.66,-450.6 59.19,-450.6"/>
<text text-anchor="start" x="66.19" y="-462.8" font-family="Arial" font-size="14.00">cheer_talk_id </text>
<text text-anchor="start" x="153.35" y="-462.8" font-family="Arial" font-size="14.00" fill="#666666">[bigint]</text>
<polygon fill="none" stroke="black" points="59.19,-419.8 59.19,-450.6 247.66,-450.6 247.66,-419.8 59.19,-419.8"/>
<text text-anchor="start" x="66.19" y="-432" font-family="Arial" font-size="14.00">reported_at </text>
<text text-anchor="start" x="141.68" y="-432" font-family="Arial" font-size="14.00" fill="#666666">[datetime]</text>
<polygon fill="none" stroke="black" points="59.19,-389 59.19,-419.8 247.66,-419.8 247.66,-389 59.19,-389"/>
<text text-anchor="start" x="66.19" y="-401.2" font-family="Arial" font-size="14.00">state </text>
<text text-anchor="start" x="100.43" y="-401.2" font-family="Arial" font-size="14.00" fill="#666666">[varchar(255)]</text>
<polygon fill="none" stroke="black" stroke-width="3" points="57.69,-387.5 57.69,-549.3 249.16,-549.3 249.16,-387.5 57.69,-387.5"/>
</g>
<!-- cheer_talks -->
<g id="node2" class="node">
<title>cheer_talks</title>
<polygon fill="#efefef" stroke="none" points="43.2,-228 43.2,-263.6 263.65,-263.6 263.65,-228 43.2,-228"/>
<polygon fill="none" stroke="black" points="43.2,-228 43.2,-263.6 263.65,-263.6 263.65,-228 43.2,-228"/>
<text text-anchor="start" x="50.2" y="-241.4" font-family="Arial Bold" font-size="18.00">cheer_talks</text>
<text text-anchor="start" x="132.16" y="-241.4" font-family="Arial" font-size="14.00">    </text>
<text text-anchor="start" x="163.28" y="-241.4" font-family="Arial" font-size="14.00" fill="#666666">[BASE TABLE]</text>
<polygon fill="none" stroke="black" points="43.2,-197.2 43.2,-228 263.65,-228 263.65,-197.2 43.2,-197.2"/>
<text text-anchor="start" x="50.2" y="-209.4" font-family="Arial" font-size="14.00">id </text>
<text text-anchor="start" x="64.99" y="-209.4" font-family="Arial" font-size="14.00" fill="#666666">[bigint]</text>
<polygon fill="none" stroke="black" points="43.2,-166.4 43.2,-197.2 263.65,-197.2 263.65,-166.4 43.2,-166.4"/>
<text text-anchor="start" x="50.2" y="-178.6" font-family="Arial" font-size="14.00">game_team_id </text>
<text text-anchor="start" x="146.7" y="-178.6" font-family="Arial" font-size="14.00" fill="#666666">[bigint]</text>
<polygon fill="none" stroke="black" points="43.2,-135.6 43.2,-166.4 263.65,-166.4 263.65,-135.6 43.2,-135.6"/>
<text text-anchor="start" x="50.2" y="-147.8" font-family="Arial" font-size="14.00">content </text>
<text text-anchor="start" x="100.01" y="-147.8" font-family="Arial" font-size="14.00" fill="#666666">[varchar(255)]</text>
<polygon fill="none" stroke="black" points="43.2,-104.8 43.2,-135.6 263.65,-135.6 263.65,-104.8 43.2,-104.8"/>
<text text-anchor="start" x="50.2" y="-117" font-family="Arial" font-size="14.00">created_at </text>
<text text-anchor="start" x="120.25" y="-117" font-family="Arial" font-size="14.00" fill="#666666">[datetime]</text>
<polygon fill="none" stroke="black" points="43.2,-74 43.2,-104.8 263.65,-104.8 263.65,-74 43.2,-74"/>
<text text-anchor="start" x="50.2" y="-86.2" font-family="Arial" font-size="14.00">block_status </text>
<text text-anchor="start" x="131.91" y="-86.2" font-family="Arial" font-size="14.00" fill="#666666">[varchar(50)]</text>
<polygon fill="none" stroke="black" points="43.2,-43.2 43.2,-74 263.65,-74 263.65,-43.2 43.2,-43.2"/>
<text text-anchor="start" x="50.2" y="-55.4" font-family="Arial" font-size="14.00">is_ai_seed </text>
<text text-anchor="start" x="121.03" y="-55.4" font-family="Arial" font-size="14.00" fill="#666666">[tinyint(1)]</text>
</g>
<!-- reports&#45;&gt;cheer_talks -->
<g id="edge1" class="edge">
<title>reports:cheer_talk_id&#45;&gt;cheer_talks:id</title>
<path fill="none" stroke="black" d="M258.46,-463.33C306.75,-436.24 317.65,-212.6 264.65,-212.6"/>
<polygon fill="black" stroke="black" points="258.63,-463.28 247.8,-461.57 253.48,-464.68 249.31,-465.82 249.31,-465.82 249.31,-465.82 253.48,-464.68 250.17,-470.25 258.63,-463.28"/>
<text text-anchor="start" x="255.66" y="-476" font-family="Arial" font-size="10.00">FOREIGN KEY (cheer_talk_id) REFERENCES cheer_talks (id)</text>
</g>
</g>
</svg>
