<?xml version="1.0" encoding="UTF-8" standalone="no"?>
<!DOCTYPE svg PUBLIC "-//W3C//DTD SVG 1.1//EN"
 "http://www.w3.org/Graphics/SVG/1.1/DTD/svg11.dtd">
<!-- Generated by graphviz version 12.1.2 (20240928.0832)
 -->
<!-- Title: team_players Pages: 1 -->
<svg width="746pt" height="633pt"
 viewBox="0.00 0.00 745.89 632.80" xmlns="http://www.w3.org/2000/svg" xmlns:xlink="http://www.w3.org/1999/xlink">
<g id="graph0" class="graph" transform="scale(1 1) rotate(0) translate(4 628.8)">
<title>team_players</title>
<polygon fill="white" stroke="none" points="-4,4 -4,-628.8 741.89,-628.8 741.89,4 -4,4"/>
<!-- team_players -->
<g id="node1" class="node">
<title>team_players</title>
<polygon fill="#efefef" stroke="none" points="246.71,-543 246.71,-578.6 481.16,-578.6 481.16,-543 246.71,-543"/>
<polygon fill="none" stroke="black" points="246.71,-543 246.71,-578.6 481.16,-578.6 481.16,-543 246.71,-543"/>
<text text-anchor="start" x="253.71" y="-556.4" font-family="Arial Bold" font-size="18.00">team_players</text>
<text text-anchor="start" x="349.67" y="-556.4" font-family="Arial" font-size="14.00">    </text>
<text text-anchor="start" x="380.79" y="-556.4" font-family="Arial" font-size="14.00" fill="#666666">[BASE TABLE]</text>
<polygon fill="none" stroke="black" points="246.71,-512.2 246.71,-543 481.16,-543 481.16,-512.2 246.71,-512.2"/>
<text text-anchor="start" x="253.71" y="-524.4" font-family="Arial" font-size="14.00">id </text>
<text text-anchor="start" x="268.5" y="-524.4" font-family="Arial" font-size="14.00" fill="#666666">[bigint]</text>
<polygon fill="none" stroke="black" points="246.71,-481.4 246.71,-512.2 481.16,-512.2 481.16,-481.4 246.71,-481.4"/>
<text text-anchor="start" x="253.71" y="-493.6" font-family="Arial" font-size="14.00">team_id </text>
<text text-anchor="start" x="307.41" y="-493.6" font-family="Arial" font-size="14.00" fill="#666666">[bigint]</text>
<polygon fill="none" stroke="black" points="246.71,-450.6 246.71,-481.4 481.16,-481.4 481.16,-450.6 246.71,-450.6"/>
<text text-anchor="start" x="253.71" y="-462.8" font-family="Arial" font-size="14.00">player_id </text>
<text text-anchor="start" x="314.42" y="-462.8" font-family="Arial" font-size="14.00" fill="#666666">[bigint]</text>
<polygon fill="none" stroke="black" points="246.71,-419.8 246.71,-450.6 481.16,-450.6 481.16,-419.8 246.71,-419.8"/>
<text text-anchor="start" x="253.71" y="-432" font-family="Arial" font-size="14.00">jersey_number </text>
<text text-anchor="start" x="350.2" y="-432" font-family="Arial" font-size="14.00" fill="#666666">[int]</text>
<polygon fill="none" stroke="black" stroke-width="3" points="245.21,-418.3 245.21,-580.1 482.66,-580.1 482.66,-418.3 245.21,-418.3"/>
</g>
<!-- teams -->
<g id="node2" class="node">
<title>teams</title>
<polygon fill="#efefef" stroke="none" points="109.56,-258.8 109.56,-294.4 310.32,-294.4 310.32,-258.8 109.56,-258.8"/>
<polygon fill="none" stroke="black" points="109.56,-258.8 109.56,-294.4 310.32,-294.4 310.32,-258.8 109.56,-258.8"/>
<text text-anchor="start" x="126.7" y="-272.2" font-family="Arial Bold" font-size="18.00">teams</text>
<text text-anchor="start" x="168.69" y="-272.2" font-family="Arial" font-size="14.00">    </text>
<text text-anchor="start" x="199.8" y="-272.2" font-family="Arial" font-size="14.00" fill="#666666">[BASE TABLE]</text>
<polygon fill="none" stroke="black" points="109.56,-228 109.56,-258.8 310.32,-258.8 310.32,-228 109.56,-228"/>
<text text-anchor="start" x="116.56" y="-240.2" font-family="Arial" font-size="14.00">id </text>
<text text-anchor="start" x="131.34" y="-240.2" font-family="Arial" font-size="14.00" fill="#666666">[bigint]</text>
<polygon fill="none" stroke="black" points="109.56,-197.2 109.56,-228 310.32,-228 310.32,-197.2 109.56,-197.2"/>
<text text-anchor="start" x="116.56" y="-209.4" font-family="Arial" font-size="14.00">name </text>
<text text-anchor="start" x="155.47" y="-209.4" font-family="Arial" font-size="14.00" fill="#666666">[varchar(255)]</text>
<polygon fill="none" stroke="black" points="109.56,-166.4 109.56,-197.2 310.32,-197.2 310.32,-166.4 109.56,-166.4"/>
<text text-anchor="start" x="116.56" y="-178.6" font-family="Arial" font-size="14.00">logo_image_url </text>
<text text-anchor="start" x="216.18" y="-178.6" font-family="Arial" font-size="14.00" fill="#666666">[varchar(255)]</text>
<polygon fill="none" stroke="black" points="109.56,-135.6 109.56,-166.4 310.32,-166.4 310.32,-135.6 109.56,-135.6"/>
<text text-anchor="start" x="116.56" y="-147.8" font-family="Arial" font-size="14.00">team_color </text>
<text text-anchor="start" x="189.7" y="-147.8" font-family="Arial" font-size="14.00" fill="#666666">[varchar(255)]</text>
<polygon fill="none" stroke="black" points="109.56,-104.8 109.56,-135.6 310.32,-135.6 310.32,-104.8 109.56,-104.8"/>
<text text-anchor="start" x="116.56" y="-117" font-family="Arial" font-size="14.00">is_deleted </text>
<text text-anchor="start" x="184.27" y="-117" font-family="Arial" font-size="14.00" fill="#666666">[tinyint(1)]</text>
<polygon fill="none" stroke="black" points="109.56,-74 109.56,-104.8 310.32,-104.8 310.32,-74 109.56,-74"/>
<text text-anchor="start" x="116.56" y="-86.2" font-family="Arial" font-size="14.00">sport_type </text>
<text text-anchor="start" x="185.82" y="-86.2" font-family="Arial" font-size="14.00" fill="#666666">[varchar(20)]</text>
<polygon fill="none" stroke="black" points="109.56,-43.2 109.56,-74 310.32,-74 310.32,-43.2 109.56,-43.2"/>
<text text-anchor="start" x="116.56" y="-55.4" font-family="Arial" font-size="14.00">unit_id </text>
<text text-anchor="start" x="161.7" y="-55.4" font-family="Arial" font-size="14.00" fill="#666666">[bigint]</text>
</g>
<!-- team_players&#45;&gt;teams -->
<g id="edge1" class="edge">
<title>team_players:team_id&#45;&gt;teams:id</title>
<path fill="none" stroke="black" d="M235.36,-495.71C194.89,-486.25 220.89,-417.47 246.71,-373.6 263.19,-345.61 293.81,-365.57 310.32,-337.6 331.6,-301.54 353.19,-243.4 311.32,-243.4"/>
<polygon fill="black" stroke="black" points="235.44,-495.72 244.91,-501.24 240.74,-496.28 245.05,-496.73 245.05,-496.73 245.05,-496.73 240.74,-496.28 245.85,-492.29 235.44,-495.72"/>
<text text-anchor="start" x="7" y="-506.8" font-family="Arial" font-size="10.00">FOREIGN KEY (team_id) REFERENCES teams (id)</text>
</g>
<!-- players -->
<g id="node3" class="node">
<title>players</title>
<polygon fill="#efefef" stroke="none" points="414.83,-212.6 414.83,-248.2 621.04,-248.2 621.04,-212.6 414.83,-212.6"/>
<polygon fill="none" stroke="black" points="414.83,-212.6 414.83,-248.2 621.04,-248.2 621.04,-212.6 414.83,-212.6"/>
<text text-anchor="start" x="429.7" y="-226" font-family="Arial Bold" font-size="18.00">players</text>
<text text-anchor="start" x="481.68" y="-226" font-family="Arial" font-size="14.00">    </text>
<text text-anchor="start" x="512.8" y="-226" font-family="Arial" font-size="14.00" fill="#666666">[BASE TABLE]</text>
<polygon fill="none" stroke="black" points="414.83,-181.8 414.83,-212.6 621.04,-212.6 621.04,-181.8 414.83,-181.8"/>
<text text-anchor="start" x="421.83" y="-194" font-family="Arial" font-size="14.00">id </text>
<text text-anchor="start" x="436.62" y="-194" font-family="Arial" font-size="14.00" fill="#666666">[bigint]</text>
<polygon fill="none" stroke="black" points="414.83,-151 414.83,-181.8 621.04,-181.8 621.04,-151 414.83,-151"/>
<text text-anchor="start" x="421.83" y="-163.2" font-family="Arial" font-size="14.00">name </text>
<text text-anchor="start" x="460.74" y="-163.2" font-family="Arial" font-size="14.00" fill="#666666">[varchar(255)]</text>
<polygon fill="none" stroke="black" points="414.83,-120.2 414.83,-151 621.04,-151 621.04,-120.2 414.83,-120.2"/>
<text text-anchor="start" x="421.83" y="-132.4" font-family="Arial" font-size="14.00">student_number </text>
<text text-anchor="start" x="526.9" y="-132.4" font-family="Arial" font-size="14.00" fill="#666666">[varchar(255)]</text>
<polygon fill="none" stroke="black" points="414.83,-89.4 414.83,-120.2 621.04,-120.2 621.04,-89.4 414.83,-89.4"/>
<text text-anchor="start" x="421.83" y="-101.6" font-family="Arial" font-size="14.00">organization_id </text>
<text text-anchor="start" x="520.68" y="-101.6" font-family="Arial" font-size="14.00" fill="#666666">[bigint]</text>
</g>
<!-- team_players&#45;&gt;players -->
<g id="edge2" class="edge">
<title>team_players:player_id&#45;&gt;players:id</title>
<path fill="none" stroke="black" d="M492.29,-464.53C517.86,-455.65 493.69,-408.48 481.16,-373.6 465.29,-329.42 430.7,-335.58 414.83,-291.4 400.68,-252 371.96,-197.2 413.83,-197.2"/>
<polygon fill="black" stroke="black" points="492.39,-464.51 481.85,-461.5 487.11,-465.28 482.82,-465.9 482.82,-465.9 482.82,-465.9 487.11,-465.28 483.14,-470.4 492.39,-464.51"/>
<text text-anchor="start" x="489.16" y="-476" font-family="Arial" font-size="10.00">FOREIGN KEY (player_id) REFERENCES players (id)</text>
</g>
</g>
</svg>
