<?xml version="1.0" encoding="UTF-8" standalone="no"?>
<!DOCTYPE svg PUBLIC "-//W3C//DTD SVG 1.1//EN"
 "http://www.w3.org/Graphics/SVG/1.1/DTD/svg11.dtd">
<!-- Generated by graphviz version 12.1.2 (20240928.0832)
 -->
<!-- Title: teams Pages: 1 -->
<svg width="1364pt" height="976pt"
 viewBox="0.00 0.00 1363.85 975.60" xmlns="http://www.w3.org/2000/svg" xmlns:xlink="http://www.w3.org/1999/xlink">
<g id="graph0" class="graph" transform="scale(1 1) rotate(0) translate(4 971.6)">
<title>teams</title>
<polygon fill="white" stroke="none" points="-4,4 -4,-971.6 1359.85,-971.6 1359.85,4 -4,4"/>
<!-- teams -->
<g id="node1" class="node">
<title>teams</title>
<polygon fill="#efefef" stroke="none" points="404.04,-512.2 404.04,-547.8 604.81,-547.8 604.81,-512.2 404.04,-512.2"/>
<polygon fill="none" stroke="black" points="404.04,-512.2 404.04,-547.8 604.81,-547.8 604.81,-512.2 404.04,-512.2"/>
<text text-anchor="start" x="421.19" y="-525.6" font-family="Arial Bold" font-size="18.00">teams</text>
<text text-anchor="start" x="463.18" y="-525.6" font-family="Arial" font-size="14.00">    </text>
<text text-anchor="start" x="494.29" y="-525.6" font-family="Arial" font-size="14.00" fill="#666666">[BASE TABLE]</text>
<polygon fill="none" stroke="black" points="404.04,-481.4 404.04,-512.2 604.81,-512.2 604.81,-481.4 404.04,-481.4"/>
<text text-anchor="start" x="411.04" y="-493.6" font-family="Arial" font-size="14.00">id </text>
<text text-anchor="start" x="425.83" y="-493.6" font-family="Arial" font-size="14.00" fill="#666666">[bigint]</text>
<polygon fill="none" stroke="black" points="404.04,-450.6 404.04,-481.4 604.81,-481.4 604.81,-450.6 404.04,-450.6"/>
<text text-anchor="start" x="411.04" y="-462.8" font-family="Arial" font-size="14.00">name </text>
<text text-anchor="start" x="449.95" y="-462.8" font-family="Arial" font-size="14.00" fill="#666666">[varchar(255)]</text>
<polygon fill="none" stroke="black" points="404.04,-419.8 404.04,-450.6 604.81,-450.6 604.81,-419.8 404.04,-419.8"/>
<text text-anchor="start" x="411.04" y="-432" font-family="Arial" font-size="14.00">logo_image_url </text>
<text text-anchor="start" x="510.66" y="-432" font-family="Arial" font-size="14.00" fill="#666666">[varchar(255)]</text>
<polygon fill="none" stroke="black" points="404.04,-389 404.04,-419.8 604.81,-419.8 604.81,-389 404.04,-389"/>
<text text-anchor="start" x="411.04" y="-401.2" font-family="Arial" font-size="14.00">team_color </text>
<text text-anchor="start" x="484.19" y="-401.2" font-family="Arial" font-size="14.00" fill="#666666">[varchar(255)]</text>
<polygon fill="none" stroke="black" points="404.04,-358.2 404.04,-389 604.81,-389 604.81,-358.2 404.04,-358.2"/>
<text text-anchor="start" x="411.04" y="-370.4" font-family="Arial" font-size="14.00">is_deleted </text>
<text text-anchor="start" x="478.76" y="-370.4" font-family="Arial" font-size="14.00" fill="#666666">[tinyint(1)]</text>
<polygon fill="none" stroke="black" points="404.04,-327.4 404.04,-358.2 604.81,-358.2 604.81,-327.4 404.04,-327.4"/>
<text text-anchor="start" x="411.04" y="-339.6" font-family="Arial" font-size="14.00">sport_type </text>
<text text-anchor="start" x="480.31" y="-339.6" font-family="Arial" font-size="14.00" fill="#666666">[varchar(20)]</text>
<polygon fill="none" stroke="black" points="404.04,-296.6 404.04,-327.4 604.81,-327.4 604.81,-296.6 404.04,-296.6"/>
<text text-anchor="start" x="411.04" y="-308.8" font-family="Arial" font-size="14.00">unit_id </text>
<text text-anchor="start" x="456.19" y="-308.8" font-family="Arial" font-size="14.00" fill="#666666">[bigint]</text>
<polygon fill="none" stroke="black" stroke-width="3" points="402.54,-295.1 402.54,-549.3 606.31,-549.3 606.31,-295.1 402.54,-295.1"/>
</g>
<!-- units -->
<g id="node6" class="node">
<title>units</title>
<polygon fill="#efefef" stroke="none" points="417.68,-135.6 417.68,-171.2 591.18,-171.2 591.18,-135.6 417.68,-135.6"/>
<polygon fill="none" stroke="black" points="417.68,-135.6 417.68,-171.2 591.18,-171.2 591.18,-135.6 417.68,-135.6"/>
<text text-anchor="start" x="424.68" y="-149" font-family="Arial Bold" font-size="18.00">units</text>
<text text-anchor="start" x="459.69" y="-149" font-family="Arial" font-size="14.00">    </text>
<text text-anchor="start" x="490.8" y="-149" font-family="Arial" font-size="14.00" fill="#666666">[BASE TABLE]</text>
<polygon fill="none" stroke="black" points="417.68,-104.8 417.68,-135.6 591.18,-135.6 591.18,-104.8 417.68,-104.8"/>
<text text-anchor="start" x="424.68" y="-117" font-family="Arial" font-size="14.00">id </text>
<text text-anchor="start" x="439.47" y="-117" font-family="Arial" font-size="14.00" fill="#666666">[bigint]</text>
<polygon fill="none" stroke="black" points="417.68,-74 417.68,-104.8 591.18,-104.8 591.18,-74 417.68,-74"/>
<text text-anchor="start" x="424.68" y="-86.2" font-family="Arial" font-size="14.00">name </text>
<text text-anchor="start" x="463.59" y="-86.2" font-family="Arial" font-size="14.00" fill="#666666">[varchar(255)]</text>
<polygon fill="none" stroke="black" points="417.68,-43.2 417.68,-74 591.18,-74 591.18,-43.2 417.68,-43.2"/>
<text text-anchor="start" x="424.68" y="-55.4" font-family="Arial" font-size="14.00">organization_id </text>
<text text-anchor="start" x="523.53" y="-55.4" font-family="Arial" font-size="14.00" fill="#666666">[bigint]</text>
</g>
<!-- teams&#45;&gt;units -->
<g id="edge8" class="edge">
<title>teams:unit_id&#45;&gt;units:id</title>
<path fill="none" stroke="black" d="M505.41,-285.24C513.66,-245.32 571.44,-259.24 591.18,-214.4 608.04,-176.08 634.04,-120.2 592.18,-120.2"/>
<polygon fill="black" stroke="black" points="505.4,-285.31 499.98,-294.84 504.9,-290.62 504.49,-294.93 504.49,-294.93 504.49,-294.93 504.9,-290.62 508.94,-295.69 505.4,-285.31"/>
<text text-anchor="start" x="277.93" y="-305.6" font-family="Arial" font-size="10.00">FOREIGN KEY (unit_id) REFERENCES units (id)</text>
</g>
<!-- game_teams -->
<g id="node2" class="node">
<title>game_teams</title>
<polygon fill="#efefef" stroke="none" points="43.2,-888.8 43.2,-924.4 271.65,-924.4 271.65,-888.8 43.2,-888.8"/>
<polygon fill="none" stroke="black" points="43.2,-888.8 43.2,-924.4 271.65,-924.4 271.65,-888.8 43.2,-888.8"/>
<text text-anchor="start" x="50.2" y="-902.2" font-family="Arial Bold" font-size="18.00">game_teams</text>
<text text-anchor="start" x="140.16" y="-902.2" font-family="Arial" font-size="14.00">    </text>
<text text-anchor="start" x="171.28" y="-902.2" font-family="Arial" font-size="14.00" fill="#666666">[BASE TABLE]</text>
<polygon fill="none" stroke="black" points="43.2,-858 43.2,-888.8 271.65,-888.8 271.65,-858 43.2,-858"/>
<text text-anchor="start" x="50.2" y="-870.2" font-family="Arial" font-size="14.00">id </text>
<text text-anchor="start" x="64.99" y="-870.2" font-family="Arial" font-size="14.00" fill="#666666">[bigint]</text>
<polygon fill="none" stroke="black" points="43.2,-827.2 43.2,-858 271.65,-858 271.65,-827.2 43.2,-827.2"/>
<text text-anchor="start" x="50.2" y="-839.4" font-family="Arial" font-size="14.00">game_id </text>
<text text-anchor="start" x="107.79" y="-839.4" font-family="Arial" font-size="14.00" fill="#666666">[bigint]</text>
<polygon fill="none" stroke="black" points="43.2,-796.4 43.2,-827.2 271.65,-827.2 271.65,-796.4 43.2,-796.4"/>
<text text-anchor="start" x="50.2" y="-808.6" font-family="Arial" font-size="14.00">team_id </text>
<text text-anchor="start" x="103.9" y="-808.6" font-family="Arial" font-size="14.00" fill="#666666">[bigint]</text>
<polygon fill="none" stroke="black" points="43.2,-765.6 43.2,-796.4 271.65,-796.4 271.65,-765.6 43.2,-765.6"/>
<text text-anchor="start" x="50.2" y="-777.8" font-family="Arial" font-size="14.00">cheer_count </text>
<text text-anchor="start" x="131.14" y="-777.8" font-family="Arial" font-size="14.00" fill="#666666">[int]</text>
<polygon fill="none" stroke="black" points="43.2,-734.8 43.2,-765.6 271.65,-765.6 271.65,-734.8 43.2,-734.8"/>
<text text-anchor="start" x="50.2" y="-747" font-family="Arial" font-size="14.00">score </text>
<text text-anchor="start" x="88.32" y="-747" font-family="Arial" font-size="14.00" fill="#666666">[int]</text>
<polygon fill="none" stroke="black" points="43.2,-704 43.2,-734.8 271.65,-734.8 271.65,-704 43.2,-704"/>
<text text-anchor="start" x="50.2" y="-716.2" font-family="Arial" font-size="14.00">pk_score </text>
<text text-anchor="start" x="110.9" y="-716.2" font-family="Arial" font-size="14.00" fill="#666666">[int]</text>
<polygon fill="none" stroke="black" points="43.2,-673.2 43.2,-704 271.65,-704 271.65,-673.2 43.2,-673.2"/>
<text text-anchor="start" x="50.2" y="-685.4" font-family="Arial" font-size="14.00">result </text>
<text text-anchor="start" x="88.32" y="-685.4" font-family="Arial" font-size="14.00" fill="#666666">[varchar(255)]</text>
</g>
<!-- game_teams&#45;&gt;teams -->
<g id="edge1" class="edge">
<title>game_teams:team_id&#45;&gt;teams:id</title>
<path fill="none" stroke="black" d="M282.68,-811.23C351.23,-802.86 292.72,-703.89 324.43,-630 351.53,-566.83 334.3,-496.8 403.04,-496.8"/>
<polygon fill="black" stroke="black" points="282.97,-811.21 272.73,-807.29 277.65,-811.52 273.32,-811.76 273.32,-811.76 273.32,-811.76 277.65,-811.52 273.24,-816.27 282.97,-811.21"/>
<text text-anchor="start" x="279.65" y="-821.8" font-family="Arial" font-size="10.00">FOREIGN KEY (team_id) REFERENCES teams (id)</text>
</g>
<!-- league_statistics -->
<g id="node3" class="node">
<title>league_statistics</title>
<polygon fill="#efefef" stroke="none" points="376.2,-873.4 376.2,-909 632.66,-909 632.66,-873.4 376.2,-873.4"/>
<polygon fill="none" stroke="black" points="376.2,-873.4 376.2,-909 632.66,-909 632.66,-873.4 376.2,-873.4"/>
<text text-anchor="start" x="383.2" y="-886.8" font-family="Arial Bold" font-size="18.00">league_statistics</text>
<text text-anchor="start" x="501.17" y="-886.8" font-family="Arial" font-size="14.00">    </text>
<text text-anchor="start" x="532.28" y="-886.8" font-family="Arial" font-size="14.00" fill="#666666">[BASE TABLE]</text>
<polygon fill="none" stroke="black" points="376.2,-842.6 376.2,-873.4 632.66,-873.4 632.66,-842.6 376.2,-842.6"/>
<text text-anchor="start" x="383.2" y="-854.8" font-family="Arial" font-size="14.00">id </text>
<text text-anchor="start" x="397.99" y="-854.8" font-family="Arial" font-size="14.00" fill="#666666">[bigint]</text>
<polygon fill="none" stroke="black" points="376.2,-811.8 376.2,-842.6 632.66,-842.6 632.66,-811.8 376.2,-811.8"/>
<text text-anchor="start" x="383.2" y="-824" font-family="Arial" font-size="14.00">league_id </text>
<text text-anchor="start" x="447.81" y="-824" font-family="Arial" font-size="14.00" fill="#666666">[bigint]</text>
<polygon fill="none" stroke="black" points="376.2,-781 376.2,-811.8 632.66,-811.8 632.66,-781 376.2,-781"/>
<text text-anchor="start" x="383.2" y="-793.2" font-family="Arial" font-size="14.00">first_winner_team_id </text>
<text text-anchor="start" x="516.26" y="-793.2" font-family="Arial" font-size="14.00" fill="#666666">[bigint]</text>
<polygon fill="none" stroke="black" points="376.2,-750.2 376.2,-781 632.66,-781 632.66,-750.2 376.2,-750.2"/>
<text text-anchor="start" x="383.2" y="-762.4" font-family="Arial" font-size="14.00">second_winner_team_id </text>
<text text-anchor="start" x="538.85" y="-762.4" font-family="Arial" font-size="14.00" fill="#666666">[bigint]</text>
<polygon fill="none" stroke="black" points="376.2,-719.4 376.2,-750.2 632.66,-750.2 632.66,-719.4 376.2,-719.4"/>
<text text-anchor="start" x="383.2" y="-731.6" font-family="Arial" font-size="14.00">most_cheered_team_id </text>
<text text-anchor="start" x="533.4" y="-731.6" font-family="Arial" font-size="14.00" fill="#666666">[bigint]</text>
<polygon fill="none" stroke="black" points="376.2,-688.6 376.2,-719.4 632.66,-719.4 632.66,-688.6 376.2,-688.6"/>
<text text-anchor="start" x="383.2" y="-700.8" font-family="Arial" font-size="14.00">most_cheer_talks_team_id </text>
<text text-anchor="start" x="554.4" y="-700.8" font-family="Arial" font-size="14.00" fill="#666666">[bigint]</text>
</g>
<!-- league_statistics&#45;&gt;teams -->
<g id="edge2" class="edge">
<title>league_statistics:first_winner_team_id&#45;&gt;teams:id</title>
<path fill="none" stroke="black" d="M643.45,-793.99C697.47,-765.63 669.15,-496.8 605.81,-496.8"/>
<polygon fill="black" stroke="black" points="643.69,-793.93 632.9,-791.95 638.51,-795.2 634.3,-796.24 634.3,-796.24 634.3,-796.24 638.51,-795.2 635.06,-800.69 643.69,-793.93"/>
<text text-anchor="start" x="489.45" y="-780.4" font-family="Arial" font-size="10.00">FOREIGN KEY (first_winner_team_id) REFERENCES teams (id)</text>
</g>
<!-- league_statistics&#45;&gt;teams -->
<g id="edge3" class="edge">
<title>league_statistics:most_cheered_team_id&#45;&gt;teams:id</title>
<path fill="none" stroke="black" d="M643.21,-731.79C683.09,-704.24 655.52,-496.8 605.81,-496.8"/>
<polygon fill="black" stroke="black" points="643.51,-731.69 632.62,-730.41 638.42,-733.3 634.29,-734.6 634.29,-734.6 634.29,-734.6 638.42,-733.3 635.33,-738.99 643.51,-731.69"/>
<text text-anchor="start" x="483.33" y="-718.8" font-family="Arial" font-size="10.00">FOREIGN KEY (most_cheered_team_id) REFERENCES teams (id)</text>
</g>
<!-- league_statistics&#45;&gt;teams -->
<g id="edge4" class="edge">
<title>league_statistics:most_cheer_talks_team_id&#45;&gt;teams:id</title>
<path fill="none" stroke="black" d="M505.23,-677.41C513.41,-629.12 581.69,-646.43 604.81,-594 622.24,-554.47 649.01,-496.8 605.81,-496.8"/>
<polygon fill="black" stroke="black" points="505.24,-677.3 499.97,-686.91 504.82,-682.62 504.48,-686.93 504.48,-686.93 504.48,-686.93 504.82,-682.62 508.94,-687.62 505.24,-677.3"/>
<text text-anchor="start" x="346.6" y="-671.6" font-family="Arial" font-size="10.00">FOREIGN KEY (most_cheer_talks_team_id) REFERENCES teams (id)</text>
</g>
<!-- league_statistics&#45;&gt;teams -->
<g id="edge5" class="edge">
<title>league_statistics:second_winner_team_id&#45;&gt;teams:id</title>
<path fill="none" stroke="black" d="M643.61,-762.76C690.22,-734.04 662.23,-496.8 605.81,-496.8"/>
<polygon fill="black" stroke="black" points="643.59,-762.77 632.74,-761.18 638.46,-764.23 634.3,-765.42 634.3,-765.42 634.3,-765.42 638.46,-764.23 635.21,-769.84 643.59,-762.77"/>
<text text-anchor="start" x="322.11" y="-749.6" font-family="Arial" font-size="10.00">FOREIGN KEY (second_winner_team_id) REFERENCES teams (id)</text>
</g>
<!-- league_teams -->
<g id="node4" class="node">
<title>league_teams</title>
<polygon fill="#efefef" stroke="none" points="737.21,-873.4 737.21,-909 973.65,-909 973.65,-873.4 737.21,-873.4"/>
<polygon fill="none" stroke="black" points="737.21,-873.4 737.21,-909 973.65,-909 973.65,-873.4 737.21,-873.4"/>
<text text-anchor="start" x="744.21" y="-886.8" font-family="Arial Bold" font-size="18.00">league_teams</text>
<text text-anchor="start" x="842.16" y="-886.8" font-family="Arial" font-size="14.00">    </text>
<text text-anchor="start" x="873.28" y="-886.8" font-family="Arial" font-size="14.00" fill="#666666">[BASE TABLE]</text>
<polygon fill="none" stroke="black" points="737.21,-842.6 737.21,-873.4 973.65,-873.4 973.65,-842.6 737.21,-842.6"/>
<text text-anchor="start" x="744.21" y="-854.8" font-family="Arial" font-size="14.00">id </text>
<text text-anchor="start" x="758.99" y="-854.8" font-family="Arial" font-size="14.00" fill="#666666">[bigint]</text>
<polygon fill="none" stroke="black" points="737.21,-811.8 737.21,-842.6 973.65,-842.6 973.65,-811.8 737.21,-811.8"/>
<text text-anchor="start" x="744.21" y="-824" font-family="Arial" font-size="14.00">league_id </text>
<text text-anchor="start" x="808.82" y="-824" font-family="Arial" font-size="14.00" fill="#666666">[bigint]</text>
<polygon fill="none" stroke="black" points="737.21,-781 737.21,-811.8 973.65,-811.8 973.65,-781 737.21,-781"/>
<text text-anchor="start" x="744.21" y="-793.2" font-family="Arial" font-size="14.00">team_id </text>
<text text-anchor="start" x="797.9" y="-793.2" font-family="Arial" font-size="14.00" fill="#666666">[bigint]</text>
<polygon fill="none" stroke="black" points="737.21,-750.2 737.21,-781 973.65,-781 973.65,-750.2 737.21,-750.2"/>
<text text-anchor="start" x="744.21" y="-762.4" font-family="Arial" font-size="14.00">total_cheer_count </text>
<text text-anchor="start" x="859.4" y="-762.4" font-family="Arial" font-size="14.00" fill="#666666">[int]</text>
<polygon fill="none" stroke="black" points="737.21,-719.4 737.21,-750.2 973.65,-750.2 973.65,-719.4 737.21,-719.4"/>
<text text-anchor="start" x="744.21" y="-731.6" font-family="Arial" font-size="14.00">total_talk_count </text>
<text text-anchor="start" x="846.16" y="-731.6" font-family="Arial" font-size="14.00" fill="#666666">[int]</text>
<polygon fill="none" stroke="black" points="737.21,-688.6 737.21,-719.4 973.65,-719.4 973.65,-688.6 737.21,-688.6"/>
<text text-anchor="start" x="744.21" y="-700.8" font-family="Arial" font-size="14.00">ranking </text>
<text text-anchor="start" x="794.01" y="-700.8" font-family="Arial" font-size="14.00" fill="#666666">[int]</text>
</g>
<!-- league_teams&#45;&gt;teams -->
<g id="edge6" class="edge">
<title>league_teams:team_id&#45;&gt;teams:id</title>
<path fill="none" stroke="black" d="M725.8,-795.73C664.11,-787.12 714.29,-697.35 684.43,-630 656.56,-567.16 674.55,-496.8 605.81,-496.8"/>
<polygon fill="black" stroke="black" points="725.89,-795.74 735.58,-800.87 731.22,-796.08 735.54,-796.36 735.54,-796.36 735.54,-796.36 731.22,-796.08 736.16,-791.89 725.89,-795.74"/>
<text text-anchor="start" x="497.49" y="-806.4" font-family="Arial" font-size="10.00">FOREIGN KEY (team_id) REFERENCES teams (id)</text>
</g>
<!-- team_players -->
<g id="node5" class="node">
<title>team_players</title>
<polygon fill="#efefef" stroke="none" points="1078.2,-842.6 1078.2,-878.2 1312.65,-878.2 1312.65,-842.6 1078.2,-842.6"/>
<polygon fill="none" stroke="black" points="1078.2,-842.6 1078.2,-878.2 1312.65,-878.2 1312.65,-842.6 1078.2,-842.6"/>
<text text-anchor="start" x="1085.2" y="-856" font-family="Arial Bold" font-size="18.00">team_players</text>
<text text-anchor="start" x="1181.16" y="-856" font-family="Arial" font-size="14.00">    </text>
<text text-anchor="start" x="1212.28" y="-856" font-family="Arial" font-size="14.00" fill="#666666">[BASE TABLE]</text>
<polygon fill="none" stroke="black" points="1078.2,-811.8 1078.2,-842.6 1312.65,-842.6 1312.65,-811.8 1078.2,-811.8"/>
<text text-anchor="start" x="1085.2" y="-824" font-family="Arial" font-size="14.00">id </text>
<text text-anchor="start" x="1099.99" y="-824" font-family="Arial" font-size="14.00" fill="#666666">[bigint]</text>
<polygon fill="none" stroke="black" points="1078.2,-781 1078.2,-811.8 1312.65,-811.8 1312.65,-781 1078.2,-781"/>
<text text-anchor="start" x="1085.2" y="-793.2" font-family="Arial" font-size="14.00">team_id </text>
<text text-anchor="start" x="1138.9" y="-793.2" font-family="Arial" font-size="14.00" fill="#666666">[bigint]</text>
<polygon fill="none" stroke="black" points="1078.2,-750.2 1078.2,-781 1312.65,-781 1312.65,-750.2 1078.2,-750.2"/>
<text text-anchor="start" x="1085.2" y="-762.4" font-family="Arial" font-size="14.00">player_id </text>
<text text-anchor="start" x="1145.91" y="-762.4" font-family="Arial" font-size="14.00" fill="#666666">[bigint]</text>
<polygon fill="none" stroke="black" points="1078.2,-719.4 1078.2,-750.2 1312.65,-750.2 1312.65,-719.4 1078.2,-719.4"/>
<text text-anchor="start" x="1085.2" y="-731.6" font-family="Arial" font-size="14.00">jersey_number </text>
<text text-anchor="start" x="1181.69" y="-731.6" font-family="Arial" font-size="14.00" fill="#666666">[int]</text>
</g>
<!-- team_players&#45;&gt;teams -->
<g id="edge7" class="edge">
<title>team_players:team_id&#45;&gt;teams:id</title>
<path fill="none" stroke="black" d="M1066.95,-795.62C1007.27,-785.65 1077.37,-682.24 1025.43,-630 956.45,-560.62 703.64,-496.8 605.81,-496.8"/>
<polygon fill="black" stroke="black" points="1066.9,-795.62 1076.53,-800.86 1072.22,-796.02 1076.54,-796.35 1076.54,-796.35 1076.54,-796.35 1072.22,-796.02 1077.21,-791.89 1066.9,-795.62"/>
<text text-anchor="start" x="838.49" y="-806.4" font-family="Arial" font-size="10.00">FOREIGN KEY (team_id) REFERENCES teams (id)</text>
</g>
</g>
</svg>
