<?xml version="1.0" encoding="UTF-8" standalone="no"?>
<!DOCTYPE svg PUBLIC "-//W3C//DTD SVG 1.1//EN"
 "http://www.w3.org/Graphics/SVG/1.1/DTD/svg11.dtd">
<!-- Generated by graphviz version 12.1.2 (20240928.0832)
 -->
<!-- Title: timelines Pages: 1 -->
<svg width="981pt" height="1249pt"
 viewBox="0.00 0.00 980.97 1248.80" xmlns="http://www.w3.org/2000/svg" xmlns:xlink="http://www.w3.org/1999/xlink">
<g id="graph0" class="graph" transform="scale(1 1) rotate(0) translate(4 1244.8)">
<title>timelines</title>
<polygon fill="white" stroke="none" points="-4,4 -4,-1244.8 976.97,-1244.8 976.97,4 -4,4"/>
<!-- timelines -->
<g id="node1" class="node">
<title>timelines</title>
<polygon fill="#efefef" stroke="none" points="341.85,-1159 341.85,-1194.6 607.24,-1194.6 607.24,-1159 341.85,-1159"/>
<polygon fill="none" stroke="black" points="341.85,-1159 341.85,-1194.6 607.24,-1194.6 607.24,-1159 341.85,-1159"/>
<text text-anchor="start" x="379.31" y="-1172.4" font-family="Arial Bold" font-size="18.00">timelines</text>
<text text-anchor="start" x="445.29" y="-1172.4" font-family="Arial" font-size="14.00">    </text>
<text text-anchor="start" x="476.41" y="-1172.4" font-family="Arial" font-size="14.00" fill="#666666">[BASE TABLE]</text>
<polygon fill="none" stroke="black" points="341.85,-1128.2 341.85,-1159 607.24,-1159 607.24,-1128.2 341.85,-1128.2"/>
<text text-anchor="start" x="348.85" y="-1140.4" font-family="Arial" font-size="14.00">id </text>
<text text-anchor="start" x="363.63" y="-1140.4" font-family="Arial" font-size="14.00" fill="#666666">[bigint]</text>
<polygon fill="none" stroke="black" points="341.85,-1097.4 341.85,-1128.2 607.24,-1128.2 607.24,-1097.4 341.85,-1097.4"/>
<text text-anchor="start" x="348.85" y="-1109.6" font-family="Arial" font-size="14.00">type </text>
<text text-anchor="start" x="379.2" y="-1109.6" font-family="Arial" font-size="14.00" fill="#666666">[varchar(255)]</text>
<polygon fill="none" stroke="black" points="341.85,-1066.6 341.85,-1097.4 607.24,-1097.4 607.24,-1066.6 341.85,-1066.6"/>
<text text-anchor="start" x="348.85" y="-1078.8" font-family="Arial" font-size="14.00">game_id </text>
<text text-anchor="start" x="406.44" y="-1078.8" font-family="Arial" font-size="14.00" fill="#666666">[bigint]</text>
<polygon fill="none" stroke="black" points="341.85,-1035.8 341.85,-1066.6 607.24,-1066.6 607.24,-1035.8 341.85,-1035.8"/>
<text text-anchor="start" x="348.85" y="-1048" font-family="Arial" font-size="14.00">recorded_quarter </text>
<text text-anchor="start" x="460.14" y="-1048" font-family="Arial" font-size="14.00" fill="#666666">[varchar(255)]</text>
<polygon fill="none" stroke="black" points="341.85,-1005 341.85,-1035.8 607.24,-1035.8 607.24,-1005 341.85,-1005"/>
<text text-anchor="start" x="348.85" y="-1017.2" font-family="Arial" font-size="14.00">recorded_at </text>
<text text-anchor="start" x="427.45" y="-1017.2" font-family="Arial" font-size="14.00" fill="#666666">[int]</text>
<polygon fill="none" stroke="black" points="341.85,-974.2 341.85,-1005 607.24,-1005 607.24,-974.2 341.85,-974.2"/>
<text text-anchor="start" x="348.85" y="-986.4" font-family="Arial" font-size="14.00">scorer_id </text>
<text text-anchor="start" x="410.32" y="-986.4" font-family="Arial" font-size="14.00" fill="#666666">[bigint]</text>
<polygon fill="none" stroke="black" points="341.85,-943.4 341.85,-974.2 607.24,-974.2 607.24,-943.4 341.85,-943.4"/>
<text text-anchor="start" x="348.85" y="-955.6" font-family="Arial" font-size="14.00">score </text>
<text text-anchor="start" x="386.97" y="-955.6" font-family="Arial" font-size="14.00" fill="#666666">[int]</text>
<polygon fill="none" stroke="black" points="341.85,-912.6 341.85,-943.4 607.24,-943.4 607.24,-912.6 341.85,-912.6"/>
<text text-anchor="start" x="348.85" y="-924.8" font-family="Arial" font-size="14.00">is_success </text>
<text text-anchor="start" x="421.21" y="-924.8" font-family="Arial" font-size="14.00" fill="#666666">[tinyint(1)]</text>
<polygon fill="none" stroke="black" points="341.85,-881.8 341.85,-912.6 607.24,-912.6 607.24,-881.8 341.85,-881.8"/>
<text text-anchor="start" x="348.85" y="-894" font-family="Arial" font-size="14.00">origin_lineup_player_id </text>
<text text-anchor="start" x="496.73" y="-894" font-family="Arial" font-size="14.00" fill="#666666">[bigint]</text>
<polygon fill="none" stroke="black" points="341.85,-851 341.85,-881.8 607.24,-881.8 607.24,-851 341.85,-851"/>
<text text-anchor="start" x="348.85" y="-863.2" font-family="Arial" font-size="14.00">replaced_lineup_player_id </text>
<text text-anchor="start" x="516.19" y="-863.2" font-family="Arial" font-size="14.00" fill="#666666">[bigint]</text>
<polygon fill="none" stroke="black" points="341.85,-820.2 341.85,-851 607.24,-851 607.24,-820.2 341.85,-820.2"/>
<text text-anchor="start" x="348.85" y="-832.4" font-family="Arial" font-size="14.00">game_progress_type </text>
<text text-anchor="start" x="484.26" y="-832.4" font-family="Arial" font-size="14.00" fill="#666666">[varchar(255)]</text>
<polygon fill="none" stroke="black" points="341.85,-789.4 341.85,-820.2 607.24,-820.2 607.24,-789.4 341.85,-789.4"/>
<text text-anchor="start" x="348.85" y="-801.6" font-family="Arial" font-size="14.00">game_team1_id </text>
<text text-anchor="start" x="453.14" y="-801.6" font-family="Arial" font-size="14.00" fill="#666666">[bigint]</text>
<polygon fill="none" stroke="black" points="341.85,-758.6 341.85,-789.4 607.24,-789.4 607.24,-758.6 341.85,-758.6"/>
<text text-anchor="start" x="348.85" y="-770.8" font-family="Arial" font-size="14.00">game_team2_id </text>
<text text-anchor="start" x="453.14" y="-770.8" font-family="Arial" font-size="14.00" fill="#666666">[bigint]</text>
<polygon fill="none" stroke="black" points="341.85,-727.8 341.85,-758.6 607.24,-758.6 607.24,-727.8 341.85,-727.8"/>
<text text-anchor="start" x="348.85" y="-740" font-family="Arial" font-size="14.00">snapshot_score1 </text>
<text text-anchor="start" x="459.37" y="-740" font-family="Arial" font-size="14.00" fill="#666666">[int]</text>
<polygon fill="none" stroke="black" points="341.85,-697 341.85,-727.8 607.24,-727.8 607.24,-697 341.85,-697"/>
<text text-anchor="start" x="348.85" y="-709.2" font-family="Arial" font-size="14.00">snapshot_score2 </text>
<text text-anchor="start" x="459.37" y="-709.2" font-family="Arial" font-size="14.00" fill="#666666">[int]</text>
<polygon fill="none" stroke="black" points="341.85,-666.2 341.85,-697 607.24,-697 607.24,-666.2 341.85,-666.2"/>
<text text-anchor="start" x="348.85" y="-678.4" font-family="Arial" font-size="14.00">previous_quarter </text>
<text text-anchor="start" x="457.8" y="-678.4" font-family="Arial" font-size="14.00" fill="#666666">[varchar(255)]</text>
<polygon fill="none" stroke="black" points="341.85,-635.4 341.85,-666.2 607.24,-666.2 607.24,-635.4 341.85,-635.4"/>
<text text-anchor="start" x="348.85" y="-647.6" font-family="Arial" font-size="14.00">previous_quarter_changed_at </text>
<text text-anchor="start" x="538.76" y="-647.6" font-family="Arial" font-size="14.00" fill="#666666">[datetime]</text>
<polygon fill="none" stroke="black" points="341.85,-604.6 341.85,-635.4 607.24,-635.4 607.24,-604.6 341.85,-604.6"/>
<text text-anchor="start" x="348.85" y="-616.8" font-family="Arial" font-size="14.00">warning_card_type </text>
<text text-anchor="start" x="471.03" y="-616.8" font-family="Arial" font-size="14.00" fill="#666666">[varchar(255)]</text>
<polygon fill="none" stroke="black" points="341.85,-573.8 341.85,-604.6 607.24,-604.6 607.24,-573.8 341.85,-573.8"/>
<text text-anchor="start" x="348.85" y="-586" font-family="Arial" font-size="14.00">assist_lineup_player_id </text>
<text text-anchor="start" x="498.28" y="-586" font-family="Arial" font-size="14.00" fill="#666666">[bigint]</text>
<polygon fill="none" stroke="black" points="341.85,-543 341.85,-573.8 607.24,-573.8 607.24,-543 341.85,-543"/>
<text text-anchor="start" x="348.85" y="-555.2" font-family="Arial" font-size="14.00">is_foul_out </text>
<text text-anchor="start" x="420.45" y="-555.2" font-family="Arial" font-size="14.00" fill="#666666">[tinyint(1)]</text>
<polygon fill="none" stroke="black" stroke-width="3" points="340.35,-541.5 340.35,-1196.1 608.74,-1196.1 608.74,-541.5 340.35,-541.5"/>
</g>
<!-- games -->
<g id="node2" class="node">
<title>games</title>
<polygon fill="#efefef" stroke="none" points="43.2,-382 43.2,-417.6 247.89,-417.6 247.89,-382 43.2,-382"/>
<polygon fill="none" stroke="black" points="43.2,-382 43.2,-417.6 247.89,-417.6 247.89,-382 43.2,-382"/>
<text text-anchor="start" x="60.31" y="-395.4" font-family="Arial Bold" font-size="18.00">games</text>
<text text-anchor="start" x="106.29" y="-395.4" font-family="Arial" font-size="14.00">    </text>
<text text-anchor="start" x="137.41" y="-395.4" font-family="Arial" font-size="14.00" fill="#666666">[BASE TABLE]</text>
<polygon fill="none" stroke="black" points="43.2,-351.2 43.2,-382 247.89,-382 247.89,-351.2 43.2,-351.2"/>
<text text-anchor="start" x="50.2" y="-363.4" font-family="Arial" font-size="14.00">id </text>
<text text-anchor="start" x="64.99" y="-363.4" font-family="Arial" font-size="14.00" fill="#666666">[bigint]</text>
<polygon fill="none" stroke="black" points="43.2,-320.4 43.2,-351.2 247.89,-351.2 247.89,-320.4 43.2,-320.4"/>
<text text-anchor="start" x="50.2" y="-332.6" font-family="Arial" font-size="14.00">administrator_id </text>
<text text-anchor="start" x="153.69" y="-332.6" font-family="Arial" font-size="14.00" fill="#666666">[bigint]</text>
<polygon fill="none" stroke="black" points="43.2,-289.6 43.2,-320.4 247.89,-320.4 247.89,-289.6 43.2,-289.6"/>
<text text-anchor="start" x="50.2" y="-301.8" font-family="Arial" font-size="14.00">league_id </text>
<text text-anchor="start" x="114.81" y="-301.8" font-family="Arial" font-size="14.00" fill="#666666">[bigint]</text>
<polygon fill="none" stroke="black" points="43.2,-258.8 43.2,-289.6 247.89,-289.6 247.89,-258.8 43.2,-258.8"/>
<text text-anchor="start" x="50.2" y="-271" font-family="Arial" font-size="14.00">start_time </text>
<text text-anchor="start" x="115.55" y="-271" font-family="Arial" font-size="14.00" fill="#666666">[datetime]</text>
<polygon fill="none" stroke="black" points="43.2,-228 43.2,-258.8 247.89,-258.8 247.89,-228 43.2,-228"/>
<text text-anchor="start" x="50.2" y="-240.2" font-family="Arial" font-size="14.00">name </text>
<text text-anchor="start" x="89.11" y="-240.2" font-family="Arial" font-size="14.00" fill="#666666">[varchar(255)]</text>
<polygon fill="none" stroke="black" points="43.2,-197.2 43.2,-228 247.89,-228 247.89,-197.2 43.2,-197.2"/>
<text text-anchor="start" x="50.2" y="-209.4" font-family="Arial" font-size="14.00">video_id </text>
<text text-anchor="start" x="106.24" y="-209.4" font-family="Arial" font-size="14.00" fill="#666666">[varchar(255)]</text>
<polygon fill="none" stroke="black" points="43.2,-166.4 43.2,-197.2 247.89,-197.2 247.89,-166.4 43.2,-166.4"/>
<text text-anchor="start" x="50.2" y="-178.6" font-family="Arial" font-size="14.00">quarter_changed_at </text>
<text text-anchor="start" x="179.41" y="-178.6" font-family="Arial" font-size="14.00" fill="#666666">[datetime]</text>
<polygon fill="none" stroke="black" points="43.2,-135.6 43.2,-166.4 247.89,-166.4 247.89,-135.6 43.2,-135.6"/>
<text text-anchor="start" x="50.2" y="-147.8" font-family="Arial" font-size="14.00">game_quarter </text>
<text text-anchor="start" x="141.25" y="-147.8" font-family="Arial" font-size="14.00" fill="#666666">[varchar(255)]</text>
<polygon fill="none" stroke="black" points="43.2,-104.8 43.2,-135.6 247.89,-135.6 247.89,-104.8 43.2,-104.8"/>
<text text-anchor="start" x="50.2" y="-117" font-family="Arial" font-size="14.00">state </text>
<text text-anchor="start" x="84.44" y="-117" font-family="Arial" font-size="14.00" fill="#666666">[varchar(255)]</text>
<polygon fill="none" stroke="black" points="43.2,-74 43.2,-104.8 247.89,-104.8 247.89,-74 43.2,-74"/>
<text text-anchor="start" x="50.2" y="-86.2" font-family="Arial" font-size="14.00">round </text>
<text text-anchor="start" x="89.9" y="-86.2" font-family="Arial" font-size="14.00" fill="#666666">[varchar(255)]</text>
<polygon fill="none" stroke="black" points="43.2,-43.2 43.2,-74 247.89,-74 247.89,-43.2 43.2,-43.2"/>
<text text-anchor="start" x="50.2" y="-55.4" font-family="Arial" font-size="14.00">is_pk_taken </text>
<text text-anchor="start" x="128.81" y="-55.4" font-family="Arial" font-size="14.00" fill="#666666">[tinyint(1)]</text>
</g>
<!-- timelines&#45;&gt;games -->
<g id="edge1" class="edge">
<title>timelines:game_id&#45;&gt;games:id</title>
<path fill="none" stroke="black" d="M331.32,-1078.15C266.3,-1021.84 325.59,-366.6 248.89,-366.6"/>
<polygon fill="black" stroke="black" points="331.27,-1078.13 338.85,-1086.05 336.21,-1080.13 340.23,-1081.75 340.23,-1081.75 340.23,-1081.75 336.21,-1080.13 342.22,-1077.7 331.27,-1078.13"/>
<text text-anchor="start" x="96.57" y="-1092" font-family="Arial" font-size="10.00">FOREIGN KEY (game_id) REFERENCES games (id)</text>
</g>
<!-- lineup_players -->
<g id="node3" class="node">
<title>lineup_players</title>
<polygon fill="#efefef" stroke="none" points="352.31,-335.8 352.31,-371.4 596.77,-371.4 596.77,-335.8 352.31,-335.8"/>
<polygon fill="none" stroke="black" points="352.31,-335.8 352.31,-371.4 596.77,-371.4 596.77,-335.8 352.31,-335.8"/>
<text text-anchor="start" x="359.31" y="-349.2" font-family="Arial Bold" font-size="18.00">lineup_players</text>
<text text-anchor="start" x="465.28" y="-349.2" font-family="Arial" font-size="14.00">    </text>
<text text-anchor="start" x="496.4" y="-349.2" font-family="Arial" font-size="14.00" fill="#666666">[BASE TABLE]</text>
<polygon fill="none" stroke="black" points="352.31,-305 352.31,-335.8 596.77,-335.8 596.77,-305 352.31,-305"/>
<text text-anchor="start" x="359.31" y="-317.2" font-family="Arial" font-size="14.00">id </text>
<text text-anchor="start" x="374.1" y="-317.2" font-family="Arial" font-size="14.00" fill="#666666">[bigint]</text>
<polygon fill="none" stroke="black" points="352.31,-274.2 352.31,-305 596.77,-305 596.77,-274.2 352.31,-274.2"/>
<text text-anchor="start" x="359.31" y="-286.4" font-family="Arial" font-size="14.00">game_team_id </text>
<text text-anchor="start" x="455.82" y="-286.4" font-family="Arial" font-size="14.00" fill="#666666">[bigint]</text>
<polygon fill="none" stroke="black" points="352.31,-243.4 352.31,-274.2 596.77,-274.2 596.77,-243.4 352.31,-243.4"/>
<text text-anchor="start" x="359.31" y="-255.6" font-family="Arial" font-size="14.00">player_id </text>
<text text-anchor="start" x="420.02" y="-255.6" font-family="Arial" font-size="14.00" fill="#666666">[bigint]</text>
<polygon fill="none" stroke="black" points="352.31,-212.6 352.31,-243.4 596.77,-243.4 596.77,-212.6 352.31,-212.6"/>
<text text-anchor="start" x="359.31" y="-224.8" font-family="Arial" font-size="14.00">jersey_number </text>
<text text-anchor="start" x="455.8" y="-224.8" font-family="Arial" font-size="14.00" fill="#666666">[int]</text>
<polygon fill="none" stroke="black" points="352.31,-181.8 352.31,-212.6 596.77,-212.6 596.77,-181.8 352.31,-181.8"/>
<text text-anchor="start" x="359.31" y="-194" font-family="Arial" font-size="14.00">is_captain </text>
<text text-anchor="start" x="426.25" y="-194" font-family="Arial" font-size="14.00" fill="#666666">[tinyint(1)]</text>
<polygon fill="none" stroke="black" points="352.31,-151 352.31,-181.8 596.77,-181.8 596.77,-151 352.31,-151"/>
<text text-anchor="start" x="359.31" y="-163.2" font-family="Arial" font-size="14.00">state </text>
<text text-anchor="start" x="393.56" y="-163.2" font-family="Arial" font-size="14.00" fill="#666666">[varchar(255)]</text>
<polygon fill="none" stroke="black" points="352.31,-120.2 352.31,-151 596.77,-151 596.77,-120.2 352.31,-120.2"/>
<text text-anchor="start" x="359.31" y="-132.4" font-family="Arial" font-size="14.00">is_playing </text>
<text text-anchor="start" x="425.47" y="-132.4" font-family="Arial" font-size="14.00" fill="#666666">[tinyint(1)]</text>
<polygon fill="none" stroke="black" points="352.31,-89.4 352.31,-120.2 596.77,-120.2 596.77,-89.4 352.31,-89.4"/>
<text text-anchor="start" x="359.31" y="-101.6" font-family="Arial" font-size="14.00">replaced_player_id </text>
<text text-anchor="start" x="481.51" y="-101.6" font-family="Arial" font-size="14.00" fill="#666666">[bigint]</text>
</g>
<!-- timelines&#45;&gt;lineup_players -->
<g id="edge2" class="edge">
<title>timelines:scorer_id&#45;&gt;lineup_players:id</title>
<path fill="none" stroke="black" d="M617.75,-985.67C681.54,-930.83 668.8,-320.4 597.77,-320.4"/>
<polygon fill="black" stroke="black" points="617.79,-985.65 606.83,-985.31 612.86,-987.69 608.86,-989.34 608.86,-989.34 608.86,-989.34 612.86,-987.69 610.27,-993.63 617.79,-985.65"/>
<text text-anchor="start" x="615.24" y="-999.6" font-family="Arial" font-size="10.00">FOREIGN KEY (scorer_id) REFERENCES lineup_players (id)</text>
</g>
<!-- timelines&#45;&gt;lineup_players -->
<g id="edge3" class="edge">
<title>timelines:origin_lineup_player_id&#45;&gt;lineup_players:id</title>
<path fill="none" stroke="black" d="M617.43,-892.89C671.14,-840.11 658.62,-320.4 597.77,-320.4"/>
<polygon fill="black" stroke="black" points="617.6,-892.81 606.63,-892.98 612.77,-895.08 608.85,-896.92 608.85,-896.92 608.85,-896.92 612.77,-895.08 610.45,-901.13 617.6,-892.81"/>
<text text-anchor="start" x="615.24" y="-907.2" font-family="Arial" font-size="10.00">FOREIGN KEY (origin_lineup_player_id) REFERENCES lineup_players (id)</text>
</g>
<!-- timelines&#45;&gt;lineup_players -->
<g id="edge4" class="edge">
<title>timelines:replaced_lineup_player_id&#45;&gt;lineup_players:id</title>
<path fill="none" stroke="black" d="M617.25,-862.01C667.67,-810.33 655.25,-320.4 597.77,-320.4"/>
<polygon fill="black" stroke="black" points="617.53,-861.87 606.57,-862.21 612.73,-864.21 608.84,-866.11 608.84,-866.11 608.84,-866.11 612.73,-864.21 610.51,-870.3 617.53,-861.87"/>
<text text-anchor="start" x="615.24" y="-876.4" font-family="Arial" font-size="10.00">FOREIGN KEY (replaced_lineup_player_id) REFERENCES lineup_players (id)</text>
</g>
<!-- timelines&#45;&gt;lineup_players -->
<g id="edge7" class="edge">
<title>timelines:assist_lineup_player_id&#45;&gt;lineup_players:id</title>
<path fill="none" stroke="black" d="M618.03,-586.54C666.62,-558.62 654.05,-320.4 597.77,-320.4"/>
<polygon fill="black" stroke="black" points="618.21,-586.49 607.38,-584.77 613.07,-587.89 608.89,-589.02 608.89,-589.02 608.89,-589.02 613.07,-587.89 609.74,-593.45 618.21,-586.49"/>
<text text-anchor="start" x="615.24" y="-599.2" font-family="Arial" font-size="10.00">FOREIGN KEY (assist_lineup_player_id) REFERENCES lineup_players (id)</text>
</g>
<!-- game_teams -->
<g id="node4" class="node">
<title>game_teams</title>
<polygon fill="#efefef" stroke="none" points="701.32,-320.4 701.32,-356 929.77,-356 929.77,-320.4 701.32,-320.4"/>
<polygon fill="none" stroke="black" points="701.32,-320.4 701.32,-356 929.77,-356 929.77,-320.4 701.32,-320.4"/>
<text text-anchor="start" x="708.32" y="-333.8" font-family="Arial Bold" font-size="18.00">game_teams</text>
<text text-anchor="start" x="798.28" y="-333.8" font-family="Arial" font-size="14.00">    </text>
<text text-anchor="start" x="829.4" y="-333.8" font-family="Arial" font-size="14.00" fill="#666666">[BASE TABLE]</text>
<polygon fill="none" stroke="black" points="701.32,-289.6 701.32,-320.4 929.77,-320.4 929.77,-289.6 701.32,-289.6"/>
<text text-anchor="start" x="708.32" y="-301.8" font-family="Arial" font-size="14.00">id </text>
<text text-anchor="start" x="723.1" y="-301.8" font-family="Arial" font-size="14.00" fill="#666666">[bigint]</text>
<polygon fill="none" stroke="black" points="701.32,-258.8 701.32,-289.6 929.77,-289.6 929.77,-258.8 701.32,-258.8"/>
<text text-anchor="start" x="708.32" y="-271" font-family="Arial" font-size="14.00">game_id </text>
<text text-anchor="start" x="765.91" y="-271" font-family="Arial" font-size="14.00" fill="#666666">[bigint]</text>
<polygon fill="none" stroke="black" points="701.32,-228 701.32,-258.8 929.77,-258.8 929.77,-228 701.32,-228"/>
<text text-anchor="start" x="708.32" y="-240.2" font-family="Arial" font-size="14.00">team_id </text>
<text text-anchor="start" x="762.01" y="-240.2" font-family="Arial" font-size="14.00" fill="#666666">[bigint]</text>
<polygon fill="none" stroke="black" points="701.32,-197.2 701.32,-228 929.77,-228 929.77,-197.2 701.32,-197.2"/>
<text text-anchor="start" x="708.32" y="-209.4" font-family="Arial" font-size="14.00">cheer_count </text>
<text text-anchor="start" x="789.26" y="-209.4" font-family="Arial" font-size="14.00" fill="#666666">[int]</text>
<polygon fill="none" stroke="black" points="701.32,-166.4 701.32,-197.2 929.77,-197.2 929.77,-166.4 701.32,-166.4"/>
<text text-anchor="start" x="708.32" y="-178.6" font-family="Arial" font-size="14.00">score </text>
<text text-anchor="start" x="746.44" y="-178.6" font-family="Arial" font-size="14.00" fill="#666666">[int]</text>
<polygon fill="none" stroke="black" points="701.32,-135.6 701.32,-166.4 929.77,-166.4 929.77,-135.6 701.32,-135.6"/>
<text text-anchor="start" x="708.32" y="-147.8" font-family="Arial" font-size="14.00">pk_score </text>
<text text-anchor="start" x="769.01" y="-147.8" font-family="Arial" font-size="14.00" fill="#666666">[int]</text>
<polygon fill="none" stroke="black" points="701.32,-104.8 701.32,-135.6 929.77,-135.6 929.77,-104.8 701.32,-104.8"/>
<text text-anchor="start" x="708.32" y="-117" font-family="Arial" font-size="14.00">result </text>
<text text-anchor="start" x="746.44" y="-117" font-family="Arial" font-size="14.00" fill="#666666">[varchar(255)]</text>
</g>
<!-- timelines&#45;&gt;game_teams -->
<g id="edge5" class="edge">
<title>timelines:game_team1_id&#45;&gt;game_teams:id</title>
<path fill="none" stroke="black" d="M618.41,-803.28C712.81,-773.11 591.02,-305 700.32,-305"/>
<polygon fill="black" stroke="black" points="618.46,-803.27 607.9,-800.3 613.18,-804.06 608.9,-804.7 608.9,-804.7 608.9,-804.7 613.18,-804.06 609.24,-809.2 618.46,-803.27"/>
<text text-anchor="start" x="615.24" y="-814.8" font-family="Arial" font-size="10.00">FOREIGN KEY (game_team1_id) REFERENCES game_teams (id)</text>
</g>
<!-- timelines&#45;&gt;game_teams -->
<g id="edge6" class="edge">
<title>timelines:game_team2_id&#45;&gt;game_teams:id</title>
<path fill="none" stroke="black" d="M618.35,-772.39C706.49,-742.49 597.74,-305 700.32,-305"/>
<polygon fill="black" stroke="black" points="618.45,-772.38 607.86,-769.5 613.18,-773.22 608.9,-773.9 608.9,-773.9 608.9,-773.9 613.18,-773.22 609.28,-778.39 618.45,-772.38"/>
<text text-anchor="start" x="615.24" y="-784" font-family="Arial" font-size="10.00">FOREIGN KEY (game_team2_id) REFERENCES game_teams (id)</text>
</g>
</g>
</svg>
