<?xml version="1.0" encoding="UTF-8" standalone="no"?>
<!DOCTYPE svg PUBLIC "-//W3C//DTD SVG 1.1//EN"
 "http://www.w3.org/Graphics/SVG/1.1/DTD/svg11.dtd">
<!-- Generated by graphviz version 12.1.2 (20240928.0832)
 -->
<!-- Title: units Pages: 1 -->
<svg width="479pt" height="883pt"
 viewBox="0.00 0.00 479.15 883.20" xmlns="http://www.w3.org/2000/svg" xmlns:xlink="http://www.w3.org/1999/xlink">
<g id="graph0" class="graph" transform="scale(1 1) rotate(0) translate(4 879.2)">
<title>units</title>
<polygon fill="white" stroke="none" points="-4,4 -4,-879.2 475.15,-879.2 475.15,4 -4,4"/>
<!-- units -->
<g id="node1" class="node">
<title>units</title>
<polygon fill="#efefef" stroke="none" points="223.47,-419.8 223.47,-455.4 396.96,-455.4 396.96,-419.8 223.47,-419.8"/>
<polygon fill="none" stroke="black" points="223.47,-419.8 223.47,-455.4 396.96,-455.4 396.96,-419.8 223.47,-419.8"/>
<text text-anchor="start" x="230.47" y="-433.2" font-family="Arial Bold" font-size="18.00">units</text>
<text text-anchor="start" x="265.47" y="-433.2" font-family="Arial" font-size="14.00">    </text>
<text text-anchor="start" x="296.59" y="-433.2" font-family="Arial" font-size="14.00" fill="#666666">[BASE TABLE]</text>
<polygon fill="none" stroke="black" points="223.47,-389 223.47,-419.8 396.96,-419.8 396.96,-389 223.47,-389"/>
<text text-anchor="start" x="230.47" y="-401.2" font-family="Arial" font-size="14.00">id </text>
<text text-anchor="start" x="245.25" y="-401.2" font-family="Arial" font-size="14.00" fill="#666666">[bigint]</text>
<polygon fill="none" stroke="black" points="223.47,-358.2 223.47,-389 396.96,-389 396.96,-358.2 223.47,-358.2"/>
<text text-anchor="start" x="230.47" y="-370.4" font-family="Arial" font-size="14.00">name </text>
<text text-anchor="start" x="269.38" y="-370.4" font-family="Arial" font-size="14.00" fill="#666666">[varchar(255)]</text>
<polygon fill="none" stroke="black" points="223.47,-327.4 223.47,-358.2 396.96,-358.2 396.96,-327.4 223.47,-327.4"/>
<text text-anchor="start" x="230.47" y="-339.6" font-family="Arial" font-size="14.00">organization_id </text>
<text text-anchor="start" x="329.32" y="-339.6" font-family="Arial" font-size="14.00" fill="#666666">[bigint]</text>
<polygon fill="none" stroke="black" stroke-width="3" points="221.97,-325.9 221.97,-456.9 398.46,-456.9 398.46,-325.9 221.97,-325.9"/>
</g>
<!-- organizations -->
<g id="node3" class="node">
<title>organizations</title>
<polygon fill="#efefef" stroke="none" points="192.49,-166.4 192.49,-202 427.95,-202 427.95,-166.4 192.49,-166.4"/>
<polygon fill="none" stroke="black" points="192.49,-166.4 192.49,-202 427.95,-202 427.95,-166.4 192.49,-166.4"/>
<text text-anchor="start" x="199.49" y="-179.8" font-family="Arial Bold" font-size="18.00">organizations</text>
<text text-anchor="start" x="296.46" y="-179.8" font-family="Arial" font-size="14.00">    </text>
<text text-anchor="start" x="327.57" y="-179.8" font-family="Arial" font-size="14.00" fill="#666666">[BASE TABLE]</text>
<polygon fill="none" stroke="black" points="192.49,-135.6 192.49,-166.4 427.95,-166.4 427.95,-135.6 192.49,-135.6"/>
<text text-anchor="start" x="199.49" y="-147.8" font-family="Arial" font-size="14.00">id </text>
<text text-anchor="start" x="214.27" y="-147.8" font-family="Arial" font-size="14.00" fill="#666666">[bigint]</text>
<polygon fill="none" stroke="black" points="192.49,-104.8 192.49,-135.6 427.95,-135.6 427.95,-104.8 192.49,-104.8"/>
<text text-anchor="start" x="199.49" y="-117" font-family="Arial" font-size="14.00">name </text>
<text text-anchor="start" x="238.4" y="-117" font-family="Arial" font-size="14.00" fill="#666666">[varchar(255)]</text>
<polygon fill="none" stroke="black" points="192.49,-74 192.49,-104.8 427.95,-104.8 427.95,-74 192.49,-74"/>
<text text-anchor="start" x="199.49" y="-86.2" font-family="Arial" font-size="14.00">student_number_digits </text>
<text text-anchor="start" x="345.02" y="-86.2" font-family="Arial" font-size="14.00" fill="#666666">[int]</text>
<polygon fill="none" stroke="black" points="192.49,-43.2 192.49,-74 427.95,-74 427.95,-43.2 192.49,-43.2"/>
<text text-anchor="start" x="199.49" y="-55.4" font-family="Arial" font-size="14.00">logo_image_url </text>
<text text-anchor="start" x="299.11" y="-55.4" font-family="Arial" font-size="14.00" fill="#666666">[varchar(255)]</text>
</g>
<!-- units&#45;&gt;organizations -->
<g id="edge2" class="edge">
<title>units:organization_id&#45;&gt;organizations:id</title>
<path fill="none" stroke="black" d="M311.09,-316.24C320.32,-267.02 399.85,-298.03 427.95,-245.2 447.61,-208.23 470.81,-151 428.95,-151"/>
<polygon fill="black" stroke="black" points="311.1,-316.1 305.76,-325.68 310.65,-321.42 310.27,-325.73 310.27,-325.73 310.27,-325.73 310.65,-321.42 314.73,-326.45 311.1,-316.1"/>
<text text-anchor="start" x="7" y="-336.4" font-family="Arial" font-size="10.00">FOREIGN KEY (organization_id) REFERENCES organizations (id)</text>
</g>
<!-- teams -->
<g id="node2" class="node">
<title>teams</title>
<polygon fill="#efefef" stroke="none" points="209.83,-796.4 209.83,-832 410.6,-832 410.6,-796.4 209.83,-796.4"/>
<polygon fill="none" stroke="black" points="209.83,-796.4 209.83,-832 410.6,-832 410.6,-796.4 209.83,-796.4"/>
<text text-anchor="start" x="226.98" y="-809.8" font-family="Arial Bold" font-size="18.00">teams</text>
<text text-anchor="start" x="268.96" y="-809.8" font-family="Arial" font-size="14.00">    </text>
<text text-anchor="start" x="300.08" y="-809.8" font-family="Arial" font-size="14.00" fill="#666666">[BASE TABLE]</text>
<polygon fill="none" stroke="black" points="209.83,-765.6 209.83,-796.4 410.6,-796.4 410.6,-765.6 209.83,-765.6"/>
<text text-anchor="start" x="216.83" y="-777.8" font-family="Arial" font-size="14.00">id </text>
<text text-anchor="start" x="231.62" y="-777.8" font-family="Arial" font-size="14.00" fill="#666666">[bigint]</text>
<polygon fill="none" stroke="black" points="209.83,-734.8 209.83,-765.6 410.6,-765.6 410.6,-734.8 209.83,-734.8"/>
<text text-anchor="start" x="216.83" y="-747" font-family="Arial" font-size="14.00">name </text>
<text text-anchor="start" x="255.74" y="-747" font-family="Arial" font-size="14.00" fill="#666666">[varchar(255)]</text>
<polygon fill="none" stroke="black" points="209.83,-704 209.83,-734.8 410.6,-734.8 410.6,-704 209.83,-704"/>
<text text-anchor="start" x="216.83" y="-716.2" font-family="Arial" font-size="14.00">logo_image_url </text>
<text text-anchor="start" x="316.45" y="-716.2" font-family="Arial" font-size="14.00" fill="#666666">[varchar(255)]</text>
<polygon fill="none" stroke="black" points="209.83,-673.2 209.83,-704 410.6,-704 410.6,-673.2 209.83,-673.2"/>
<text text-anchor="start" x="216.83" y="-685.4" font-family="Arial" font-size="14.00">team_color </text>
<text text-anchor="start" x="289.98" y="-685.4" font-family="Arial" font-size="14.00" fill="#666666">[varchar(255)]</text>
<polygon fill="none" stroke="black" points="209.83,-642.4 209.83,-673.2 410.6,-673.2 410.6,-642.4 209.83,-642.4"/>
<text text-anchor="start" x="216.83" y="-654.6" font-family="Arial" font-size="14.00">is_deleted </text>
<text text-anchor="start" x="284.55" y="-654.6" font-family="Arial" font-size="14.00" fill="#666666">[tinyint(1)]</text>
<polygon fill="none" stroke="black" points="209.83,-611.6 209.83,-642.4 410.6,-642.4 410.6,-611.6 209.83,-611.6"/>
<text text-anchor="start" x="216.83" y="-623.8" font-family="Arial" font-size="14.00">sport_type </text>
<text text-anchor="start" x="286.1" y="-623.8" font-family="Arial" font-size="14.00" fill="#666666">[varchar(20)]</text>
<polygon fill="none" stroke="black" points="209.83,-580.8 209.83,-611.6 410.6,-611.6 410.6,-580.8 209.83,-580.8"/>
<text text-anchor="start" x="216.83" y="-593" font-family="Arial" font-size="14.00">unit_id </text>
<text text-anchor="start" x="261.98" y="-593" font-family="Arial" font-size="14.00" fill="#666666">[bigint]</text>
</g>
<!-- teams&#45;&gt;units -->
<g id="edge1" class="edge">
<title>teams:unit_id&#45;&gt;units:id</title>
<path fill="none" stroke="black" d="M311.15,-569.88C319.2,-530.51 377.12,-545.59 396.96,-501.6 414.73,-462.22 441.17,-404.4 397.96,-404.4"/>
<polygon fill="black" stroke="black" points="311.18,-569.51 305.77,-579.05 310.68,-574.82 310.28,-579.13 310.28,-579.13 310.28,-579.13 310.68,-574.82 314.73,-579.89 311.18,-569.51"/>
<text text-anchor="start" x="83.72" y="-589.8" font-family="Arial" font-size="10.00">FOREIGN KEY (unit_id) REFERENCES units (id)</text>
</g>
</g>
</svg>
